<svg id="圖層_1" data-name="圖層 1" xmlns="http://www.w3.org/2000/svg" viewBox="0 0 458.86 546.03"><defs><style>.cls-1{fill:#3d3d3d;}.cls-2{fill:#20bdef;fill-opacity:0.3;}.cls-3{fill:#fff;stroke-miterlimit:10;}.cls-3,.cls-4{stroke:#fff;stroke-width:3px;}.cls-4{fill:#f9b112;}</style></defs><path class="cls-1" d="M146.62,400.36a4.87,4.87,0,0,1-1.24,1.05,11.32,11.32,0,0,1-3.93,1,23.86,23.86,0,0,0-10.78,4.77c-1.76,1.39-3.41,3.09-5.59,3.69-8.34,2.31-8.77-11.83-10.49-16.93-2.72-8.08-5.43-16.19-9-24.06-7.42-16.45-16.86-32-24.52-48.3q-4.35-9.28-7.91-18.87c-5.09-13.72,2-29,7.66-39.62q8.74-16.27,17.63-32.44c2.9-5.28,5.86-10.61,9.92-14.85,5.93-6.18,13.76-9.64,21.11-13.62,11.4-6.15,21.92-12.67,28.91-24.42,2.75-4.63,4.88-9.73,7.9-14.14,4.23-6.16,10.06-10.8,16.37-14.44,3.78-2.18,14.67-7.9,18.93-2,1.34,1.85.88,4.28,1.28,6.48.57,3,2.76,5.53,4.84,7.82a9.68,9.68,0,0,0,1.71,1.62,8.33,8.33,0,0,0,2.45,1c7.11,2,13.58,4.25,20.65,4.11,4.06-.08,8.12-.34,12.21-.24,4.65.11,17.62-2,21.27,2.21,1.16,1.33,3.11,4.46,2.29,6.11a3.12,3.12,0,0,1-1.42,1.24c-8,4.41-16.72,7.36-23.43,13.84-4.54,4.38-10.77,10.45-9.53,18.26.65,4.13,5.06,6.76,8.89,7.45s7.79.29,11.45,2.05c3.34,1.59,6,4.81,7.89,8.22,2.73,4.86,4.25,10.92,2.15,15.48a17.92,17.92,0,0,1-3.54,4.71q-4.69,5-9.39,10c-4.7,5-7.72,10-6.21,18.1.63,3.28,2.51,6.66,5.41,8.11,3.72,1.86,7.61.08,11.13-1.32a51.81,51.81,0,0,1,24-3.31c4.73.45,9.63,1.57,13.81,4.5,4.49,3.14,13.31,13.31,12.17,19.27-.4,2.06-1.5,3.79-2.23,5.72-3.48,9.08,2.69,13,5.74,20.62,2.25,5.6,4.9,15.74,4.22,21.43-1.37,11.42-19.2,6.88-26.83,5.21-3.11-.69-6.34-1.43-9-3.49-3.13-2.41-5-6.23-6.76-9.88q-3.45-7.33-6.65-14.72a18,18,0,0,1-1.37-4.06,13.27,13.27,0,0,1,.38-5.15c1.48-6.45,13.11-18.9,2.3-24.27-2.38-1.19-4.95-.45-7.26.3-11,3.6-17.44,5.23-29.56.09q-19.67-8.32-38.77-18.5c-7.66-4.08-27.42-11.18-31.34-20.09a13.87,13.87,0,0,1-.51-9.31,18,18,0,0,1,5.77-8.7c4.38-3.75,9.94-5.66,15.29-7.74a20.61,20.61,0,0,0,6.89-3.82c3.53-3.32,3.59-9.45-2.65-10.84a13.55,13.55,0,0,0-6.27.49c-8.59,2.1-17.25,4.53-24.23,9.84a12.15,12.15,0,0,0-3,3c-2.32,3.61-1.5,8.8-1.6,13.46-.16,7.57-4.83,21.62-13.14,22.13-2.43.15-4.89-1.19-7.25-2.32-4-1.91-8.6-3.32-12.19-1.5-3.17,1.62-4.78,5.49-4.92,9.44-.27,7.13,3.07,9.45-1,14.91-3.5,4.77,2.55,10.09,6.35,13,4.1,3.11-2.18,5.14-4.68,4-2-.91-3.63-2.52-5.56-3.52a16,16,0,0,0-8.66-1.27c-2.67.2-5.67.91-6.59,3.52s.64,5.58,2.71,7.52c4.83,4.58,12,6.41,17.51,9.66l21.91,12.87c3.74,2.2,8.71,9.18,8.93,13.68.24,4.85-2.61,11.05-3.6,15.67a5.05,5.05,0,0,1-1,2.45c-2.69,3-8.71,3.83-12.12,6-2.83,1.82-6,3.24-8.4,5.62-1,1-5.85,8.95-1.21,9.15a3.43,3.43,0,0,0,2.09-.94c3.15-2.38,8.16-5.35,12.4-5.11C143.69,377.78,151.46,394.67,146.62,400.36Z" transform="translate(-71.45 -84.31)"/><path class="cls-2" d="M148.35,323.61c-5.41,2.53-15.61-3.92-20.35-7.26-1.48-1-3.12-2.69-2.72-4.36a3.21,3.21,0,0,1,1.17-1.65,24.33,24.33,0,0,1,3.22-2.41c1.81-1.13,3.83-2.07,5.07-3.87,1.93-2.79.27-7.14-2-9.78-1-1.12-2.27-2-2.72-3.44s.06-2.59.34-3.84c1-4.34-2.23-9.54-.47-13.49a4.75,4.75,0,0,1,5.66-2.39,9.88,9.88,0,0,1,2.23,1,29,29,0,0,0,4.52,2.28c2.59.86,5.58-.47,7.87-1.34,3.49-1.31,6-4.51,10-4.93,3.47-.37,9.82,1.36,11.34,5.13,1,2.52.25,7.88-.6,10.17a34,34,0,0,1-6.62,11.06,41.38,41.38,0,0,0-4.77,5.46c-4.06,6.35-4.64,14.92-8.9,21.45a6,6,0,0,1-2.14,2.24S148.38,323.59,148.35,323.61Z" transform="translate(-71.45 -84.31)"/><path class="cls-1" d="M213.35,365.54c-2.07,0-4.13,0-6.22-.1a5.09,5.09,0,0,1-2.41-.51c-3.69-2.16-1.62-9.14-5.41-12-2.93-2.24-6.82-.7-9.76-.33a16.2,16.2,0,0,1-8.55-.79c-3.08-1.34-3.52-3.46-5.37-5.92a39.11,39.11,0,0,0-6.65-6.78c-4-3.38-5.48-9-6.44-14.21a12.91,12.91,0,0,1-.33-3,11.4,11.4,0,0,1,.82-3.5c2.62-7.32,6.54-13.3,10.29-19.82,3.13-5.42,5.23-13.5,11.47-15.66,4.64-1.6,10,1.5,14.65,4.29,15.89,9.52,34.66,19.63,52,23.73a3.84,3.84,0,0,1,3,2.12c7.43,11.39,9.28,23.9,10.66,36.71.25,2.43.42,5-.71,6.95-1.32,2.24-4,2.95-6.48,3.48C243.38,363.29,228.54,365.48,213.35,365.54Z" transform="translate(-71.45 -84.31)"/><path class="cls-1" d="M190.84,399.14c-3.86,1.49-7.58,3.31-11.84,3.87a17.51,17.51,0,0,1-10.28-1.47c-3.67-1.88-6.54-5.36-9.13-8.83-4-5.39-6.29-11.16-3.56-17.15,2.44-5.36,3.58-8.51.86-15-3.1-7.44,3.38-8.39,9.2-7.29,4.53.87,7,3.59,10.39,6.85l5,8.71c4.3,2.8,7.31,5.11,12.07,5.73,8.58,1.1,17.46.62,25.93.5,21.71-.33,42.78-3.67,64.4-4.13,13.41-.29,25-4.63,38.49,2.9A86.78,86.78,0,0,1,333.27,381a13.14,13.14,0,0,1,2.14,1.95,15.2,15.2,0,0,1,2.17,4c3.32,7.94,5.1,24.57-3.38,27.72-5.89,2.19-12.68,1.8-18.57,4-2.84,1.05-5.44,2.67-8.38,3.46-8.33,2.26-11.4-5.85-18.1-9.2a10.18,10.18,0,0,0-2.73-.8c-24-4.54-47.87-11.38-71.88-14.77a54.5,54.5,0,0,0-18.25.09A34,34,0,0,0,190.84,399.14Z" transform="translate(-71.45 -84.31)"/><path class="cls-3" d="M132.28,444c.06,1.75.19,3.5.36,5.24a179.3,179.3,0,0,0,19.69,66.07c11.62,22.27,27.64,37.75,47.84,51,3.9,2.55,8.22,5,12.45,4.62,2.79-.28,5.17-1.79,7.81-2.57a16.91,16.91,0,0,1,14.1,2.7c6.17,4.28,9.71,11.76,14.35,17.94,12.72,16.94,33.3,23.63,52.3,27.81a17.28,17.28,0,0,1,6.46,2.36c4.27,3,7.05,9.9,11.79,9.66,4.4-.22,5.25-6.4,5-11.21-.25-5.39-.48-10.78-.73-16.17-.19-4.24-.46-8.78-2.76-12.54-2.47-4.06-6.73-6.34-10.42-9.12-6.6-5-11.85-11.95-18.5-16.82-9.66-7.08-22-9-31.81-4.94-4.13,1.7-8.36,4.43-12.92,2.87-5.17-1.77-7.95-8-10.48-13.26A102,102,0,0,0,223.69,527c-2.89-3.53-6.13-6.93-10.05-8.84s-8.63-2.05-11.53.68c-3.16,3-4.74,9.2-9.22,8.3-2.17-.43-3.87-2.54-5.18-4.58-3-4.66-5-11.69-1.09-14.48,2.4-1.72,5.9-.8,8.77-1.62,4.71-1.31,6.88-7.21,6.15-12.67s-3.65-10.54-6.58-15.36c-1.09-1.8-2.29-3.68-4-4.72-2.28-1.38-4.95-1-7.18-.11-4.92,1.88-8.86,5.58-13.26,8.45s-9.76,5-15.15,3.27c-4.9-2.51,5.81-7.19,10.06-8.91s8.9-3.24,11.65-7.05,2.32-10.89-2.09-13.48c-3.62-2.13-7.6-.22-11.5-.23-4.73,0-9.7-3.23-12.21-7.91s-2.41-10.57.24-14.43c.92-1.34,2.14-2.51,2.55-4.17.58-2.4-.84-5.27-2.93-6.8a9,9,0,0,0-7-1.4c-5.25,1-9,5.65-10.66,11A37.14,37.14,0,0,0,132.28,444Z" transform="translate(-71.45 -84.31)"/><path class="cls-3" d="M368.67,577.4c-.75.29-1.52.59-2.27.9a39.79,39.79,0,0,1-7.15,2.48A37,37,0,0,1,339.32,579c-5.73-2.36-10.22-8.47-14.7-12.85-3.36-3.29-7.27-5.79-10.78-8.88s-6.74-7.07-7.64-11.65c-1-4.83.79-9.38,2.5-13.58s3.43-8.37,5.14-12.55c3.48-8.53,14.2,0,19.48-6.64,1.22-1.56,2.45-3.11,3.68-4.67a3.17,3.17,0,0,1,1.11-1,3.13,3.13,0,0,1,1.56-.12l8.44.64a13.13,13.13,0,0,1,6.43,1.65c3.61,2.38,4.23,4.83,3.7,8.34s-1.28,6.42,2.26,8.84c1.89,1.29,4.11,2,5.7,3.71a9.81,9.81,0,0,1,2.28,5.38c.21,1.66.22,3.51,1.31,4.81a9.27,9.27,0,0,0,1.63,1.36c9.53,7.27,1,15.13,3.43,23.3.5,1.71,1.73,3.29,1.73,5a4.91,4.91,0,0,1-1.22,3C373.6,575.36,371.18,576.42,368.67,577.4Z" transform="translate(-71.45 -84.31)"/><path class="cls-3" d="M171.88,422.14a5.56,5.56,0,0,0-.25,1.43,11.37,11.37,0,0,0,1.17,4.85c3.86,9.11,11.32,15.83,17,23.64,7.78,10.61,15.12,10,25.24,7.68,3.19-.74,9.21-1.09,12.24,1.65,4.63,4.2-1.72,7.24-5.77,6.92-1.59-.12-3.21-.66-4.76-.49-7.42.78-2.91,18.64-.33,23.34,0,0,7.53,13.73,7.95,14.52,5.93,10.81,14.64,20.44,23.77,28.29a31.91,31.91,0,0,0,7.11,4.95c9.18,4.2,27.58,2,34.85-3.36a25.81,25.81,0,0,0,8.6-12.54c1.75-5.1,2.74-11.26,7.16-13.78,1.91-1.09,4.24-1.31,6.15-2.41,6.5-3.75-1.68-11.06-4.92-15a53.57,53.57,0,0,1-11.41-25.13,42.63,42.63,0,0,1-.3-13.92c.78-4.45,3.59-7.73,4.37-12.13,1.81-10.25-14.44-13.76-20.76-15.3-15.53-3.77-31.13-7.52-46.74-10.29-11.85-2.1-24.11-5.27-35.77-3.79C189.52,412.17,174.3,414.06,171.88,422.14Z" transform="translate(-71.45 -84.31)"/><path class="cls-1" d="M426.64,588c-9.57,2.62-13.77-7-19.1-15.1-7.2-10.92-17.76-17.8-21.79-30.24-1.64-5.12-4.5-11.53-8.42-15s-4.66-5.85-7.56-10.87c-2.6-4.5-1.15-15.44-3.75-19.95-4.51-7.81-7.92-16.09.39-16.05s10.54,18,11.56,21.35l9.56,16.71c7.55,13.17,12.56,23.81,26.93,29.78a7.81,7.81,0,0,0,3.82.85,8,8,0,0,0,3.27-1.51,41.13,41.13,0,0,1,15.3-5.82c2.75-.46,5.84-.45,8.43-1.42,3.32-1.24,3.68-3.43,6.36-5.47,2.9-2.21,6.3-3.06,9.92-3.64,7-1.13,15.75-.46,20.48-6.57,5.23-6.78,2-17.73,2.39-27,.3-7.69,3.22-14.58,6.11-21.28,3.73-8.62,5.87-17.51-.34-26.91-7.5-11.35-21.65-15.44-30-26.13-2.16-2.77-3.94-6-6.66-8.06-1.63-1.24-3.51-2-5.19-3.16-7.15-4.89-5.09-13.31-10.25-19.23a34.52,34.52,0,0,0-9.35-7.16c-1-.54-2.12-1.37-2-2.47a2.17,2.17,0,0,1,.45-1c1.54-2.21,4.5-5.4,7.18-6.13,4.24-1.19,8.94-.24,13.32,1.14,11,3.48,22.35-.68,33.21,3.44a7.11,7.11,0,0,1,2.41,1.35,9.9,9.9,0,0,1,1.81,2.55c6.63,12,10.33,22.39,10.91,35.83a67.77,67.77,0,0,0,.6,9.63,35.58,35.58,0,0,0,3,8.67c6.75,14.23,17.71,25.89,24.71,40,2.55,5.12,6.14,13,6,18.62-.13,4.34-3,7.89-4.43,11.64a136.31,136.31,0,0,1-7.66,16.62,29.78,29.78,0,0,1-3.8,5.72,37.48,37.48,0,0,1-5.7,4.73c-11.55,8.59-20.92,19.57-32.89,27.75a184.15,184.15,0,0,1-48.68,23.69C427,587.85,426.81,587.9,426.64,588Z" transform="translate(-71.45 -84.31)"/><path class="cls-2" d="M452.22,513.43a29.13,29.13,0,0,1-4.59,5q-7.17,6.21-14.33,12.45a7.16,7.16,0,0,1-2.27,1.51,8.19,8.19,0,0,1-3.53.09c-4.4-.51-9.11-1.31-12.77-4.64-7.26-6.62-14-16.41-20.07-24.19-5.66-7.25-12.65-17-12.57-26a41.12,41.12,0,0,1,1-10.7c1.27-4.6,4.12-8.38,7.22-11.76,4.12-4.5,8.25-1.06,13.85-.29A9.4,9.4,0,0,1,407,456c3.6,2.44,5.3,14.41,6.76,18.24,1.72,4.53,5.2,14.66,11.15,15.11a12.65,12.65,0,0,0,4.28-.71,37.54,37.54,0,0,1,9.16-1.23,16.08,16.08,0,0,1,6.18.89c5.22,2,6.69,7.8,8.33,12.47C454.65,505.82,455,509.49,452.22,513.43Z" transform="translate(-71.45 -84.31)"/><path class="cls-1" d="M470,479.83l-9.28,2.9c-3.33,1-7.45-.92-10.87-1.78a39,39,0,0,0-13.44-1.19,9.38,9.38,0,0,1-3.58-.05c-4.05-1.18-5.7-7-7.52-10.49a117.78,117.78,0,0,1-5.83-13.05A28.71,28.71,0,0,0,410.93,444c-6.18-5.24-12.27-10.27-20.05-7.67a16.88,16.88,0,0,0-3,1.44,145.83,145.83,0,0,0-14.25,9.25,6.13,6.13,0,0,1-3.32,1.53,5.48,5.48,0,0,1-4.25-2.64c-3-4.28-3.12-12-7.89-14.88l-6.12-3.67s-5.78-7.61-6-7.86c-3.48-4.58,4.83-15.84,3.93-21.24-.48-2.86-2.16-5.59-2.2-8.42-.12-8.38,8.53-5,13.36-4.29a31.77,31.77,0,0,1,7.8,2.05c5.59,2.32,10.79,6.15,16.63,7.46a26,26,0,0,0,5.53.52,48,48,0,0,0,16.1-2.71c4.28-1.52,8.78-3.66,13.38-2,11.61,4.25,12.65,22.33,22.08,29.4,1.39,1,3,1.76,4.35,2.84a33.44,33.44,0,0,1,4.81,5.31c9.61,11.8,28,16.24,31.26,32.84a11.89,11.89,0,0,1,.07,5.62c-.62,2.06-2.21,3.46-3.73,4.79C476.3,474.44,473.12,477.12,470,479.83Z" transform="translate(-71.45 -84.31)"/><path class="cls-1" d="M353.77,329.92c-2.09,2-5.65.7-8.66.47-14.33-1.07-15.18,28.56-4.41,35.47,5.42,3.47,13.65,1.48,19.28,1.74a124.81,124.81,0,0,1,23.11,3.28c7.41,1.75,10.52,7.75,18.14,8.38,7.91.65,15.27-2.36,21.48-6.58,6-4.05,11.24-9.79,18.49-10.92,6.54-1,13.4,2,20.1,3.84a62.63,62.63,0,0,0,19.21,2.28c2.48-.1,5-.4,7-1.86,2.38-1.78,3.39-5,4.23-8.06,4.7-17.2,7.64-34.32,6.92-52.87-.63-16.06-1.82-32.85,7.51-45.37,2.46-3.28,5.51-6.1,7.12-10,1.81-4.35,1.6-9.53,1.45-14.5a448.43,448.43,0,0,1,2.07-59c1.52-15,9-35.83-11-42.72-6.52-2.24-13.26-2.17-19.91-2.4s-13.55-.89-19.7-4.34c-13.58-7.62-9.48-26.28-23.36-33.87-9.93-5.42-20.47.76-29.16,6.25-16.94,10.69-33.13,15-53.45,4.75-9.7-4.92-18.75-11.53-28.41-16.61-5-2.63-11.43-4.68-15-.9-2.27,2.4-2.46,6.43-1.71,10,2.75,13.33,19.55,12.87,30.77,20.17,8.37,5.44,12.39,20.42,20.76,25.86,5.63,3.66,19.91,12.45,18.07,21-.71,3.3-3.91,4.89-6.74,6.22-6.75,3.18-54.23,31.93-32.65,40.77a22.47,22.47,0,0,0,5.67,1.23,15.89,15.89,0,0,0,4.66.12,14.28,14.28,0,0,0,4.29-1.78c3.21-1.74,6.42-3.5,9.63-5.25,3.83-2.09,6.34-4.39,10.38-7.9,2.68-3.69,21.64-15,24.14-5.4.13,6.9-11.13,10.91-15.81,15.07-6.29,5.6-16.28,7.53-19,16-1.93,6,.67,13,3.23,19.3,4.54,11.18,9.79,20.47,15.77,30.91,3.64,6.21,14.07,17,11.63,24.48a11.92,11.92,0,0,1-4.54,5.73c-6.32,4.76-14.35,6.46-21.8,9.12s-14.95,6.87-18,14.58a9.48,9.48,0,0,1-1.63,3.18A.26.26,0,0,0,353.77,329.92Z" transform="translate(-71.45 -84.31)"/><path class="cls-2" d="M339.75,175.08a22.13,22.13,0,0,1-4.69.23c-12.62-.37-22.24-9.44-25.95-23.22-2.45-9.12-1.45-27.3,9.32-28.28,3.07-.28,6.27.83,9.32,2A43.47,43.47,0,0,1,339.52,132c6.91,5.53,12.59,20.09,11.2,28.59a22.82,22.82,0,0,1-3.64,8.51c-1.32,2.05-2.81,4.09-4.93,5.15A9,9,0,0,1,339.75,175.08Z" transform="translate(-71.45 -84.31)"/><path class="cls-1" d="M213.26,141.09a11.55,11.55,0,0,0,.26,5.11c1.3,4.58,5.57,7.93,9.81,9.24s8.59,1,12.85.85c13.86-.5,28.88,1.18,41.07,10.33a12.44,12.44,0,0,1,4.41,5.08c1.25,3.19,0,6.53-1.52,9.19a36.23,36.23,0,0,1-16.35,15c-3.29,1.5-7.47,3.81-6.41,7.81.74,2.79,3.68,4.27,6.09,5.68,12.67,7.39,19.58,25.59,14.64,38.6-1.76,4.62-10.24,15.39-5.37,20.49,4.25,4.43,19.77,0,25.19,1.09,7.72,1.6,14.82,7.42,19.54,14.62s7.25,15.64,8.45,24c.5,3.47,1.57,7.95,4.78,8.74a6.09,6.09,0,0,0,3.75-.65,186.93,186.93,0,0,0,39.31-22.11c2.34-1.73,4.83-3.83,5.07-7,.28-3.53-2.25-6.88-4.44-9.89A98.68,98.68,0,0,1,360,248.85c-2.11-6.66-3.7-13.9-8.45-19-5.35-5.78-13.23-7.24-19.57-11.62-8.42-5.84-10.29-15.12-11.25-24.52-1.25-12.33-3.7-9.46-11.83-17.19-12.27-11.65-18.92-30.95-14.22-46.27,1.87-6.12,5.22-11.47,6.76-17.73s.76-14.2-4.21-19c-12.5-11.92-30.84,4-40.4,9.93a292.76,292.76,0,0,0-25,17.4C224.87,126.2,214.86,131.33,213.26,141.09Z" transform="translate(-71.45 -84.31)"/><path class="cls-4" d="M243.46,461.19l0-.05c-.74-.86-1.81-2.12-3.08-3.69-2.56-3.15-6-7.56-9.36-12.6a111.82,111.82,0,0,1-9.32-16.34c-2.54-5.66-4.16-11.2-4.16-16.05a26,26,0,0,1,51.93,0c0,4.85-1.63,10.39-4.16,16.05A111.82,111.82,0,0,1,256,444.85c-3.4,5-6.8,9.45-9.36,12.6-1.28,1.57-2.34,2.83-3.08,3.69Zm-11.31-48.73a11.31,11.31,0,1,0,11.31-11.3A11.31,11.31,0,0,0,232.15,412.46Z" transform="translate(-71.45 -84.31)"/><path d="M214.35,314.86a15.81,15.81,0,0,1,1.05-1.47.08.08,0,0,0-.06-.13,3.72,3.72,0,0,0-2,.92Z" transform="translate(-71.45 -84.31)"/><path d="M216,313.79a2.43,2.43,0,0,0-.93.3v0a3.77,3.77,0,0,1,.47.44l.51-.67C216.06,313.84,216,313.78,216,313.79Z" transform="translate(-71.45 -84.31)"/><path d="M219,318.14c-.6-1.2-2.11-1.81-2.94-2.82a4.14,4.14,0,0,0-.55-.63,5.14,5.14,0,0,0-6.61.6A39.89,39.89,0,0,0,206,319h.86l-1,.22a7.85,7.85,0,0,1-1.58,1.52l1.08.06a4,4,0,0,1-1.62.28l-.37.19c-2.45,1.12-5.47.38-7.68-.9a9.9,9.9,0,0,0-2.39-1.09c-2.55-.65-5.86,1.41-6.26,4a5.23,5.23,0,0,0,.07,2,19.67,19.67,0,0,1-.41,4.58c-.16.64-.69,1.16-.82,1.77a8.37,8.37,0,0,0,.14,1.5c0,1.27-.87,3.05-1.17,4.28-.29.44-.47.86,0,1.22a4.34,4.34,0,0,1-.23,1.38c-.05.27-.07.45.19.61a1.63,1.63,0,0,0,.65.19c.5.05,1.47.18,1.46-.53a2.36,2.36,0,0,0-.46-1.34c-.15-.21-.27-.28-.27-.55a5.31,5.31,0,0,1,.09-.79c.09-.82.24-1.65.41-2.45a11.78,11.78,0,0,1,1.08-2.72,11.91,11.91,0,0,1,1.07-1.68c-.07-.81-.32-1.64-.5-2.65a7,7,0,0,1,.88,2.13l0,0c0,.2.07.42.09.62s0,.64,0,1a4.2,4.2,0,0,1-.22,1c-.39,1.06-.66,1.49-.1,2.57.74,1.39.62,3,.77,4.53,0,.22.16.43.38.42s-.13,1.22.14,1.45a2.23,2.23,0,0,0,1.51.3c1.31-.3.12-1.85-.37-2.34a2.25,2.25,0,0,1-.93-1.63,17.4,17.4,0,0,1,0-1.91,15.58,15.58,0,0,1,0-1.67,3.68,3.68,0,0,1,.84-1.74l.18-.28a10.06,10.06,0,0,0,1.5-1.17,9,9,0,0,0,1.15-2.3h0c.06-.18.12-.36.17-.53h0c.19-.55.49-1.46.75-2.45a25.77,25.77,0,0,1-.37,2.62c.25.1.49.2.73.32a21.32,21.32,0,0,0,3.77,1.79,7.79,7.79,0,0,0,3.84-.1,17.29,17.29,0,0,0,3.24-1.06l.62-.23c0,.2,0,.4,0,.59-.07.66-.52,1.25-.56,1.88a6.89,6.89,0,0,0,.35,1.46c.15,1.26-.43,3.14-.57,4.41-.22.48-.34.92.15,1.21a4.12,4.12,0,0,1,0,1.4c0,.27,0,.45.27.58a1.53,1.53,0,0,0,.67.08c.5,0,1.32.06,1.21-.64a1.89,1.89,0,0,0-.48-1.18,1.21,1.21,0,0,1-.35-.67,7,7,0,0,1,0-.79c0-.83,0-1.67.06-2.49a11.92,11.92,0,0,1,.7-2.84,15.63,15.63,0,0,1,1.16-2.45,17,17,0,0,1-1.92-.87h0l-.05,0,0,0,0,0,0,0,0,0,0,0,0,0,0,0-.05,0h0l-.05,0h0l-.17-.12a1.14,1.14,0,0,1-.19-.19,2.34,2.34,0,0,0-1.09-.78l.5.13a6.23,6.23,0,0,1,.72.43,7.85,7.85,0,0,0,4.66,1.5c1.46-.09,2.19.76,2.22,2.17,0,.82-.66,1.71-.51,2.47.07.3.28.7-.19.83h0l-.07,0a3.7,3.7,0,0,1-.91.05c-.53.29-1.13,1.87-.45,2.15,1,.44,2.38-.84,2.76-1.69.55-1.24.13-2.65.37-3.94.18-1,.56-2.45-.52-3.1-.72-.43-1.49-.75-2.2-1.2.28-.83,0-1.72.29-2.68.15-.56.57-1.07.72-1.65a13,13,0,0,0,.39-3.17,4.26,4.26,0,0,1,.06-1.35,1.43,1.43,0,0,1-.33-.84,2.09,2.09,0,0,0,.42.67h0a2.18,2.18,0,0,0,.56.33c1,.39,1.36-.1,2.1-.12a3.33,3.33,0,0,0,.54.07c1.15.3,1.4.2,1.4.2S219.12,318.42,219,318.14Z" transform="translate(-71.45 -84.31)"/><path d="M189.35,321a2.48,2.48,0,0,0-1.3-1.27,10.87,10.87,0,0,0-1.89-.89,4.5,4.5,0,0,0-4.8,1.48c-1.21,1.45-1.5,3.34-2.31,5a6,6,0,0,1-2.36,2.69,6.46,6.46,0,0,1-2.64.78.4.4,0,0,0,.22.41,6.72,6.72,0,0,0,5,.6,9.54,9.54,0,0,0,2.43-2,7.8,7.8,0,0,1-1.42,1.89,3.92,3.92,0,0,0,2.53-1.29,6,6,0,0,0,1.67-2.54c.44-1.5-.32-3.93,1.06-5a2,2,0,0,1,2.68.17.34.34,0,0,0,.25.13s0,0,0,.06C188.67,321.75,189.53,321.52,189.35,321Z" transform="translate(-71.45 -84.31)"/><path d="M306.37,233.16Z" transform="translate(-71.45 -84.31)"/><path d="M338.08,250.06a.66.66,0,0,0-.06-.2c-.15-.39-.55-.69-.77-1a10.48,10.48,0,0,1-1.15-3.25,13,13,0,0,0-3.15,1l0,.06c.15.33.27.6.32.67.56.9,1.39,1.57,1.93,2.45a5.11,5.11,0,0,1,.35,3.1c0,.5-.14,1-.14,1.53s.17,1.08.13,1.65a7,7,0,0,1-.31,1.56c-.09.29-.19.58-.3.86-.05.13-.32.53-.26.66.14.33,1.58.14,1.82,0,.54-.33.08-1.5.17-2,0-.23.09-.46.13-.69.14-.79,0-1.61.14-2.43a12.2,12.2,0,0,1,.48-2.09C337.63,251.39,338.15,250.63,338.08,250.06Z" transform="translate(-71.45 -84.31)"/><path d="M343.59,246.76a1.82,1.82,0,0,1-.89-1.28c-.18-.6-.25-1.22-.41-1.81a4.12,4.12,0,0,0-1-1.82,40,40,0,0,0-3.32-2.5c-.16-.24-.33-.48-.5-.7-.92-1.21-2.32-1.53-3.06-2.88-1.3-2.35-3.75-5.59-6.62-6s-3.71,2.81-5.2,4.5c-1.24,1.41-3.64,1.4-4.71,2.92a4.23,4.23,0,0,1-.62.88c-.58.5-1.37-.27-1.82-.63a4.61,4.61,0,0,1-1.16-1.47c-.35-.67-.64-1.38-1-2.06a9.6,9.6,0,0,0-.73-1.24c-.14-.2-.29-.39-.44-.58s-.26-.38-.45-.43l-.65-.16a1.87,1.87,0,0,0,.64,0,2,2,0,0,0,1.28-.65c.12-.21,0-.36-.29-.48a5.66,5.66,0,0,0-3.18-.32,3.25,3.25,0,0,0-1.49.63,3,3,0,0,1-1.67.71c-.7.15-2.27.55-2.45,1.36a.92.92,0,0,0,.38,1,.76.76,0,0,0,.76.63c.44,0,.88-.15,1.32-.22h.21a3.38,3.38,0,0,1,.67.5c.79.68,2,1.24,2.91.57a17.23,17.23,0,0,0,1.59,4.39,9.14,9.14,0,0,0,1,1.48,5.16,5.16,0,0,0,1.07,1.12,6.86,6.86,0,0,0,2.84,1.07,6.63,6.63,0,0,0,2.13.12l.43.4.32.29a26.41,26.41,0,0,0,.47,3.65,27.5,27.5,0,0,1,.55,3.62c0,.09,0,.17,0,.26s0,.29,0,.44v.25a.35.35,0,0,0,.08.27c0,.18.07.37.1.54a15,15,0,0,1,.12,3,6.42,6.42,0,0,1-.15,1.58c-.12.44-.49.84-.54,1.3s2,.52,2.22.15a1.65,1.65,0,0,0,.06-1.12,6.74,6.74,0,0,1-.17-2.15,23.48,23.48,0,0,1,.27-2.35,2.89,2.89,0,0,1,0-.29,1.05,1.05,0,0,1,0-.13v0a.77.77,0,0,0,0-.15c0-.1,0-.21,0-.31v-.15c0-.07,0-.15-.05-.22a4.12,4.12,0,0,0-.13-.47,7.42,7.42,0,0,1-.3-1.32,5.11,5.11,0,0,1,.05-1.46,9.31,9.31,0,0,1,.3-1.37,7,7,0,0,0-.46-.95c-.41-.57-1.12-1.5-1.12-1.5a2.86,2.86,0,0,1,1.28,1.37c.14.33.27.66.38.94h0l.33.88h0a18.24,18.24,0,0,1,.67,2.25c.12.55-.14,1,0,1.61s.61,1.13.81,1.74a7.72,7.72,0,0,1,.17,1.68,8.84,8.84,0,0,1,0,2.12,5.11,5.11,0,0,1-.55,1.37c-.24.51-.23.76.39.78,0,0-.06,0-.08,0a2.29,2.29,0,0,0,.73.09c.69,0,.83-.64.84-1.23a.5.5,0,0,0,0-.12,3.87,3.87,0,0,0,0-.9,14.9,14.9,0,0,1,0-1.89c.08-1.19.63-2.23.25-3.45a10,10,0,0,1-.23-3.9c0-.43.09-.86.13-1.29v0c0-.43.07-.86.08-1.3h0c0-.72.06-1.34.06-1.34.12.63.27,1.07.28,1.34h.21a4.74,4.74,0,0,1,1.24.27,8.92,8.92,0,0,0,2.41.67,10.09,10.09,0,0,0,4-1.08,5.91,5.91,0,0,1,1.75-.43,17.52,17.52,0,0,1,1.36,2.37c.62.9,1.56,1.57,2.16,2.45a4.65,4.65,0,0,1,.4,3.1c0,.5-.15,1-.15,1.52a15.3,15.3,0,0,1,.14,1.65,6.47,6.47,0,0,1-.34,1.57c-.09.24-.82,1.5-.54,1.62a.33.33,0,0,0,.17,0c.55,0,1.87.16,2-.5s-.16-1.1,0-1.63c0-.24.09-.46.14-.69.16-.79,0-1.62.16-2.43a9.88,9.88,0,0,1,.54-2.09c.2-.53.77-1.29.69-1.86a1.17,1.17,0,0,0-.05-.2c-.17-.39-.63-.69-.87-1a10.49,10.49,0,0,1-1.39-3.67,19.3,19.3,0,0,0-.94-3.26c-.16-.37-.35-.74-.55-1.12l.28.21a12.61,12.61,0,0,1,1.08.85,3.14,3.14,0,0,1,.62.75l.21.3a12.2,12.2,0,0,1,.8,1.72l.17.43.08.18a0,0,0,0,0,0,0c.11.27.24.54.38.81a4.82,4.82,0,0,0,.41.69s0,0,0,0l.1.11.12.11.13.08.08,0h.06a.47.47,0,0,0,.11-.13A.47.47,0,0,0,343.59,246.76Z" transform="translate(-71.45 -84.31)"/><path d="M527.59,501.64c-.23-.55-.93-.71-1.38-1.19-.21-.21-.26-1.44-.45-1.87a8.67,8.67,0,0,0-6.36-4.7c-3.72-.64-5-1.16-8.76-.77,0,0-1.42.16-2.37.39a8,8,0,0,1,1.8-.87l-.22-.26a4.37,4.37,0,0,0-2.47-1.25,15.5,15.5,0,0,0-4.14-.19,5.51,5.51,0,0,0-1.15.06c-.54.15-.67.55,0,.69a5.21,5.21,0,0,1,2.66,1.47,1.26,1.26,0,0,1,.42.79c0,.42-.36.51-.7.64a19.37,19.37,0,0,0-5.05,2.86,16.88,16.88,0,0,0-6,15.08,12.46,12.46,0,0,0,.76,2.61,11.17,11.17,0,0,1-1-1.44,11.75,11.75,0,0,0-2.54,1.56,8.51,8.51,0,0,0-1.9,2.87c-.12.31-.1,1.6.36,1.7.31.07,1.38-1.09,1.72-1.28h0a5.56,5.56,0,0,1,4.58-.56c.63.24,1.13.93,1.72.53,1.52-1-.7-3.87-1.47-4.55-.35-.31,1-2.3,1.2-2.62a16.32,16.32,0,0,1,2.25-2.85,18.84,18.84,0,0,1,11.17-5.39,7.08,7.08,0,0,1,.72-1.66,8.35,8.35,0,0,0-.18,1.61l0,.12a8.09,8.09,0,0,0,.11,2.67c1.17,1.2,3.7-2.18,3.73-3.25,0-.38,2.68-.6,3-.62a43.89,43.89,0,0,1,9.3.65,1,1,0,0,0,.57,0C527.81,502.43,527.71,501.92,527.59,501.64Z" transform="translate(-71.45 -84.31)"/><path d="M118,235.17a12.37,12.37,0,0,1-5.48,4.9,2.07,2.07,0,0,0-.87,1.39c0,.86.31,1.68.33,2.53s-.52,1.74-.21,2.65a1.42,1.42,0,0,0,1.59,1,1.28,1.28,0,0,0,1-.69c.2-.63-.64-.75-.81-1.24-.5-1.46.49-3.37,1.18-4.55.85-1.45,2.72-2.25,3.78-3.47a15.4,15.4,0,0,0,1.93-3A1.6,1.6,0,0,0,118,235.17Z" transform="translate(-71.45 -84.31)"/><path d="M141.5,215.8s-.58.88-.48,1.09a5,5,0,0,0,1,.34,5.54,5.54,0,0,1,.59-1.29,1.54,1.54,0,0,0,.13-1c-.23-.62-.48.22-.72.45a2.79,2.79,0,0,1-.47.36Z" transform="translate(-71.45 -84.31)"/><path d="M130.26,238.91c0-.07,0-.15.06-.23A10.79,10.79,0,0,1,130,237c-.42,0-1.17,0-1.81-.11l.06.51a2.29,2.29,0,0,1,0,1.13c-.1.31-.18.66-.31,1-.29.66,0,1.21-.06,1.88a20,20,0,0,1-.34,2.15c-.09.62-.15,1.25-.19,1.88a2.21,2.21,0,0,0,.14,1.4.9.9,0,0,0,.57.34,3,3,0,0,0,1.26,0,.34.34,0,0,0,.12-.06h0a.55.55,0,0,0,.51-.6c0-.35-.4-.65-.63-.86s-.49-.39-.52-.75a5.55,5.55,0,0,1,.29-1.39C129.52,241.94,129.89,240.43,130.26,238.91Z" transform="translate(-71.45 -84.31)"/><path d="M147.7,221.39a.44.44,0,0,0-.12-.17,3.9,3.9,0,0,0-1-.45,9.2,9.2,0,0,1-2-1.08c.06.05.14-.67.11-.77-.24-.84-2.26-1.47-3-1.61l-1-.25a8.53,8.53,0,0,1,.69-1.47,1.87,1.87,0,0,0,.16-1.23c-.22-.62-.53.07-.71.32-.48.66-1.26,1-1.79,1.56a5,5,0,0,0-.62.83,9.42,9.42,0,0,0-2,1.18,17.32,17.32,0,0,0-2.68,2.05,28.35,28.35,0,0,1-2.55,2.7,4.55,4.55,0,0,1-2.52,1,5.82,5.82,0,0,0-2.94.52,12.45,12.45,0,0,1-6.36,1.73,10.59,10.59,0,0,0-7.33,3.25,3,3,0,0,0-1.26-.22.63.63,0,0,0-.61.61.61.61,0,0,0,.61.6,2,2,0,0,1,.84.14.64.64,0,0,0,0,.2,14.86,14.86,0,0,1-1.26,5.91,9.22,9.22,0,0,1-1.69,2.61c-.62.64-2,1.09-2.2,2s0,1.71-.08,2.55-.86,1.64-.68,2.58a1.54,1.54,0,0,0,1.54,1.22,1.48,1.48,0,0,0,1.17-.54c.32-.58-.56-.83-.66-1.34-.29-1.52,1.1-3.26,2-4.32,1.14-1.29,3.29-1.78,4.63-2.83,1.74-1.36,2.82-3.07,4.27-4.65.37-.39,3.53,1.18,4,1.33a20.12,20.12,0,0,0,4.57,1.2,11.73,11.73,0,0,0,2.84,0,7.43,7.43,0,0,1,.41-2s-.07,1-.05,2c0,.48.1.95.17,1.42a2.16,2.16,0,0,1,0,1.15,8.94,8.94,0,0,1-.37,1c-.33.67,0,1.23-.06,1.91a20.09,20.09,0,0,1-.4,2.19c-.1.64-.18,1.28-.23,1.92,0,.44-.15,1.06.16,1.43a1.14,1.14,0,0,0,.67.34,3.79,3.79,0,0,0,1.46-.05l.14,0h0a.59.59,0,0,0,.59-.61c0-.37-.46-.67-.73-.89s-.56-.39-.59-.76a4.69,4.69,0,0,1,.34-1.41l1.28-4.64a15.63,15.63,0,0,1,.81-2.42c.43-.93,1-1.83,1.34-2.79.06-.18.11-.36.17-.55,1.24-1.8,1.27-3.95,2-6a17.15,17.15,0,0,1,.72-1.71,7.19,7.19,0,0,1,1.53-2.05c.87-.75,1.61-.56,2.67-.37a11.72,11.72,0,0,0,2.44.22,2,2,0,0,0,.58-.09.79.79,0,0,0,.37-.25c.08-.12,0-.35.12-.45s.4-.08.53-.11c.76-.16,1.33-.35,1.53-1.15A.81.81,0,0,0,147.7,221.39Z" transform="translate(-71.45 -84.31)"/><path d="M216.38,536.59a11.78,11.78,0,0,1,.92-3.3c1-1.91,1.69-3.78,1.13-5.91a16.62,16.62,0,0,1-.69-2.93.75.75,0,0,0-1.38-.38,15.3,15.3,0,0,0-1.63,5.53c0,.31-.51,3.89-.71,5A7.59,7.59,0,0,1,216.38,536.59Z" transform="translate(-71.45 -84.31)"/><path d="M218.1,540c0-.11-.09-.21-.13-.31a12.48,12.48,0,0,0-.82-1.53L217,538c-.15-.2-.38-.44-.52-.65a12.93,12.93,0,0,0-2.58-2.39h0a11,11,0,0,1-2-3.52,25.53,25.53,0,0,0-2.05-4.7,7.84,7.84,0,0,0-2-2.12.75.75,0,0,0-1.09.45,5.17,5.17,0,0,0,0,2.59c.12.86-.1,1.82,0,2.72a3.85,3.85,0,0,0,1.3,2.43c.61.56,1.31,1,1.9,1.57.37.36.74.73,1.08,1.12-.08-.1-.2,0-.33.15a3.7,3.7,0,0,0-.79.74,3.44,3.44,0,0,0-.58.88,5.85,5.85,0,0,0-.59,2.2c-.68.17-1.53-.53-2.07-.83a19.53,19.53,0,0,0-6-2.31,10.23,10.23,0,0,0-6.38.8c-3.74,1.92-4.52,6-4.7,9.84-.83.13-.82-1.36-.74-2.24a4.47,4.47,0,0,0-2.69,4.9,3.33,3.33,0,0,0,.56,1.17A2.66,2.66,0,0,0,188,553a1.74,1.74,0,0,0,1.14.18.49.49,0,0,0,.11.14,1.27,1.27,0,0,0,1,.39,1.62,1.62,0,0,0,1.28-.57,1.66,1.66,0,0,0,1.28,1.53,10,10,0,0,0,3.49.4c1.59,0,5.48.36,6.36-1.29a1.47,1.47,0,0,0,.17-.81c-.23-1.15-3.07-.09-3.07-.09,2.06-1.5,3.6-.6,3.6,0,.4,0,.79-.09,1.18-.15-.4-1,0-3.33,1.26-3.59a4.28,4.28,0,0,0-.85,3.54h0s.13.91.21,1a2.18,2.18,0,0,0,1.26.8,17.53,17.53,0,0,0,4.77.75,3.94,3.94,0,0,0,2-.27.91.91,0,0,0,.1-1.51,5.07,5.07,0,0,0-1.38-.73l-1.27-.49-.08,0-.3-.17a21.39,21.39,0,0,0,2.32-1.77c.31-.3.6-.62.88-.94a9.19,9.19,0,0,0,2.14-3.75.42.42,0,0,1,.36-.59,2.58,2.58,0,0,0,.39,0,4.18,4.18,0,0,0,.71,0,1.91,1.91,0,0,0,.88-.19C219.51,543.92,218.63,541.28,218.1,540Z" transform="translate(-71.45 -84.31)"/><path d="M213.47,551.1a7.94,7.94,0,0,0-.89-.38,4.72,4.72,0,0,1-1.92,1.25,13,13,0,0,0,1.38.44,4,4,0,0,1,1.62.71.74.74,0,0,0,1.16-.9A2.71,2.71,0,0,0,213.47,551.1Z" transform="translate(-71.45 -84.31)"/><path d="M284.34,495.65h0Z" transform="translate(-71.45 -84.31)"/><path d="M289.88,491.1c-.08-.57-.28-1.15-.37-1.67l-.11.05a4.93,4.93,0,0,0-.2.82,2.3,2.3,0,0,1-.56.84,2.16,2.16,0,0,1-1.67.44,1.8,1.8,0,0,0-.05-.19c-.6-2.11-2.93-3.14-3.43-5.24a11,11,0,0,1-1.55-.34,4.41,4.41,0,0,0,1.49,0h0a6.54,6.54,0,0,0,.89-.06,3.61,3.61,0,0,0,2.07-.87.48.48,0,0,0-.38-.38c-.42-.07-.85-.11-1.26-.2a5.86,5.86,0,0,1-1.05-.41,6,6,0,0,0-2-.5,6.71,6.71,0,0,0-.78,0,.7.7,0,0,0,0-.14,2,2,0,0,0-.08-.29c-.34-.86-2-1.17-2.82-1.54-2-.94-4-2.71-6.31-1.81a22.32,22.32,0,0,1-5.2,1.71,32.73,32.73,0,0,1-5.14-.06,16.38,16.38,0,0,0,1.12,1.44c-.88-.15-2.1-1.68-2.1-1.68-.63-.43-1.13-1.07-1.8-1.45a6.51,6.51,0,0,0-3-.83c-2.61-.07-4.19,1.9-6.61,2.35a7.57,7.57,0,0,0-1.73.55,8.84,8.84,0,0,0-2.76,2.11c-.43.46-.81,1-1.24,1.44a8.12,8.12,0,0,0-2,2.81c-.27.88-.2,2.71,1.22,2.2l.21-.08a6,6,0,0,0,.74,2.16,21.33,21.33,0,0,0,1.84,2.49,2.42,2.42,0,0,1,.53,1.09,8.93,8.93,0,0,1,0,1.79,9.3,9.3,0,0,0-.07,1.49,2,2,0,0,0,.67,1.3,8.12,8.12,0,0,1,.94.82l.08.13s0,.08,0,.12l0,.11a.74.74,0,0,0,0,.14c-.14.64.31,1,.88,1.08a14.67,14.67,0,0,0,2.48.12h.06a15.56,15.56,0,0,0,1.8.13,2.28,2.28,0,0,0,1.26-.2c1.12-.71-.1-2.1-.77-2.63-.23-.18-.51-.34-.74-.52a1.92,1.92,0,0,1-.4-.41,2.71,2.71,0,0,1-.44-1.21,9.75,9.75,0,0,1-.1-1.48h0c0-.33-.05-.7-.07-1.12a5.65,5.65,0,0,0,2.2-1.71h0l-1.46,2-.13,1a37.84,37.84,0,0,0,4.82,1.26,29,29,0,0,0,10.27.29c.13,0,1.89-.43,2.59-.64l.12,0c.61-.23.31-.7.52-1.35.43,1.5-.21,4.21-.58,5.58a1,1,0,0,0,.24.5,1.51,1.51,0,0,0,.89.39A21.53,21.53,0,0,0,274,503c.72,0,1.93.16,2.21-.73a1.51,1.51,0,0,0-.23-1.22,3.85,3.85,0,0,0-.79-.74l-.16-.15-.05-.06L275,500v0h0l0-.12a1.84,1.84,0,0,1,0-.33,4.64,4.64,0,0,1,.16-1.39c.16-.58.36-1.15.5-1.73s.27-1.21.41-1.81c0,0,0-.09,0-.14a12.76,12.76,0,0,0,1.4-1.35,3.35,3.35,0,0,1-.51-2.32,3.51,3.51,0,0,0,1.89,3,3.38,3.38,0,0,0,.8.24,13.58,13.58,0,0,0,2.21,0v.08c0,.85.78,1.52,1.46,1.87a5.88,5.88,0,0,0,1.86.44l0-.05h0a3.18,3.18,0,0,0,2.34-1.5,1.31,1.31,0,0,0,.29-1A2.8,2.8,0,0,0,289.88,491.1Z" transform="translate(-71.45 -84.31)"/><path d="M269.9,498.18a4.3,4.3,0,0,1-1.49.28c0,.26,0,.53-.05.79a5.39,5.39,0,0,1-.27,1,1.06,1.06,0,0,0,.19,1,1.31,1.31,0,0,0,.8.36l.56.07A34.87,34.87,0,0,0,269.9,498.18Z" transform="translate(-71.45 -84.31)"/><path d="M404.61,411.56a1.9,1.9,0,0,1,0-.25l0-.12,0-.12a2.1,2.1,0,0,1,.06-.24,2.17,2.17,0,0,0,.07-.24.61.61,0,0,1,.05-.12s0-.07,0-.11l.05-.12a.47.47,0,0,0,.05-.1.54.54,0,0,0,.05-.11l0,0v0h0c0-.08.08-.13.11-.2a.48.48,0,0,0,.08-.18s0-.05,0-.06h0v0h-.08l-.17.06a2.26,2.26,0,0,0-.35.17l-.18.09,0,0-.06,0-.1,0a1.79,1.79,0,0,1-.71.08,2.27,2.27,0,0,1-.53-.1l-.14-.05v.19a.78.78,0,0,0-.24.73c.14.85-.6,1.72-1.06,2.35-.21.29-.45.58-.63.89a.87.87,0,0,0,.16,1.09c.42.33,1.47-.75,1.73-1a9,9,0,0,0,1.66-2v0C404.59,411.86,404.59,411.71,404.61,411.56Z" transform="translate(-71.45 -84.31)"/><path d="M435.66,425.27a3.3,3.3,0,0,0-.24-1,1.56,1.56,0,0,0-1.25-1.06,7.71,7.71,0,0,1-.61,1.35,3,3,0,0,1-1.64,1.33c-.15,0-.42-.16-.53-.1s-.23.5-.29.64c-.22.48-.45,1-.72,1.43-.4.67-1,1.69-1.83,1.87a19.76,19.76,0,0,0,1.88-3.41,10,10,0,0,0,.59-2.05.86.86,0,0,1-.14-.13,8.19,8.19,0,0,0-3.2-2,11,11,0,0,0-3.93-.84c-1.55,0-3.1,0-4.64.11H419c-.41,0-.8,0-1.16.07,3.8-1.19,5.79-.42,5.79-.42a1.76,1.76,0,0,0-1.07-1.17,9.48,9.48,0,0,0-4.76-.26,14.35,14.35,0,0,0-4.28,1.36,16.49,16.49,0,0,0-3.77,3.05l-.57.56.21-.54c.06-.16,0,0,0,0l.1-.22c.08-.18.16-.34.25-.51.64-1.21,1.53-2.25,2.28-3.38,1.61-2.44,2.81-5.3,2.3-8.26a8.26,8.26,0,0,0-4.86-6.1,4.8,4.8,0,0,0-6.46,3.8l.2.08a3.48,3.48,0,0,0,.46.11,1.83,1.83,0,0,0,.6,0l.08,0,0,0h0l.17-.09a2.85,2.85,0,0,1,.39-.17.7.7,0,0,1,.23-.06.3.3,0,0,1,.18,0h0l0,0h0l0,0,0,0,0,0v0a.08.08,0,0,1,0,0s0,0,0,0a.61.61,0,0,1,0,.15,1,1,0,0,1-.11.23l-.12.2a2,2,0,0,0-.11.2.53.53,0,0,0-.06.1s0,.07,0,.11,0,.07-.05.1a.49.49,0,0,0,0,.11,2,2,0,0,0-.08.22l-.06.23,0,.11,0,.12c0,.08,0,.15,0,.23a1.24,1.24,0,0,0,0,.27,5.59,5.59,0,0,0,2.59-.9,6.25,6.25,0,0,0,1.16-.95c.24-.26.75-.81.75-1.2h0c.22.2.48.38.7.59v0a6,6,0,0,1,1.47,3,6.87,6.87,0,0,1-1,4.48,24.47,24.47,0,0,1-2.08,3.18,13.81,13.81,0,0,0-2.72,7.48,9.39,9.39,0,0,0,.73,4.63c1.19,2.38,4.41,4.08,6.88,5,2.72,1,5.44.59,8.23.24,4.7-.58,10.47-2.34,13.08-6.62A8.48,8.48,0,0,0,435.66,425.27Z" transform="translate(-71.45 -84.31)"/><path d="M416.48,144.45s0-2.79-.65-3.6a1,1,0,0,1-.61.84,19.82,19.82,0,0,0,.12-2.77,4.78,4.78,0,0,0-.29-1.11,2.37,2.37,0,0,1-.2-.47l-.61,1c.38-1.67-1.21-4.36-1.21-4.36l-.33,1.35c.3-1.21-.83-2.61-1.52-3.49s-1.85-2.2-3-1.53a5.05,5.05,0,0,1,1.24,2.49c.31,1.44-.19,2.59-.54,3.94a22.42,22.42,0,0,0-.59,8.74,10.22,10.22,0,0,0,2.89,5.15,12.57,12.57,0,0,1,2.05,3.12l.74.21s.14-.23-.18-1a16.87,16.87,0,0,1-1.32-3.15C412.35,147.24,415.61,145.2,416.48,144.45Z" transform="translate(-71.45 -84.31)"/><path d="M429.86,144.67c1.14-2,3.76-5.76,2.15-8.09a6.88,6.88,0,0,1-1.48,3.19l-.23.26a13.45,13.45,0,0,0,.83-4,12.1,12.1,0,0,0-.31-3.44,12.37,12.37,0,0,0-.45-1.58c-.05-.13-.57-.91-.57-1a13.06,13.06,0,0,1-1.31,4.81,21.48,21.48,0,0,0-1.58,3c2.35-10.3-.81-12.25-.81-12.25a.54.54,0,0,0-.07.29,49.56,49.56,0,0,1-.39,5.16,3.06,3.06,0,0,0-1-1.09,6.27,6.27,0,0,1,0,1.5,11.31,11.31,0,0,1-.49,2.94,21.1,21.1,0,0,1-3.42,7.23,14.35,14.35,0,0,1-3.46,2.88c-2,1.38-4.56,3.19-4.08,6a9.88,9.88,0,0,0,1.18,2.31,1.92,1.92,0,0,1,.19,1.22c-.18.79-1.26.31-1.7.1-.94-.45-1.86-.92-2.83-1.32a12.42,12.42,0,0,0-1.87-.62,7.08,7.08,0,0,0-1.86-.34c-.37,0-1.24.1-1.15.59h0a2,2,0,0,0-1.35,1.17c.58,0,1.09-.29,1.6.05a3.71,3.71,0,0,1,.8,1.11,5.2,5.2,0,0,0,1.56,1.64,16.3,16.3,0,0,0,4.6,1.69,27.84,27.84,0,0,1,5.33,1.94,23.32,23.32,0,0,1,4,3.21,4.74,4.74,0,0,1,.74-.68c-.24-.31-.47-.61-.38-.56a4,4,0,0,0,.69.34c.07,0,.44-.29.51-.34a3.18,3.18,0,0,1,1-.41c.18,0,1.06-.25,1.19-.11a6.94,6.94,0,0,0-1-.84,6.79,6.79,0,0,1,2.06.85h.1l2.86,0h.09c-.73-1.47-3.48-2.5-4.93-2.94a10.86,10.86,0,0,0-3.49-.52,3.72,3.72,0,0,0,1.91-1l1.06-.79-.58-.83,1.11.42.23-.19q.72-.6,1.38-1.26l-.95-.39,1.42-.12a15.06,15.06,0,0,0,1.3-1.68l.95-1.43-1.31-.3,1.81-.51a13.74,13.74,0,0,0,1.71-3.78c0-.18.07-.7.2-.82a29.82,29.82,0,0,1-2.74,1.38C429,146.08,429.45,145.38,429.86,144.67Z" transform="translate(-71.45 -84.31)"/><path d="M424.49,326.14a6.32,6.32,0,0,0-.67-1.23,3.6,3.6,0,0,0-.31-1.54,4,4,0,0,0-.44-.78v0l.23.17a.35.35,0,0,0,.58-.15,3.86,3.86,0,0,0-.16-2,1.6,1.6,0,0,0-.1-.31c.21.14.5-.06.52-.31a5.33,5.33,0,0,0-1.72-4,5.31,5.31,0,0,1,1.67-.5.59.59,0,0,0-.3-.28.66.66,0,0,0-.32,0c-.5.07-1,.16-1.47.25a.35.35,0,0,0-.31-.5,12.38,12.38,0,0,1-1.85-.58A8.31,8.31,0,0,0,418,314a30.43,30.43,0,0,0-3.65.68c-.27,0-.48.42-.24.6l-.39,0a5.33,5.33,0,0,0-1.94-.09.36.36,0,0,0-.21.21,3.87,3.87,0,0,1,1.57.6,3.17,3.17,0,0,0-.34.39,5.76,5.76,0,0,0-1.11,4.93.35.35,0,0,0,.52.19c-.09.17-.17.36-.24.52a4.29,4.29,0,0,0-.32,1.8,7.16,7.16,0,0,0-2.91,2.38c-2.05,2.64-3,5.92-4.84,8.71a11.7,11.7,0,0,1-1.83,2.25,10.07,10.07,0,0,1-2.19,1.46.72.72,0,0,0-.33.95l.24.08c.8.22,1.63.28,2.45.42l.29.05c.49,0,1,.1,1.46.15l.57.05a3.17,3.17,0,0,0,1.16-.26,29.17,29.17,0,0,0,1.35-3.47,34.86,34.86,0,0,1-.7,3.52,11.2,11.2,0,0,0,4.92-2.06c.47-1.95.53-2.35.53-2.35l0,2.15a11.81,11.81,0,0,0,2.09-1.86,9.46,9.46,0,0,1-3.54,3,11.6,11.6,0,0,1-4.68,1.57c-.41,0-.82,0-1.23,0a13.21,13.21,0,0,1-2.59,3.39.35.35,0,0,0,0,.49,1.73,1.73,0,0,0,1.34.46,2.34,2.34,0,0,0,.62-.24,3.54,3.54,0,0,0,.71-.75,5.9,5.9,0,0,1-.39.76,3.13,3.13,0,0,1,.32.15,1.49,1.49,0,0,0,1.34.14,3.17,3.17,0,0,1,.36-.13h0a3.45,3.45,0,0,0,.71-.76,5.82,5.82,0,0,1-.36.71,3.39,3.39,0,0,0,.55,0c.84-.12,1.17-.87,1.47-1.58.08-.18.15-.36.22-.54a4.48,4.48,0,0,1-1.32-.14,45.41,45.41,0,0,0,7-1.22l.05,0,.05,0h0l.5-.14.05,0H415l-.12.06a4.11,4.11,0,0,1-.56.27c.09.31.19.63.26.95.11.56.05,1.08-.49,1.34a7.51,7.51,0,0,0-1,.47,1.14,1.14,0,0,0-.45,1.12.38.38,0,0,0,.13.26c-.4-.34,2.13-.88,2.19-.89.81-.06,2-.29,2.55.52.15.23.22.5.38.71s.87.44.88-.08a2.92,2.92,0,0,0,0-.51c.19.22.38.54.55.59a.33.33,0,0,0,.44-.32,1.72,1.72,0,0,0-1-1.57c-.6-.26-1.27-.25-1.88-.47a1.52,1.52,0,0,1-.66-.45c.43-.12.83-.21.85-.21.66,0,1.66-.24,2.09.43.12.18.18.4.31.58s.71.36.72-.06a2.86,2.86,0,0,0,0-.42c.15.18.32.44.45.48a.27.27,0,0,0,.36-.26,1.4,1.4,0,0,0-.84-1.29c-.49-.21-1-.2-1.53-.38-.76-.27-.93-1.05-1-1.84.46-.27.92-.55,1.36-.85a5.52,5.52,0,0,0,1.48-1.49c.09-.27.23-.74.46-1.56a4.78,4.78,0,0,1,0,1.21.75.75,0,0,0,.64-.23,5,5,0,0,0,1.19-1.87h0a8.29,8.29,0,0,0,.61-1.91,3.91,3.91,0,0,1-.26,2.08.64.64,0,0,0,.67-.23,7.72,7.72,0,0,0,1.48-4.56A10.08,10.08,0,0,0,424.49,326.14ZM416.34,342l-.57.23a8.64,8.64,0,0,1-.25-1.38,4.83,4.83,0,0,0,1.11-.37c0,.14.08.27.11.42C416.83,341.38,416.78,341.81,416.34,342Z" transform="translate(-71.45 -84.31)"/><path d="M480.08,239.83l0,0a.12.12,0,0,0-.05.05h0Z" transform="translate(-71.45 -84.31)"/><path d="M489.45,233.76s0,0,0,0,0,0,0,0-.2-.32-.29-.48-.09-.19-.13-.28,0,0,0-.05l0,0c-.07-.2-.14-.4-.19-.6a24.13,24.13,0,0,1-.5-2.39,17,17,0,0,0-.77-2.7c-.12-.33-.25-.66-.36-1a12.24,12.24,0,0,1-.49,1.13,5.86,5.86,0,0,1-1,1.54c-.72.77-1,1-1.14,2.05,0,.15,0,.3,0,.45a6.36,6.36,0,0,0,.85.62c.24.15.5.28.75.42l.13.09c.18.27.36.55.55.81l.42.55a.72.72,0,0,1,0,.07c.06.08.1.15.15.23s.25.46.37.69a1.5,1.5,0,0,0,0,.2,14,14,0,0,1-.51,3.07c0,.11-.05.21-.08.31s-.08.19-.07.18a1.62,1.62,0,0,0-.1.18v0h0l-.14.13a.53.53,0,0,1-.11.09l-.2.11-.22.08a1,1,0,0,0-.67,1.23,1,1,0,0,0,1.18.7,3.23,3.23,0,0,0,2.22-2.24,16.1,16.1,0,0,0,.63-3.39l.09-.08a1.06,1.06,0,0,0,0-1.42A1.65,1.65,0,0,1,489.45,233.76Z" transform="translate(-71.45 -84.31)"/><path d="M500.69,232.32a2.36,2.36,0,0,0,1.08.22,3.23,3.23,0,0,1-.61-.88s.15-.21.4,0c-.05-1-1.86-1.22-2.59-1.26-.29,0-.85-.5-1.16-.61a8.58,8.58,0,0,0-1.35-.33c-.95-.16-1.91-.2-2.85-.36a5.37,5.37,0,0,1-2.56-1,7.79,7.79,0,0,1-1.75-2.55c-.31-.56-.6-1.14-.9-1.71a16.5,16.5,0,0,0-1.53-2.12l0,0a3.26,3.26,0,0,0-1.5-1.32,14.07,14.07,0,0,0-1.59-.68l-.33-.17a6.32,6.32,0,0,0-2.82-.51,21.71,21.71,0,0,0-2.78.32c-.6.09-.82.13-1.38.19s-1.37.1-2.06.12l-.63,0-.14,0c-.7-.07-1.39-.12-2.09-.17l-.19,0-.12,0-.36-.09c-.32-.09-.63-.21-.93-.32l-.46-.17a22.14,22.14,0,0,0-3,.45,6.33,6.33,0,0,1,2.95-.72.38.38,0,0,0-.09-.24,6.79,6.79,0,0,0-.94-.77c-.79-.68-2-1-2.53-1.91,0,0,0,0,0,0-.66-.71-1.14-1.55-1.87-2.21a7.43,7.43,0,0,0-4.87-1.86l.83.57-1.3-.58a1.05,1.05,0,0,1-.35-.08c-.31-.08-.77-.23-.86-.24a1.16,1.16,0,0,0-1,.39l1.35.63-1.48-.42a13.38,13.38,0,0,0-2.1,0c-.26,0-1.52.46-1.55.89a2.56,2.56,0,0,1,1.77,2.18,2.22,2.22,0,0,0-1.68,1.33.63.63,0,0,0,0,.36l-1.25,1.15a2.42,2.42,0,0,0-.53.62,1.39,1.39,0,0,0,.41,1.61,1.59,1.59,0,0,0,.21.15.93.93,0,0,0,.31.66,1.18,1.18,0,0,0,1.09.29c.22-.08.41-.24.63-.33a3.08,3.08,0,0,1,.8-.1c-.05.16-.1.32-.14.47a7.81,7.81,0,0,0-.15,3.5,7.44,7.44,0,0,0,1.62,3c.14.17.3.33.45.48l.75.89.26.28a11.06,11.06,0,0,1,1.21,3.45,3.69,3.69,0,0,0,.86-.9.13.13,0,0,1,0,.06c0,.08,0,.16,0,.25.09.44.16.89.24,1.31a30.56,30.56,0,0,1,.83,4.22c0,.47.06,1.5-.36,1.85-.23.19-.68.14-1,.33s-1,1-.44,1.34c.19.63.87.68,1.44.58a3.15,3.15,0,0,0,1.69-.73,3.2,3.2,0,0,0,.75-2c.08-.9,0-1.8.09-2.7a29.85,29.85,0,0,1,.52-3.66,7.56,7.56,0,0,0-1.55-1.28,2.39,2.39,0,0,1,1.77,1h0a1.88,1.88,0,0,0,.16.23c.1.14.2.28.3.44s.13.19.18.28a13.76,13.76,0,0,1,.91,2,4.67,4.67,0,0,1-.59,4.7c-.63.05-1.45.41-1.59,1a.31.31,0,0,0-.05.17c0,1,1.58.85,2.2.78a4.59,4.59,0,0,0,1.41-.32c.79-.37,1.32-1.78,1.54-2.57a6,6,0,0,0,.12-2.58,24.93,24.93,0,0,0-.54-2.44,13.62,13.62,0,0,1-.3-1.65,6.66,6.66,0,0,1-.14-2.69,11.39,11.39,0,0,0,.78,2.72,14.29,14.29,0,0,0,4.42-.29,16.83,16.83,0,0,0,3.51-1.47l1.58-.81.78-.38.37-.17.2-.09,0,0,0,0,.53-.2c-.49-.67-1.14-1.76-.89-2.46a4.57,4.57,0,0,0,1.48,2.26h0c.29.45.6.89.84,1.36a9.23,9.23,0,0,1,.75,1.74c.1.32.18.64.25,1,0,.15.06.31.08.46a1,1,0,0,1,0,.15,2.29,2.29,0,0,1,0,.25,6.31,6.31,0,0,1,0,1.15,5.73,5.73,0,0,1-.15.95c-.08.39-.15.79-.24,1.18a10.49,10.49,0,0,1-.31,1.08,9.78,9.78,0,0,1-.65,1.39l-.17.28,0,0-.12.13h0l0,0,0,0h0l-.26,0a1,1,0,0,0-.69,1.13,1,1,0,0,0,.94.9,1.58,1.58,0,0,0,.66-.1c1.14-.2,2.37-.6,2.63-2a15.68,15.68,0,0,0,.28-2.26c0-.09,0-.18,0-.27v0c0-.11,0-.21.07-.32a1.4,1.4,0,0,1,.09-.17.64.64,0,0,0,.08-.14.59.59,0,0,0,.24-.27,1.81,1.81,0,0,0,.18-.68,3,3,0,0,0-.16-1s0,0,0-.06v-.05c0-.09,0-.18,0-.27s0-.34,0-.5c0-.41,0-.81,0-1.22,0-1.29-.12-2.57.78-3.61a8.73,8.73,0,0,0,2.24-4.29,9.38,9.38,0,0,0,.12-1.05c.83,1.28,1.37,2.77,2.28,4a5.71,5.71,0,0,0,1.86,1.56,8.15,8.15,0,0,0,3.1.82c.55.06,1.1,0,1.65.07a5,5,0,0,1,1.43.4,1.7,1.7,0,0,1,.82.52c.26.33.35.76.67,1.06a3.59,3.59,0,0,0,.33.25,3,3,0,0,0,2,.39,2.5,2.5,0,0,1-.68-.42Zm-17,4.53a.69.69,0,0,1,.17-.15C483.82,236.75,483.61,237,483.69,236.85Z" transform="translate(-71.45 -84.31)"/><path d="M325.05,391.64h0Z" transform="translate(-71.45 -84.31)"/><path d="M325.29,391.89h0l0,0h0Z" transform="translate(-71.45 -84.31)"/><path d="M286.54,393.37h0Z" transform="translate(-71.45 -84.31)"/><path d="M316.55,401.62c-2.64-1.7-3.8-4.29-4.17-4.52a2.52,2.52,0,0,0-.5-.24,2.74,2.74,0,0,1,.33,1.41c0,1.08,0,2.19,0,3.27s.41,2.65-.32,3.74a2.1,2.1,0,0,1-.46.52v.06a1,1,0,0,0-.17,1.15,1.86,1.86,0,0,0,1.8.6c.65,0,1.31-.1,2-.16s1.22,0,1.43-.61c.14-.46-.05-.72-.15-1.13a5.05,5.05,0,0,1,0-1.4,9,9,0,0,1,0-1.27C316.37,402.57,316.46,402.09,316.55,401.62Z" transform="translate(-71.45 -84.31)"/><path d="M321.69,390.59c-.62-1.53-1.16-3-1.89-4.49a.27.27,0,0,0,0-.12,15.18,15.18,0,0,1-.7-1.54l-.21-.49a8.63,8.63,0,0,0-1.06-1.78,8.81,8.81,0,0,0-3-2.64,7.44,7.44,0,0,0-4.08-.66c-.21,0-.43.05-.64.09a11,11,0,0,0-1.37.34A13.64,13.64,0,0,0,307,380c-.54.13-1.09.28-1.64.39a17.63,17.63,0,0,1-1.92.22,13.76,13.76,0,0,1-2,0l-.69-.07a4.13,4.13,0,0,1-.57,2.26,7.59,7.59,0,0,0,.12-2.3c0-.16,0-.31,0-.46-.1-.79-.82-1.22-1.5-1.48-.85-.31-1.6-.86-2.47-1.12-2.37-.71-5.22.24-7.63.4a4.21,4.21,0,0,0-2.41.89c-1.32,1.08-1.59,2.55-2,4.06-.07.24-.14.48-.2.72l-.21.4c-.07.14-.16.28-.24.42l-.08.12a2.53,2.53,0,0,0-.18.27,3.34,3.34,0,0,0-.34,1.73c0,.34.06.68.1,1l-.09.44q-.62,3.11-.95,6.26c-.22,2.2-.8,4.49,0,6.64.66,1.83,2.81,5.08,5.27,4.78a1.31,1.31,0,0,0,1.21-1.34,1,1,0,0,0-.25-.62v-.06a.59.59,0,0,0-.65-.51.61.61,0,0,0-.57.62l0,.3a5,5,0,0,1-1.22-.48,5.44,5.44,0,0,1-1.39-1.4c-1.7-2.4-1-5.82.12-8.36.51-1.16,1.44-1.42,2.45-2.13s1.58-1.89,2.56-2.48c.35,1.08.33,2.39.58,3.52a1.53,1.53,0,0,0,.21.6.56.56,0,0,0,.89.13q.38-.46.78-.9l.14-.17a18.83,18.83,0,0,1,2.68-2.24,17.15,17.15,0,0,0,2.51-2.31c.44-.5.89-.91,1.29-1.37a4.33,4.33,0,0,1-1.44,2.11c-1.87,1.46-3.25,2.61-4.24,3.44h0l-.15.13h0l-.31.27-.18.15-.1.08,0,0-.09.08,0,0-.23.19a29.72,29.72,0,0,1-.53,4.61,24.79,24.79,0,0,1-.73,2.85,6.27,6.27,0,0,0-.6,2.72c0,.26.1.52.11.78,0,1.06-.67,2-1.06,2.89a.3.3,0,0,0,.12.34,5.3,5.3,0,0,0,2.64.77,3.15,3.15,0,0,0,.75,0c.24-.06.46-.15.7-.22s.64-.1.8-.38a1.1,1.1,0,0,0,.08-.54,7.91,7.91,0,0,0-.06-.85,6.79,6.79,0,0,1,1.35-4.65c.73-1,1.27-1.57,1.09-2.88a3.47,3.47,0,0,1,.13-1.6,8,8,0,0,0-1.39-2.17,2.89,2.89,0,0,1,1.58,2.82.06.06,0,0,0,0,0c0,.5,0,1,0,1.51.07,1.76.52,3.46.63,5.21,0,.41,0,.83,0,1.24l0,.08a8.82,8.82,0,0,0-1.58,2.69,1.19,1.19,0,0,0,0,.62c.21.75,1.47.57,2.06.58a8.65,8.65,0,0,0,3.17-.21,1.14,1.14,0,0,0,.43-1.53c-.11-.28-.38-.51-.45-.78a4.92,4.92,0,0,1,.14-1.36,37,37,0,0,1,.5-4.47c0-.11.05-.21.08-.31l.34-.6a4.27,4.27,0,0,0,.54-1.66c0-.29,0-.59,0-.88a1.39,1.39,0,0,0-.13-.46v-.16a5.62,5.62,0,0,1,.29-1l.59-1.75a4.53,4.53,0,0,0,.1,2c.39.15.78.31,1.18.42a11.65,11.65,0,0,0,4.08.21c.67-.06,1.36-.12,2-.2.32,0,.63-.1.93-.12h0a1.66,1.66,0,0,1,.69.1.87.87,0,0,1,.38.25,7.7,7.7,0,0,1,.91,1.29c.41.52.82,1,1.24,1.55s1,1.18,1.53,1.76l.37.39a.86.86,0,0,1,.14.13l0,0a4.54,4.54,0,0,1,.87,1.09,4.16,4.16,0,0,1,.17,1.32,2.67,2.67,0,0,1-.1,1.59c-.29.45-.73.66-.92,1.22a1.09,1.09,0,0,0,.16,1.09c.47.5,1.44.36,2.05.33a9.5,9.5,0,0,0,2.13-.21,1.11,1.11,0,0,0,.89-.75,1.48,1.48,0,0,0,0-.6,1.14,1.14,0,0,0-.3-.7c0-.37,0-.75-.06-1.11s-.06-1-.08-1.45c0-.23,0-.46,0-.69a2.47,2.47,0,0,1,.05-.61c0-.18.13-.35.18-.53a.89.89,0,0,0,0-.56,6.11,6.11,0,0,0-.27-.58c-.09-.17-.15-.34-.23-.51-.32-.78-.78-1.79-1.07-2.59a7.66,7.66,0,0,1-.29-2.7c0-1,.07-1.93.12-2.89s.18-1.84.19-2.76a10,10,0,0,0,1.65,3,2.61,2.61,0,0,0,.84.64c.35.15.91.27,1.14-.08A4.93,4.93,0,0,1,321.69,390.59Z" transform="translate(-71.45 -84.31)"/><path d="M362.34,546.75c0-.13,0-.26,0-.39-.43-3.76-2.91-6.26-6.38-7.45-2.25-.76-4.62-1.07-6.85-1.85a11.79,11.79,0,0,1-1.36-.58c-1.77-.71-2.48-2-2-2.75a1.78,1.78,0,0,0,.11,1,2.85,2.85,0,0,0,1.17,1,1.75,1.75,0,0,0,1,0,2.62,2.62,0,0,0,1-.39,2.05,2.05,0,0,0,.55-2.45c-1.17-2.44-4.46-1.16-5.45.69a5.89,5.89,0,0,0-.49,3.77,8.89,8.89,0,0,0,2.64,5.1c1.08,1,2.47,1.45,3.65,2.35a11.94,11.94,0,0,1,3.22,3.57,7.36,7.36,0,0,1,.4,6.79l-.13.27c0-.08.08-.16.11-.25a6.85,6.85,0,0,0,.33-4.41,8.89,8.89,0,0,0-1.78-3.5,7.4,7.4,0,0,0-4.79-2.74c-2.15-.25-4.54.55-6.39-.57a10,10,0,0,1-2.23-2.36,5.15,5.15,0,0,0-1.12-1,8.2,8.2,0,0,1-1.74-1.15c-.35-.41-.47-1.62-1.21-1.42a2.2,2.2,0,0,1,.18-.28,5.92,5.92,0,0,1,.68-.82.17.17,0,0,0,0-.28l-.5.34.38-.85A.25.25,0,0,0,335,536l-.46.63.13-.87a.15.15,0,0,0-.22.11c-.11.52-.3,1-.43,1.53a9.4,9.4,0,0,0-.21,1.75,4.58,4.58,0,0,0,0,.64,9.38,9.38,0,0,0-1.46.82,4.52,4.52,0,0,0-1.58,2.45,9.47,9.47,0,0,0-.25,3.56,1.15,1.15,0,0,0,.47.67,1.22,1.22,0,0,0,.78.28,16.83,16.83,0,0,0,2.13,0s.48-.11,1.15-.34a1.89,1.89,0,0,0,.05.23l-.61.37c.48.46.69,1.38,0,1.44-1.16.1-2.2-.82-3.38-.31a1.33,1.33,0,0,0-.77.7.52.52,0,0,0,.34.64,1.86,1.86,0,0,0,.7.14l.33,0c.23,0,.47,0,.71,0a3.17,3.17,0,0,1,.86.39c.78.49,1.47,1.08,2.21,1.62a11,11,0,0,0,2.34,1.43,4.11,4.11,0,0,0,.46.15c1.22,0,2.87-3.17,2.87-3.17a7.13,7.13,0,0,1-1.28,2.48,6.25,6.25,0,0,1,3.2-.36,5,5,0,0,0-3.92,1.71,7.29,7.29,0,0,0,0,2,7.62,7.62,0,0,0,.29,1.34,5.64,5.64,0,0,0,.71,1.38,4,4,0,0,0,.5.59c.07.07.4.31.34.33a5.39,5.39,0,0,0-1.22.7.81.81,0,0,0,.14.5c.27.38.82.39,1.3.37,2.78-.09,5.58.1,8.35.18a3.31,3.31,0,0,0,1.33-.15,1.14,1.14,0,0,0,.69-.82c1.55-2.11,3.75-3.38,5.88-4.79A10.38,10.38,0,0,0,362.34,546.75Z" transform="translate(-71.45 -84.31)"/><path d="M238.73,263.65h0Z" transform="translate(-71.45 -84.31)"/><path d="M239.72,246.13c.09-2.1-2.26-3.59-3.9-4.45-3.3-1.71-6.61-1.24-10.13-.76a13.09,13.09,0,0,1-3,.11c-1.07-.12-1.94-.62-3-.34a9,9,0,0,1-2.21.46,1,1,0,0,1-.6-.55,16,16,0,0,1-2-8c.43,0,1.23.57,1.55.54.9-.06,2.5-.85,2.33-1.94-1.28-.22-2.73.35-4,.23l-.45-.08h0a1.82,1.82,0,0,1,.15-.34c.1-.19.22-.38.33-.57s.26-.41.4-.61a2.9,2.9,0,0,1,.68-.57c.28-.16.6-.27.89-.41a4.24,4.24,0,0,0,2.49-2.47,4.06,4.06,0,0,0-.09-2.53c-.08-.25-.47-.1-.38.16a2.79,2.79,0,0,1,0,1.22q0,.3-.12.6a2.46,2.46,0,0,1-.07.29,1.89,1.89,0,0,0-.09.21h0a1.51,1.51,0,0,1-.18-.26,6,6,0,0,1-.34-.67.2.2,0,0,0-.38.15c.08.27.17.53.24.81a1.55,1.55,0,0,1,0,.8c-.2.57-.82.8-1.31,1a5.41,5.41,0,0,0-1.32.9,3.07,3.07,0,0,0-.41.48l-.07.08c-.2.27-.37.56-.58.83a3.9,3.9,0,0,0-.36.54l-.13-.13a1.13,1.13,0,0,0,.23-.34,2.25,2.25,0,0,0,.11-.89.21.21,0,0,0-.41,0,1.23,1.23,0,0,1-.27.69,1.2,1.2,0,0,1-.26.24,2.14,2.14,0,0,0-.48-.05c-.56,0-1.1-.26-1.66-.23h-.18a.56.56,0,0,1-.07-.18,2.27,2.27,0,0,1-.07-.82s0-.07,0-.1a.21.21,0,0,0-.41-.07.77.77,0,0,0,0,.15,3.94,3.94,0,0,0,0,.6v0c-.11-.32-.19-.65-.31-1l0-.09a3.33,3.33,0,0,0-.26-.58,5.2,5.2,0,0,0-1-1.25c-.39-.39-.92-.79-.93-1.39a1.45,1.45,0,0,1,.27-.75c.14-.24.31-.47.47-.71a.21.21,0,0,0-.32-.26c-.17.19-.34.38-.52.55a1.24,1.24,0,0,1-.26.19h0a.91.91,0,0,0,0-.23c0-.1,0-.2,0-.3s0-.4.06-.61a2.79,2.79,0,0,1,.41-1.15c.15-.23-.17-.48-.32-.27a4,4,0,0,0-.83,2.39,4.26,4.26,0,0,0,1.64,3.1,9.4,9.4,0,0,1,.74.66,2.51,2.51,0,0,1,.47.74c.08.22.14.46.2.69s.11.43.15.65c0,0,0,.1,0,.16a3.37,3.37,0,0,1-1.7,0c-.92-.32-1.67-1.11-2.54-1.39a.42.42,0,0,0-.05.42,3.36,3.36,0,0,0,2.07,2.39c.6.18,1.1-.54,1.34,0a8.1,8.1,0,0,0-.06,1,2.5,2.5,0,0,0,0,1,2.71,2.71,0,0,0,.51.61s0,0,.06.05a5.1,5.1,0,0,1,.41,2.45l0,.49c0,.65-.25,1.85.71,1.9a1.54,1.54,0,0,0,1.14-.05.71.71,0,0,0,.15-.15c0,.66-.1,1.32-.08,1.94a14.93,14.93,0,0,0,.63,3.63,5.88,5.88,0,0,0,1.3,2.39c.5.52,1.08.79,1.58,1.35a10.16,10.16,0,0,1,1.27,1.27,23.8,23.8,0,0,1-2.68,1.54c-1.05.63-.68,2-.5,3s0,2.09.18,3.13a1.91,1.91,0,0,0,1.18,1.63,5.61,5.61,0,0,0,1.9.4c-.08-.71,0-1.4-.68-1.8a3.56,3.56,0,0,1-.89-.05c-.36-.16-.21-.84-.2-1.14.05-.63-.11-1.26-.11-1.89,0-.34,0-.84,0-1.18s.16-.48.6-.64a19.19,19.19,0,0,1,2.09-.61c.72-.18,1.42-.44,2.15-.58a2.16,2.16,0,0,0-.77-1.07s.67.09,1,1.27a1.26,1.26,0,0,1,.07.25,5.78,5.78,0,0,1,.13,1.06c.17,1.93.2,5.11.2,5.54,0,.6-.13,2-.06,3.22,0,.2,0,.39,0,.59a17.91,17.91,0,0,0,.24,2.31,1.87,1.87,0,0,0,1.41-.16,14.48,14.48,0,0,1-.56-2c.11-.89.15-1.79.34-2.67a5.93,5.93,0,0,0,0-1.52,12.74,12.74,0,0,1,.64-3.18c.14-.67.41-1.34.56-2a13.56,13.56,0,0,1,.1-1.54,15.84,15.84,0,0,0-.19-2,3.49,3.49,0,0,0,.86,1.47c.15,0,.3.13.4.17a5.41,5.41,0,0,0,.79.21,6.82,6.82,0,0,0,1.63.12,13.64,13.64,0,0,0,1.68-.16l1-.16a1.91,1.91,0,0,1,.48,0l0,0a8.68,8.68,0,0,1-.88-1.7s.35.64.49.85c2.19,3.3,2.27,3.24,5.66,5.48,2,1.31,1.92,3.9,2.1,6.2a12.59,12.59,0,0,0,.41,2.36,4.67,4.67,0,0,0,1.47-.3c-.19-.52-.35-1-.54-1.55a0,0,0,0,1,0,0,3.12,3.12,0,0,1-.11-1.77,10.5,10.5,0,0,0,.06-2,25.41,25.41,0,0,1,0-3.49l-.73-.9c.07.07-.49-.76-.7-1.27a4,4,0,0,1-.22-1.58,2.23,2.23,0,0,1,.12-.89c.24-.58.89-1,1.2-1.61a5.27,5.27,0,0,0,.62-2.09,1.77,1.77,0,0,0,.72.51C240,247.2,239.68,246.77,239.72,246.13Z" transform="translate(-71.45 -84.31)"/><path d="M230.33,252.5a14.59,14.59,0,0,0,.55,4c-1.14,4-1.62,5.5-1.42,7.18,1.17.19,1.3,0,1.3,0l-.12-1.52s.57-4.75,2.31-5a3.08,3.08,0,0,1,.16-2.27A9,9,0,0,1,230.33,252.5Z" transform="translate(-71.45 -84.31)"/></svg>