<svg id="圖層_1" data-name="圖層 1" xmlns="http://www.w3.org/2000/svg" viewBox="0 0 458.87 546.03"><defs><style>.cls-1{fill:#3d3d3d;}.cls-2,.cls-4{fill:#20bdef;}.cls-2{fill-opacity:0.3;}.cls-3{fill:#1b7754;stroke-miterlimit:10;}.cls-3,.cls-5{stroke:#fff;stroke-width:3px;}.cls-5{fill:#f9b112;}</style></defs><path class="cls-1" d="M146.62,400.25a4.9,4.9,0,0,1-1.24,1.06,11.36,11.36,0,0,1-3.94,1,23.89,23.89,0,0,0-10.77,4.78c-1.76,1.39-3.41,3.08-5.59,3.69-8.34,2.31-8.77-11.83-10.49-16.94-2.72-8.08-5.43-16.19-9-24.05-7.41-16.46-16.85-32-24.51-48.31q-4.35-9.28-7.91-18.86c-5.09-13.73,2-29,7.66-39.62q8.74-16.27,17.63-32.45c2.9-5.28,5.86-10.6,9.92-14.85,5.93-6.18,13.76-9.63,21.11-13.61,11.4-6.16,21.92-12.67,28.91-24.43,2.75-4.62,4.88-9.72,7.9-14.14,4.22-6.15,10-10.79,16.37-14.44,3.78-2.18,14.67-7.89,18.93-2,1.34,1.84.88,4.28,1.28,6.47.57,3,2.76,5.54,4.84,7.83a10,10,0,0,0,1.71,1.61,8.36,8.36,0,0,0,2.45,1c7.11,2,13.58,4.25,20.65,4.11,4.06-.09,8.12-.34,12.2-.24,4.66.11,17.63-2,21.28,2.2,1.16,1.33,3.1,4.46,2.29,6.11a3,3,0,0,1-1.42,1.24c-8,4.41-16.72,7.37-23.43,13.84-4.54,4.38-10.77,10.46-9.53,18.26.65,4.14,5.06,6.77,8.88,7.46s7.8.29,11.46,2c3.34,1.6,6,4.81,7.89,8.23,2.73,4.86,4.25,10.91,2.15,15.47a18,18,0,0,1-3.55,4.72c-3.12,3.32-6.26,6.63-9.38,9.95-4.7,5-7.72,10.05-6.21,18.11.63,3.27,2.51,6.66,5.41,8.11,3.72,1.86,7.61.07,11.12-1.33a52,52,0,0,1,24-3.31c4.73.45,9.63,1.57,13.81,4.5,4.49,3.15,13.31,13.31,12.16,19.27-.39,2.07-1.49,3.8-2.22,5.72-3.48,9.09,2.69,13,5.74,20.63,2.25,5.6,4.89,15.74,4.22,21.43-1.37,11.42-19.2,6.88-26.83,5.2-3.11-.69-6.34-1.42-9-3.49-3.13-2.41-5-6.22-6.77-9.88q-3.43-7.32-6.64-14.72a17.83,17.83,0,0,1-1.37-4.06,13.09,13.09,0,0,1,.38-5.15c1.48-6.45,13.11-18.9,2.3-24.27-2.38-1.18-4.95-.44-7.26.31-11,3.6-17.44,5.23-29.56.09q-19.67-8.33-38.77-18.5c-7.66-4.08-27.42-11.18-31.34-20.1a13.84,13.84,0,0,1-.51-9.3,18,18,0,0,1,5.77-8.71c4.38-3.74,9.94-5.65,15.29-7.74a20.45,20.45,0,0,0,6.88-3.81c3.54-3.33,3.6-9.45-2.64-10.85a13.73,13.73,0,0,0-6.28.5c-8.58,2.09-17.24,4.52-24.22,9.83a12.32,12.32,0,0,0-3,3c-2.32,3.62-1.5,8.81-1.6,13.46-.16,7.58-4.83,21.63-13.14,22.13-2.43.15-4.89-1.19-7.25-2.32-4-1.91-8.61-3.32-12.2-1.49-3.16,1.61-4.77,5.49-4.91,9.43-.27,7.13,3.07,9.45-1,14.92-3.5,4.76,2.55,10.08,6.35,13,4.1,3.11-2.18,5.14-4.68,4-2-.9-3.63-2.52-5.56-3.51-2.76-1.43-5.8-1.48-8.66-1.27-2.67.2-5.68.9-6.6,3.51s.65,5.58,2.71,7.53c4.84,4.57,12,6.4,17.52,9.66l21.91,12.86c3.74,2.2,8.71,9.18,8.93,13.69.24,4.84-2.61,11-3.6,15.67a5.05,5.05,0,0,1-1,2.44c-2.69,2.95-8.71,3.84-12.13,6-2.82,1.82-6,3.24-8.39,5.62-1,1-5.85,8.94-1.21,9.15a3.45,3.45,0,0,0,2.09-1c3.15-2.37,8.16-5.34,12.4-5.1C143.69,377.68,151.45,394.56,146.62,400.25Z" transform="translate(-71.45 -82.71)"/><path class="cls-2" d="M148.34,323.5c-5.4,2.53-15.6-3.91-20.34-7.25-1.48-1-3.12-2.7-2.72-4.36a3.24,3.24,0,0,1,1.17-1.66,26.22,26.22,0,0,1,3.22-2.41c1.81-1.12,3.83-2.07,5.07-3.86,1.93-2.79.27-7.15-2-9.79-1-1.11-2.28-2-2.72-3.44s.06-2.59.33-3.84c1-4.33-2.22-9.53-.46-13.49a4.76,4.76,0,0,1,5.66-2.39,10.57,10.57,0,0,1,2.23,1,29.08,29.08,0,0,0,4.52,2.29c2.59.85,5.58-.48,7.86-1.34,3.5-1.32,6-4.52,10-4.94,3.47-.37,9.82,1.36,11.34,5.13,1,2.53.25,7.88-.6,10.18a34,34,0,0,1-6.62,11,42,42,0,0,0-4.77,5.46c-4.06,6.36-4.64,14.92-8.9,21.46a5.89,5.89,0,0,1-2.14,2.23S148.37,323.49,148.34,323.5Z" transform="translate(-71.45 -82.71)"/><path class="cls-1" d="M213.35,365.44c-2.07,0-4.13,0-6.22-.1a5.09,5.09,0,0,1-2.41-.51c-3.69-2.17-1.62-9.14-5.41-12-2.93-2.23-6.82-.69-9.76-.33a16.1,16.1,0,0,1-8.55-.79c-3.08-1.34-3.53-3.46-5.37-5.91A38.82,38.82,0,0,0,169,339c-4-3.37-5.48-9-6.44-14.2a13.06,13.06,0,0,1-.33-3,11.27,11.27,0,0,1,.82-3.49c2.62-7.33,6.54-13.31,10.29-19.83,3.13-5.42,5.23-13.49,11.47-15.65,4.64-1.6,10,1.49,14.65,4.29,15.89,9.52,34.65,19.63,52,23.73a5,5,0,0,1,1.85.7,5.3,5.3,0,0,1,1.19,1.42c7.43,11.38,9.28,23.9,10.65,36.71.26,2.43.43,5-.7,6.95-1.32,2.24-4,2.95-6.48,3.48C243.38,363.18,228.53,365.38,213.35,365.44Z" transform="translate(-71.45 -82.71)"/><path class="cls-1" d="M190.84,399c-3.86,1.49-7.58,3.32-11.84,3.87a17.5,17.5,0,0,1-10.28-1.46c-3.67-1.88-6.54-5.37-9.13-8.83-4-5.39-6.29-11.17-3.56-17.16,2.44-5.35,3.58-8.5.86-15-3.1-7.44,3.38-8.39,9.2-7.29,4.53.87,7,3.6,10.39,6.86l5,8.71c4.3,2.8,7.31,5.1,12.07,5.72,8.58,1.1,17.46.63,25.93.5,21.71-.33,42.78-3.66,64.4-4.13,13.41-.28,25-4.63,38.49,2.9a85.78,85.78,0,0,1,10.92,7.25,13.08,13.08,0,0,1,2.14,1.94,15.52,15.52,0,0,1,2.17,4c3.32,7.94,5.1,24.57-3.38,27.73-5.89,2.19-12.68,1.79-18.57,3.95-2.84,1.05-5.44,2.67-8.38,3.47-8.33,2.25-11.4-5.85-18.1-9.21a10.15,10.15,0,0,0-2.73-.79c-24-4.54-47.87-11.39-71.88-14.77a54.77,54.77,0,0,0-18.25.08A34,34,0,0,0,190.84,399Z" transform="translate(-71.45 -82.71)"/><path class="cls-1" d="M132.28,443.92c.06,1.74.19,3.49.36,5.23a179.41,179.41,0,0,0,19.69,66.08C164,537.5,180,553,200.17,566.22c3.9,2.55,8.22,5,12.45,4.62,2.79-.28,5.17-1.8,7.81-2.57a16.9,16.9,0,0,1,14.1,2.69c6.17,4.29,9.71,11.76,14.35,17.94,12.72,17,33.3,23.64,52.3,27.81a17.45,17.45,0,0,1,6.46,2.36c4.27,3,7.05,9.91,11.79,9.66,4.4-.22,5.25-6.39,5-11.2-.25-5.39-.48-10.78-.73-16.17-.19-4.25-.46-8.79-2.76-12.55-2.47-4.06-6.73-6.34-10.42-9.12-6.6-5-11.85-12-18.5-16.82-9.66-7.07-22-9-31.81-4.94-4.13,1.71-8.36,4.43-12.92,2.87-5.17-1.76-7.95-8-10.48-13.26a102,102,0,0,0-13.15-20.69c-2.89-3.53-6.13-6.93-10.05-8.85s-8.63-2-11.53.69c-3.16,3-4.74,9.19-9.22,8.29-2.17-.43-3.87-2.54-5.18-4.58-3-4.66-5-11.68-1.09-14.47,2.4-1.73,5.9-.8,8.77-1.62,4.71-1.32,6.88-7.22,6.15-12.67s-3.65-10.55-6.58-15.37a13.34,13.34,0,0,0-4-4.72c-2.28-1.38-4.95-1-7.18-.11-4.92,1.88-8.86,5.58-13.26,8.45s-9.76,5-15.15,3.28c-4.9-2.52,5.81-7.19,10.06-8.92s8.9-3.24,11.65-7.05,2.32-10.88-2.09-13.47c-3.62-2.13-7.6-.22-11.5-.23-4.73,0-9.7-3.23-12.21-7.91s-2.41-10.57.24-14.43c.92-1.34,2.14-2.51,2.55-4.17.58-2.41-.84-5.27-2.93-6.81a9,9,0,0,0-7-1.4c-5.25,1-9,5.65-10.66,11A37.17,37.17,0,0,0,132.28,443.92Z" transform="translate(-71.45 -82.71)"/><path class="cls-1" d="M368.67,577.29l-2.27.9a40.62,40.62,0,0,1-7.15,2.49,36.94,36.94,0,0,1-19.93-1.8c-5.73-2.36-10.22-8.47-14.7-12.85-3.36-3.29-7.27-5.79-10.78-8.88s-6.74-7.06-7.64-11.65c-1-4.83.79-9.37,2.5-13.58s3.42-8.36,5.14-12.55c3.48-8.52,14.2.06,19.48-6.64,1.22-1.56,2.45-3.11,3.67-4.66a3.32,3.32,0,0,1,1.12-1,3.37,3.37,0,0,1,1.56-.12l8.44.64a13,13,0,0,1,6.43,1.66c3.61,2.37,4.23,4.83,3.7,8.33S357,524,360.5,526.39c1.89,1.3,4.11,2,5.7,3.71a9.84,9.84,0,0,1,2.28,5.39c.21,1.66.22,3.5,1.31,4.81a9.58,9.58,0,0,0,1.62,1.36c9.54,7.26,1,15.13,3.44,23.29.5,1.71,1.73,3.29,1.73,5a4.86,4.86,0,0,1-1.22,3C373.59,575.26,371.18,576.32,368.67,577.29Z" transform="translate(-71.45 -82.71)"/><path class="cls-1" d="M171.88,422a5.49,5.49,0,0,0-.25,1.42,11.3,11.3,0,0,0,1.17,4.85c3.86,9.11,11.32,15.83,17,23.64,7.78,10.62,15.12,10,25.24,7.68,3.19-.74,9.21-1.09,12.24,1.66,4.63,4.2-1.72,7.24-5.77,6.92-1.59-.12-3.21-.67-4.76-.5-7.42.78-2.91,18.64-.33,23.34,0,0,7.53,13.73,7.95,14.52,5.93,10.82,14.64,20.45,23.77,28.3a31.86,31.86,0,0,0,7.11,4.94c9.18,4.21,27.58,2.05,34.85-3.35a25.84,25.84,0,0,0,8.6-12.55c1.75-5.1,2.74-11.26,7.16-13.77,1.91-1.1,4.24-1.31,6.15-2.42,6.5-3.75-1.68-11.06-4.92-15a53.54,53.54,0,0,1-11.41-25.12,42.64,42.64,0,0,1-.3-13.92c.78-4.45,3.59-7.73,4.37-12.13,1.81-10.26-14.44-13.77-20.76-15.3-15.53-3.78-31.13-7.52-46.74-10.29-11.85-2.11-24.11-5.27-35.77-3.79C189.52,412.06,174.3,414,171.88,422Z" transform="translate(-71.45 -82.71)"/><path class="cls-1" d="M426.64,587.84c-9.56,2.63-13.77-7-19.1-15.09-7.2-10.92-17.76-17.8-21.78-30.25-1.65-5.11-4.51-11.53-8.43-15s-4.66-5.84-7.56-10.87c-2.6-4.5-1.15-15.44-3.75-19.94-4.51-7.82-7.92-16.09.39-16.06S377,498.63,378,502l9.57,16.71c7.54,13.18,12.56,23.81,26.92,29.79a5.91,5.91,0,0,0,7.09-.66,41.14,41.14,0,0,1,15.3-5.83c2.75-.45,5.85-.45,8.43-1.42,3.32-1.24,3.69-3.43,6.36-5.47,2.91-2.21,6.3-3,9.92-3.63,7-1.13,15.76-.47,20.48-6.58,5.23-6.78,2-17.73,2.39-27,.3-7.68,3.22-14.58,6.11-21.27,3.73-8.63,5.88-17.52-.34-26.92-7.5-11.35-21.65-15.43-30-26.13-2.16-2.76-3.94-6-6.66-8-1.63-1.25-3.51-2-5.19-3.16-7.15-4.9-5.09-13.31-10.25-19.23a34.32,34.32,0,0,0-9.35-7.16c-1-.54-2.12-1.38-2-2.47a2.12,2.12,0,0,1,.46-1c1.53-2.21,4.5-5.39,7.18-6.13,4.23-1.18,8.93-.24,13.31,1.15,11,3.48,22.35-.68,33.21,3.43a7.28,7.28,0,0,1,2.41,1.35,10,10,0,0,1,1.81,2.56c6.63,12,10.33,22.38,10.91,35.82a67.82,67.82,0,0,0,.6,9.64,35.51,35.51,0,0,0,3,8.66c6.75,14.23,17.71,25.89,24.71,40,2.55,5.12,6.14,13,6,18.62-.13,4.34-3,7.9-4.43,11.64a136.31,136.31,0,0,1-7.66,16.62,29,29,0,0,1-3.8,5.72,36.91,36.91,0,0,1-5.7,4.73c-11.55,8.6-20.92,19.57-32.88,27.75a184.39,184.39,0,0,1-48.69,23.7C427,587.75,426.81,587.79,426.64,587.84Z" transform="translate(-71.45 -82.71)"/><path class="cls-2" d="M452.22,513.32a29.13,29.13,0,0,1-4.59,5L433.3,530.76a7.09,7.09,0,0,1-2.28,1.51,8.14,8.14,0,0,1-3.52.1c-4.41-.52-9.11-1.31-12.77-4.65-7.27-6.62-14-16.4-20.07-24.19-5.66-7.25-12.65-17-12.57-26a41.15,41.15,0,0,1,1-10.71c1.27-4.6,4.12-8.38,7.22-11.75,4.12-4.51,8.25-1.07,13.85-.29a9.48,9.48,0,0,1,2.88,1.12c3.61,2.44,5.31,14.41,6.76,18.24,1.73,4.53,5.21,14.66,11.15,15.11a12.56,12.56,0,0,0,4.28-.7,37.21,37.21,0,0,1,9.17-1.24,16.12,16.12,0,0,1,6.18.9c5.22,2,6.69,7.8,8.33,12.47C454.65,505.72,455,509.38,452.22,513.32Z" transform="translate(-71.45 -82.71)"/><path class="cls-1" d="M470,479.73l-9.28,2.89c-3.33,1-7.45-.92-10.87-1.78a39,39,0,0,0-13.44-1.18,9.38,9.38,0,0,1-3.58-.05c-4.05-1.18-5.7-7-7.52-10.49a117.93,117.93,0,0,1-5.83-13.06,28.59,28.59,0,0,0-8.52-12.12c-6.18-5.25-12.27-10.28-20.05-7.68a16.26,16.26,0,0,0-3,1.45A145.74,145.74,0,0,0,373.63,447a6.07,6.07,0,0,1-3.32,1.54,5.49,5.49,0,0,1-4.25-2.65c-3-4.28-3.11-12-7.88-14.88l-6.13-3.67-6-7.85c-3.48-4.59,4.83-15.85,3.93-21.25-.48-2.86-2.16-5.59-2.19-8.42-.13-8.38,8.52-5,13.35-4.29a32.22,32.22,0,0,1,7.8,2c5.59,2.32,10.8,6.15,16.63,7.46a24.76,24.76,0,0,0,5.54.52,48,48,0,0,0,16.09-2.71c4.28-1.51,8.78-3.66,13.38-2,11.61,4.26,12.65,22.33,22.08,29.4,1.39,1,3,1.77,4.35,2.85a33,33,0,0,1,4.81,5.31c9.61,11.79,28,16.23,31.26,32.84a11.85,11.85,0,0,1,.07,5.61c-.62,2.06-2.21,3.46-3.73,4.79C476.3,474.33,473.12,477,470,479.73Z" transform="translate(-71.45 -82.71)"/><path class="cls-3" d="M353.77,329.81c-2.09,2-5.65.71-8.66.48-14.33-1.07-15.18,28.55-4.41,35.47,5.42,3.46,13.65,1.47,19.28,1.73a125.66,125.66,0,0,1,23.11,3.28c7.41,1.75,10.52,7.75,18.14,8.38,7.91.65,15.27-2.35,21.48-6.57,6-4.06,11.24-9.8,18.49-10.92,6.54-1,13.4,2,20.1,3.84a62.62,62.62,0,0,0,19.21,2.27c2.48-.1,5-.4,7-1.85,2.38-1.79,3.39-5,4.23-8.07,4.7-17.2,7.64-34.31,6.92-52.86-.63-16.06-1.82-32.86,7.51-45.38,2.46-3.28,5.51-6.1,7.12-10,1.81-4.35,1.6-9.53,1.45-14.5a448.64,448.64,0,0,1,2.07-59c1.52-15,9-35.83-11-42.71-6.52-2.25-13.26-2.17-19.91-2.41s-13.55-.88-19.7-4.33c-13.58-7.62-9.48-26.28-23.36-33.88-9.93-5.42-20.47.76-29.16,6.25-16.94,10.7-33.13,15-53.45,4.75-9.7-4.92-18.75-11.52-28.41-16.61-5-2.63-11.43-4.68-15-.9-2.27,2.4-2.46,6.43-1.71,10,2.75,13.34,19.55,12.87,30.77,20.17,8.37,5.44,12.39,20.42,20.76,25.86,5.63,3.66,19.91,12.46,18.07,21-.71,3.3-3.91,4.89-6.74,6.23-6.75,3.18-54.23,31.93-32.65,40.76a22,22,0,0,0,5.67,1.23,15.55,15.55,0,0,0,4.66.12,14.52,14.52,0,0,0,4.29-1.77l9.63-5.26c3.83-2.08,6.34-4.38,10.38-7.89,2.68-3.7,21.64-15,24.14-5.41.13,6.9-11.13,10.91-15.81,15.08-6.29,5.6-16.28,7.53-19,16-1.93,6,.67,13,3.23,19.31,4.54,11.17,9.79,20.46,15.77,30.9,3.64,6.21,14.07,17,11.63,24.49a12,12,0,0,1-4.54,5.73C389,307.6,381,309.31,373.52,312s-14.95,6.86-18,14.57a9.48,9.48,0,0,1-1.63,3.18Z" transform="translate(-71.45 -82.71)"/><path class="cls-4" d="M339.75,175a22.81,22.81,0,0,1-4.69.22c-12.62-.36-22.24-9.43-25.95-23.21-2.45-9.13-1.45-27.3,9.32-28.28,3.07-.29,6.27.82,9.32,2a43.16,43.16,0,0,1,11.77,6.2c6.91,5.54,12.59,20.1,11.2,28.59a22.82,22.82,0,0,1-3.64,8.51c-1.32,2.06-2.81,4.09-4.93,5.15A9,9,0,0,1,339.75,175Z" transform="translate(-71.45 -82.71)"/><path class="cls-3" d="M213.26,141a11.56,11.56,0,0,0,.26,5.11c1.3,4.57,5.57,7.93,9.82,9.24s8.58,1,12.84.85c13.86-.5,28.88,1.17,41.07,10.32a12.44,12.44,0,0,1,4.41,5.08c1.25,3.2,0,6.53-1.52,9.2a36.23,36.23,0,0,1-16.35,15c-3.29,1.49-7.46,3.81-6.41,7.8.74,2.8,3.68,4.28,6.09,5.68,12.67,7.4,19.58,25.6,14.64,38.6-1.76,4.63-10.23,15.4-5.37,20.49,4.25,4.44,19.77,0,25.19,1.1,7.72,1.59,14.82,7.41,19.54,14.62s7.25,15.64,8.45,24c.5,3.47,1.57,7.94,4.78,8.73a6.08,6.08,0,0,0,3.75-.64A187.17,187.17,0,0,0,373.76,294c2.34-1.72,4.83-3.82,5.07-7,.28-3.53-2.25-6.88-4.44-9.88A98.73,98.73,0,0,1,360,248.74c-2.11-6.65-3.7-13.9-8.44-19-5.36-5.78-13.24-7.23-19.58-11.62-8.42-5.83-10.29-15.11-11.25-24.52-1.25-12.33-3.69-9.45-11.83-17.19-12.27-11.65-18.92-30.95-14.22-46.27,1.87-6.11,5.22-11.46,6.76-17.72s.76-14.21-4.21-19c-12.5-11.92-30.84,4-40.4,9.92a294.34,294.34,0,0,0-25,17.4C224.87,126.1,214.87,131.22,213.26,141Z" transform="translate(-71.45 -82.71)"/><path class="cls-5" d="M478.46,182.19l0-.05c-.74-.86-1.81-2.12-3.08-3.69-2.56-3.15-6-7.56-9.36-12.6a111.82,111.82,0,0,1-9.32-16.34c-2.54-5.66-4.16-11.2-4.16-16a26,26,0,0,1,51.93,0c0,4.85-1.63,10.39-4.16,16A111.82,111.82,0,0,1,491,165.85c-3.4,5-6.81,9.45-9.36,12.6-1.28,1.57-2.34,2.83-3.08,3.69Zm-11.31-48.73a11.31,11.31,0,1,0,11.31-11.3A11.31,11.31,0,0,0,467.15,133.46Z" transform="translate(-71.45 -82.71)"/><path d="M214.35,314.75a15.81,15.81,0,0,1,1.05-1.47.08.08,0,0,0-.06-.13,3.8,3.8,0,0,0-2,.92Z" transform="translate(-71.45 -82.71)"/><path d="M216,313.68a2.43,2.43,0,0,0-.93.31v0a3.44,3.44,0,0,1,.47.45c.14-.2.32-.44.51-.68C216.06,313.74,216,313.68,216,313.68Z" transform="translate(-71.45 -82.71)"/><path d="M219,318c-.6-1.2-2.11-1.82-2.94-2.82a4.77,4.77,0,0,0-.55-.64,5.14,5.14,0,0,0-6.61.61,39.08,39.08,0,0,0-2.87,3.72h.87l-1,.22a7.91,7.91,0,0,1-1.59,1.52l1.09.06a4.08,4.08,0,0,1-1.62.28l-.37.18c-2.45,1.12-5.47.38-7.69-.89a9.34,9.34,0,0,0-2.38-1.1c-2.55-.64-5.86,1.41-6.26,4.05a5.24,5.24,0,0,0,.07,2,20.09,20.09,0,0,1-.41,4.57c-.17.65-.69,1.16-.82,1.78a8.55,8.55,0,0,0,.14,1.5c0,1.26-.87,3-1.18,4.27-.28.45-.46.87,0,1.22a4.4,4.4,0,0,1-.23,1.39c-.05.26-.07.44.19.61a1.57,1.57,0,0,0,.65.18c.5.05,1.47.18,1.46-.52a2.39,2.39,0,0,0-.46-1.35c-.15-.2-.27-.28-.27-.54a5.16,5.16,0,0,1,.09-.79c.09-.82.24-1.65.4-2.46a12.2,12.2,0,0,1,1.09-2.71,11.46,11.46,0,0,1,1.07-1.69c-.07-.81-.32-1.63-.5-2.64a6.94,6.94,0,0,1,.88,2.12l0,0q.06.31.09.63c0,.31,0,.64,0,1a4,4,0,0,1-.22,1c-.39,1.06-.66,1.5-.1,2.57.74,1.39.62,3,.76,4.53,0,.23.16.44.39.43s-.13,1.21.14,1.44a2.18,2.18,0,0,0,1.51.3c1.31-.29.11-1.84-.37-2.34a2.25,2.25,0,0,1-.93-1.63,15.07,15.07,0,0,1,0-1.9,15.7,15.7,0,0,1,0-1.68,3.69,3.69,0,0,1,.84-1.73l.18-.28c.39-.36,1.19-.73,1.5-1.17a9.71,9.71,0,0,0,1.15-2.3h0c.06-.17.12-.35.17-.53h0c.19-.55.49-1.47.75-2.46-.1,1-.23,1.9-.37,2.62l.73.32a20.33,20.33,0,0,0,3.77,1.79,7.68,7.68,0,0,0,3.84-.09,18,18,0,0,0,3.24-1.06l.62-.23c0,.19,0,.39,0,.59-.06.65-.51,1.24-.55,1.87s.28,1,.34,1.47c.16,1.25-.43,3.13-.56,4.4-.22.48-.34.92.15,1.21a4.12,4.12,0,0,1,0,1.4c0,.28,0,.46.27.58a1.52,1.52,0,0,0,.67.09c.5,0,1.32.06,1.21-.64a1.94,1.94,0,0,0-.48-1.18,1.25,1.25,0,0,1-.35-.67,5.31,5.31,0,0,1,0-.8c0-.82,0-1.67.06-2.48a11.88,11.88,0,0,1,.7-2.85,15.53,15.53,0,0,1,1.16-2.44,17.15,17.15,0,0,1-1.92-.88h0l-.05,0h0l0,0h0l0,0h0l0,0h0l0,0h0l-.05,0h0l-.17-.13a1.11,1.11,0,0,1-.19-.18,2.46,2.46,0,0,0-1.09-.79l.5.14a4.28,4.28,0,0,1,.72.43,7.77,7.77,0,0,0,4.66,1.49c1.46-.09,2.18.76,2.22,2.18,0,.82-.67,1.7-.51,2.47.07.3.28.69-.19.82h0l-.07,0a3.7,3.7,0,0,1-.91.05c-.53.29-1.13,1.87-.45,2.16,1,.43,2.38-.85,2.76-1.7.55-1.24.13-2.64.37-3.93.18-1,.56-2.46-.53-3.11-.71-.42-1.49-.75-2.19-1.19.27-.83,0-1.73.29-2.69.15-.56.57-1.06.72-1.64a13.1,13.1,0,0,0,.39-3.17,4.31,4.31,0,0,1,.06-1.36,1.4,1.4,0,0,1-.33-.83,2.19,2.19,0,0,0,.41.66h0a2.16,2.16,0,0,0,.56.32c1,.39,1.36-.1,2.1-.11a3.31,3.31,0,0,0,.54.06c1.15.31,1.4.2,1.4.2S219.12,318.32,219,318Z" transform="translate(-71.45 -82.71)"/><path d="M189.35,320.87a2.56,2.56,0,0,0-1.3-1.27,12.06,12.06,0,0,0-1.89-.89,4.5,4.5,0,0,0-4.8,1.49c-1.21,1.44-1.51,3.33-2.31,5a6.07,6.07,0,0,1-2.36,2.7,6.6,6.6,0,0,1-2.64.77.42.42,0,0,0,.22.42,6.67,6.67,0,0,0,5,.59,9.65,9.65,0,0,0,2.43-2,8.22,8.22,0,0,1-1.42,1.89,3.88,3.88,0,0,0,2.52-1.3,5.9,5.9,0,0,0,1.68-2.53c.44-1.5-.32-3.93,1.06-5a2,2,0,0,1,2.68.18.37.37,0,0,0,.24.12s0,.05,0,.06C188.67,321.64,189.52,321.41,189.35,320.87Z" transform="translate(-71.45 -82.71)"/><path d="M306.37,233.05Z" transform="translate(-71.45 -82.71)"/><path d="M338.08,250a.73.73,0,0,0-.06-.21,6.9,6.9,0,0,0-.77-1,10.51,10.51,0,0,1-1.15-3.24,12.6,12.6,0,0,0-3.15,1l0,.06a6.45,6.45,0,0,0,.32.67c.56.91,1.39,1.58,1.93,2.45a5.22,5.22,0,0,1,.35,3.11c0,.49-.14,1-.14,1.52s.17,1.09.13,1.65a6.93,6.93,0,0,1-.31,1.57,8.64,8.64,0,0,1-.31.85c0,.13-.31.54-.25.67.14.33,1.57.14,1.82,0,.54-.34.08-1.5.17-2,0-.23.08-.45.13-.69.14-.78,0-1.61.14-2.42a12.31,12.31,0,0,1,.48-2.1C337.62,251.29,338.14,250.53,338.08,250Z" transform="translate(-71.45 -82.71)"/><path d="M343.59,246.65a1.82,1.82,0,0,1-.89-1.28c-.18-.59-.25-1.21-.41-1.81a4.23,4.23,0,0,0-1-1.82,39.89,39.89,0,0,0-3.32-2.49c-.16-.25-.33-.48-.5-.71-.92-1.2-2.32-1.53-3.06-2.87-1.3-2.35-3.75-5.6-6.62-5.95s-3.71,2.8-5.2,4.49c-1.24,1.41-3.64,1.41-4.71,2.92a4.58,4.58,0,0,1-.62.89c-.58.5-1.37-.27-1.82-.64a4.57,4.57,0,0,1-1.16-1.46c-.35-.68-.64-1.38-1-2.06a9.08,9.08,0,0,0-.73-1.25c-.14-.2-.29-.39-.44-.57s-.26-.38-.45-.44-.47-.12-.65-.15a2.13,2.13,0,0,0,.64,0,1.94,1.94,0,0,0,1.28-.65c.12-.2,0-.36-.29-.47a5.66,5.66,0,0,0-3.18-.33,3.26,3.26,0,0,0-1.49.64,3,3,0,0,1-1.67.7c-.7.16-2.27.56-2.45,1.37a.92.92,0,0,0,.38,1,.77.77,0,0,0,.76.63c.44-.06.88-.15,1.32-.22h.21a3,3,0,0,1,.67.5c.79.68,2,1.24,2.91.57a17.16,17.16,0,0,0,1.59,4.38,8.34,8.34,0,0,0,1,1.48,5.16,5.16,0,0,0,1.07,1.12,6.88,6.88,0,0,0,2.84,1.08,6.63,6.63,0,0,0,2.13.11l.43.41.32.29a26.46,26.46,0,0,0,.47,3.64,27.9,27.9,0,0,1,.55,3.63c0,.08,0,.17,0,.26s0,.28,0,.43v.26a.32.32,0,0,0,.08.26c0,.19.07.37.1.55a14.94,14.94,0,0,1,.12,3,6.55,6.55,0,0,1-.15,1.59c-.12.44-.49.83-.54,1.3s2,.51,2.22.15a1.66,1.66,0,0,0,.06-1.12,6.78,6.78,0,0,1-.17-2.15,23.35,23.35,0,0,1,.27-2.36,2.7,2.7,0,0,1,0-.28s0-.08,0-.14v0l0-.15c0-.11,0-.21,0-.31v-.15c0-.08,0-.15-.05-.22a3.62,3.62,0,0,0-.13-.47,7.53,7.53,0,0,1-.3-1.33,5,5,0,0,1,.05-1.45,8.78,8.78,0,0,1,.3-1.37,6.46,6.46,0,0,0-.46-.95c-.41-.58-1.12-1.51-1.12-1.51a2.91,2.91,0,0,1,1.28,1.38c.14.33.27.65.38.94h0c.11.28.22.58.33.87v0h0a17.87,17.87,0,0,1,.67,2.26c.12.55-.14,1,0,1.6s.61,1.14.81,1.74a7.81,7.81,0,0,1,.17,1.69,8.84,8.84,0,0,1,0,2.12,5.24,5.24,0,0,1-.55,1.37c-.24.5-.23.75.39.78l-.08,0a3,3,0,0,0,.73.09c.69-.05.83-.64.84-1.24a.5.5,0,0,0,0-.12,3.79,3.79,0,0,0,0-.89,14.9,14.9,0,0,1,0-1.89c.08-1.19.63-2.24.25-3.45a10.08,10.08,0,0,1-.23-3.91c0-.43.09-.85.13-1.29v0c0-.43.07-.86.08-1.29h0c0-.73.06-1.34.06-1.34.12.62.27,1.06.28,1.34h.21a4.37,4.37,0,0,1,1.24.27,8.9,8.9,0,0,0,2.41.66,9.93,9.93,0,0,0,4-1.08,6.59,6.59,0,0,1,1.75-.43,18.85,18.85,0,0,1,1.36,2.37c.62.91,1.56,1.57,2.16,2.45a4.66,4.66,0,0,1,.4,3.1c0,.5-.15,1-.15,1.53a15.09,15.09,0,0,1,.14,1.65,6.39,6.39,0,0,1-.34,1.56c-.09.24-.82,1.5-.54,1.62a.34.34,0,0,0,.17,0c.55,0,1.87.16,2-.51s-.16-1.1,0-1.63c0-.23.09-.46.14-.69.16-.79,0-1.61.16-2.43a10,10,0,0,1,.54-2.09c.2-.52.77-1.29.69-1.85a1.08,1.08,0,0,0-.05-.21c-.17-.38-.63-.69-.87-1a10.44,10.44,0,0,1-1.39-3.66,19.15,19.15,0,0,0-.94-3.27c-.16-.36-.35-.74-.55-1.12l.28.21c.37.28.74.55,1.08.85a3.34,3.34,0,0,1,.62.75l.21.31a12.2,12.2,0,0,1,.8,1.72l.17.43c0,.05.05.11.08.17a0,0,0,0,0,0,0,8.5,8.5,0,0,0,.38.81,4.82,4.82,0,0,0,.41.69l0,0,.1.11.12.12.13.07.08,0h.06a.36.36,0,0,0,.11-.13A.47.47,0,0,0,343.59,246.65Z" transform="translate(-71.45 -82.71)"/><path d="M527.59,501.54c-.23-.56-.93-.72-1.38-1.19-.21-.22-.26-1.45-.45-1.87a8.62,8.62,0,0,0-6.36-4.7c-3.72-.65-5-1.16-8.76-.77,0,0-1.42.16-2.37.38a8.41,8.41,0,0,1,1.8-.86l-.22-.27a4.42,4.42,0,0,0-2.47-1.24,15.1,15.1,0,0,0-4.14-.19,5.51,5.51,0,0,0-1.15.05c-.54.16-.67.55,0,.69a5.28,5.28,0,0,1,2.66,1.47,1.26,1.26,0,0,1,.42.79c0,.42-.36.51-.7.65a19.09,19.09,0,0,0-5.05,2.86,16.85,16.85,0,0,0-6,15.08,12.42,12.42,0,0,0,.76,2.6,10.52,10.52,0,0,1-1-1.44,11.72,11.72,0,0,0-2.54,1.57,8.38,8.38,0,0,0-1.9,2.86c-.12.32-.1,1.6.36,1.71.31.06,1.38-1.09,1.72-1.29h0a5.56,5.56,0,0,1,4.58-.56c.63.24,1.13.93,1.72.53,1.52-1-.7-3.87-1.47-4.55-.35-.31,1-2.29,1.2-2.61a16.39,16.39,0,0,1,2.25-2.86A18.89,18.89,0,0,1,510.23,503a6.85,6.85,0,0,1,.72-1.65,8.35,8.35,0,0,0-.18,1.61l0,.12a8.12,8.12,0,0,0,.11,2.67c1.17,1.19,3.7-2.18,3.73-3.26,0-.38,2.68-.59,3-.61a43.24,43.24,0,0,1,9.3.64.92.92,0,0,0,.57,0C527.81,502.33,527.71,501.81,527.59,501.54Z" transform="translate(-71.45 -82.71)"/><path d="M118,235.06a12.2,12.2,0,0,1-5.48,4.9,2.13,2.13,0,0,0-.87,1.4c0,.86.31,1.67.33,2.52s-.52,1.75-.21,2.65a1.44,1.44,0,0,0,1.6,1,1.29,1.29,0,0,0,1-.7c.2-.63-.64-.74-.81-1.24-.5-1.45.49-3.37,1.18-4.55.85-1.44,2.73-2.24,3.79-3.47a15.73,15.73,0,0,0,1.93-3A1.62,1.62,0,0,0,118,235.06Z" transform="translate(-71.45 -82.71)"/><path d="M141.51,215.69s-.59.88-.49,1.09a4.34,4.34,0,0,0,1,.34,5.7,5.7,0,0,1,.59-1.28,1.55,1.55,0,0,0,.13-1c-.23-.63-.48.21-.72.45a3.43,3.43,0,0,1-.47.36Z" transform="translate(-71.45 -82.71)"/><path d="M130.26,238.81l.06-.23a11,11,0,0,1-.31-1.65c-.42,0-1.17,0-1.81-.11l.06.51a2.25,2.25,0,0,1,0,1.12,9.78,9.78,0,0,1-.31,1c-.29.67,0,1.22,0,1.89s-.25,1.43-.35,2.14-.15,1.25-.19,1.88a2.25,2.25,0,0,0,.14,1.41.88.88,0,0,0,.57.33,3.14,3.14,0,0,0,1.26,0l.12-.06h0a.56.56,0,0,0,.51-.6c0-.36-.4-.65-.63-.87s-.49-.38-.51-.74a5.45,5.45,0,0,1,.28-1.39C129.52,241.84,129.89,240.32,130.26,238.81Z" transform="translate(-71.45 -82.71)"/><path d="M147.7,221.28a.41.41,0,0,0-.12-.17,3.58,3.58,0,0,0-1-.44,9.66,9.66,0,0,1-2-1.08c.06,0,.15-.67.11-.77-.24-.85-2.26-1.47-3-1.62-.32-.06-.68-.16-1-.25a8.44,8.44,0,0,1,.69-1.46,1.82,1.82,0,0,0,.16-1.23c-.22-.63-.53.07-.71.32-.48.65-1.26,1-1.79,1.56a5.52,5.52,0,0,0-.62.82,9.47,9.47,0,0,0-2,1.19,16.21,16.21,0,0,0-2.67,2,32.67,32.67,0,0,1-2.56,2.7,4.6,4.6,0,0,1-2.52,1,5.61,5.61,0,0,0-2.94.52,12.43,12.43,0,0,1-6.36,1.73,10.53,10.53,0,0,0-7.32,3.24,3.23,3.23,0,0,0-1.27-.21.61.61,0,1,0,0,1.21,2.15,2.15,0,0,1,.84.13.71.71,0,0,0,0,.21,14.81,14.81,0,0,1-1.26,5.9,8.85,8.85,0,0,1-1.69,2.62c-.62.64-2,1.09-2.2,2s0,1.7-.08,2.54-.86,1.65-.67,2.59a1.5,1.5,0,0,0,1.53,1.21,1.44,1.44,0,0,0,1.17-.53c.32-.59-.56-.84-.66-1.35-.29-1.51,1.1-3.25,2-4.31,1.14-1.29,3.29-1.79,4.63-2.83,1.74-1.36,2.82-3.07,4.28-4.65.36-.39,3.52,1.18,3.94,1.33a20.66,20.66,0,0,0,4.57,1.2,11.73,11.73,0,0,0,2.84,0,7.49,7.49,0,0,1,.41-2s-.07,1-.05,2c0,.47.1.95.17,1.42a2.12,2.12,0,0,1,0,1.14,8.23,8.23,0,0,1-.37,1c-.33.68,0,1.24-.06,1.92a20.54,20.54,0,0,1-.4,2.19c-.1.63-.18,1.27-.22,1.92,0,.44-.16,1.06.15,1.42a1.15,1.15,0,0,0,.67.35,4.23,4.23,0,0,0,1.46-.05.35.35,0,0,0,.14-.06h0a.58.58,0,0,0,.59-.61c0-.36-.46-.66-.73-.88s-.56-.39-.58-.76a4.39,4.39,0,0,1,.33-1.42c.43-1.54.85-3.09,1.28-4.63a16.89,16.89,0,0,1,.81-2.43,29.57,29.57,0,0,0,1.34-2.78c.06-.19.11-.37.17-.55,1.24-1.8,1.27-4,2-6a17.33,17.33,0,0,1,.72-1.72,7.33,7.33,0,0,1,1.53-2.05c.88-.75,1.62-.55,2.67-.36a11.72,11.72,0,0,0,2.44.21,1.6,1.6,0,0,0,.58-.08.74.74,0,0,0,.37-.26c.08-.12,0-.35.12-.44s.4-.08.53-.11c.76-.16,1.33-.36,1.53-1.16A.81.81,0,0,0,147.7,221.28Z" transform="translate(-71.45 -82.71)"/><path d="M216.39,536.49a11.4,11.4,0,0,1,.91-3.31c1-1.91,1.69-3.78,1.13-5.91a16.42,16.42,0,0,1-.69-2.93.74.74,0,0,0-1.37-.37,15,15,0,0,0-1.64,5.52c0,.31-.51,3.9-.71,5A7.72,7.72,0,0,1,216.39,536.49Z" transform="translate(-71.45 -82.71)"/><path d="M218.1,539.9l-.13-.31a13.25,13.25,0,0,0-.82-1.53l-.17-.22c-.15-.19-.38-.44-.52-.64a12.93,12.93,0,0,0-2.58-2.39h0a11,11,0,0,1-2-3.53,25.44,25.44,0,0,0-2.05-4.69,7.7,7.7,0,0,0-2-2.12.75.75,0,0,0-1.09.44,5.17,5.17,0,0,0,0,2.59c.12.86-.1,1.82,0,2.72a3.85,3.85,0,0,0,1.3,2.43c.61.56,1.31,1,1.9,1.58.37.35.74.73,1.08,1.11-.08-.09-.2,0-.33.15a4,4,0,0,0-.79.74,3.44,3.44,0,0,0-.58.88,6,6,0,0,0-.59,2.2c-.68.17-1.53-.53-2.07-.82a19.55,19.55,0,0,0-6-2.32,10.3,10.3,0,0,0-6.38.8c-3.74,1.93-4.52,6-4.7,9.85-.83.13-.82-1.37-.74-2.25a4.49,4.49,0,0,0-2.69,4.91,3.21,3.21,0,0,0,.56,1.16,2.63,2.63,0,0,0,1.18,2.23,1.74,1.74,0,0,0,1.14.19.49.49,0,0,0,.11.14,1.3,1.3,0,0,0,1,.38,1.64,1.64,0,0,0,1.28-.56,1.68,1.68,0,0,0,1.28,1.53,10,10,0,0,0,3.49.39c1.59,0,5.48.37,6.36-1.29a1.42,1.42,0,0,0,.17-.8c-.23-1.16-3.07-.09-3.07-.09,2.06-1.51,3.6-.6,3.6,0,.4,0,.79-.1,1.18-.15-.4-1,0-3.33,1.26-3.59a4.27,4.27,0,0,0-.85,3.53h0s.13.91.21,1a2.08,2.08,0,0,0,1.26.8,17.54,17.54,0,0,0,4.77.76,4.17,4.17,0,0,0,2-.27.91.91,0,0,0,.1-1.51,4.81,4.81,0,0,0-1.38-.73c-.42-.18-.85-.33-1.27-.5l-.08,0-.3-.17a20,20,0,0,0,2.32-1.77c.31-.3.6-.61.88-.94a9.09,9.09,0,0,0,2.14-3.74.42.42,0,0,1,.36-.59,2.6,2.6,0,0,0,.39,0,5.54,5.54,0,0,0,.71,0,1.92,1.92,0,0,0,.88-.2C219.51,543.81,218.63,541.17,218.1,539.9Z" transform="translate(-71.45 -82.71)"/><path d="M213.47,551a6.4,6.4,0,0,0-.89-.37,4.68,4.68,0,0,1-1.92,1.24,9.62,9.62,0,0,0,1.38.44,3.94,3.94,0,0,1,1.62.71.74.74,0,0,0,1.16-.9A2.67,2.67,0,0,0,213.47,551Z" transform="translate(-71.45 -82.71)"/><path d="M284.34,495.55h0Z" transform="translate(-71.45 -82.71)"/><path d="M289.88,491c-.08-.57-.28-1.14-.37-1.67a.39.39,0,0,0-.11.06,4.93,4.93,0,0,0-.2.82,2.38,2.38,0,0,1-.56.84,2.24,2.24,0,0,1-1.67.44,1.94,1.94,0,0,0-.05-.2c-.6-2.1-2.93-3.13-3.43-5.23a11.22,11.22,0,0,1-1.55-.35,4.41,4.41,0,0,0,1.49,0h0a8.66,8.66,0,0,0,.89-.07,3.6,3.6,0,0,0,2.07-.86.49.49,0,0,0-.38-.39c-.42-.06-.85-.1-1.26-.2a6.67,6.67,0,0,1-1.05-.4,5.78,5.78,0,0,0-2-.51,6.74,6.74,0,0,0-.78,0,.8.8,0,0,0,0-.15,1.87,1.87,0,0,0-.08-.28c-.34-.86-2-1.18-2.82-1.55-2-.93-4-2.71-6.31-1.81a21.43,21.43,0,0,1-5.2,1.71,31.56,31.56,0,0,1-5.14-.06,15,15,0,0,0,1.12,1.44c-.88-.15-2.1-1.68-2.1-1.68-.63-.42-1.13-1.06-1.8-1.44a6.39,6.39,0,0,0-3-.83c-2.61-.07-4.19,1.89-6.61,2.34a7.6,7.6,0,0,0-1.73.56,8.8,8.8,0,0,0-2.76,2.1c-.43.47-.81,1-1.24,1.44a8.16,8.16,0,0,0-2,2.82c-.27.88-.2,2.71,1.22,2.2l.21-.08a6,6,0,0,0,.74,2.15,21.33,21.33,0,0,0,1.84,2.49,2.47,2.47,0,0,1,.53,1.09,9,9,0,0,1,0,1.8,9.3,9.3,0,0,0-.07,1.49,2,2,0,0,0,.67,1.29,10.62,10.62,0,0,1,.94.82l.08.14s0,.07,0,.11l0,.11a.83.83,0,0,0,0,.15c-.14.64.31,1,.88,1.07a13.7,13.7,0,0,0,2.48.12h.06a15.58,15.58,0,0,0,1.8.14,2.47,2.47,0,0,0,1.26-.2c1.12-.71-.1-2.11-.77-2.63-.23-.19-.51-.35-.74-.52a2.18,2.18,0,0,1-.4-.41,2.8,2.8,0,0,1-.44-1.21,9.89,9.89,0,0,1-.1-1.49h0c0-.32-.05-.7-.07-1.11a5.75,5.75,0,0,0,2.2-1.71h0l-1.46,2-.13,1a38,38,0,0,0,4.82,1.27,29,29,0,0,0,10.27.28c.13,0,1.89-.43,2.59-.64l.12,0c.61-.22.31-.7.52-1.35.43,1.5-.21,4.22-.58,5.59a1,1,0,0,0,.24.49,1.4,1.4,0,0,0,.89.39,21.54,21.54,0,0,0,3.11.17c.72,0,1.93.15,2.21-.74A1.49,1.49,0,0,0,276,501a3.85,3.85,0,0,0-.79-.74l-.16-.16L275,500l-.05-.07v0h0l0-.11a2,2,0,0,1,0-.34,4.68,4.68,0,0,1,.16-1.39c.16-.58.36-1.15.5-1.73s.27-1.2.41-1.8c0-.05,0-.1,0-.14a12.85,12.85,0,0,0,1.4-1.36,3.32,3.32,0,0,1-.51-2.31,3.52,3.52,0,0,0,1.89,3,3,3,0,0,0,.8.23,13.58,13.58,0,0,0,2.21,0v.07c0,.85.78,1.52,1.46,1.88a6.15,6.15,0,0,0,1.86.43l0,0h0a3.21,3.21,0,0,0,2.34-1.5,1.33,1.33,0,0,0,.29-1A2.8,2.8,0,0,0,289.88,491Z" transform="translate(-71.45 -82.71)"/><path d="M269.9,498.07a4.08,4.08,0,0,1-1.49.28c0,.27,0,.53-.05.8a5.81,5.81,0,0,1-.27,1,1,1,0,0,0,.19,1,1.31,1.31,0,0,0,.8.36l.56.07A34.46,34.46,0,0,0,269.9,498.07Z" transform="translate(-71.45 -82.71)"/><path d="M404.61,411.45a2.42,2.42,0,0,1,0-.25l0-.12,0-.12a2.1,2.1,0,0,1,.06-.24,2.17,2.17,0,0,0,.07-.24l.05-.11s0-.08,0-.12,0-.08.05-.11A.54.54,0,0,0,405,410l.05-.1,0-.06v0h0l.11-.19a.67.67,0,0,0,.08-.18s0-.05,0-.07h0l0,0h0a.41.41,0,0,0-.17.05l-.35.17-.18.1,0,0-.06,0-.1,0a2,2,0,0,1-.71.09,2.23,2.23,0,0,1-.53-.11l-.14-.05v.2a.76.76,0,0,0-.24.72c.14.85-.6,1.72-1.06,2.35a9.64,9.64,0,0,0-.63.9.86.86,0,0,0,.16,1.08c.42.33,1.47-.74,1.73-1a9.06,9.06,0,0,0,1.66-2s0,0,0,0S404.59,411.6,404.61,411.45Z" transform="translate(-71.45 -82.71)"/><path d="M435.66,425.17a3.36,3.36,0,0,0-.24-1,1.58,1.58,0,0,0-1.25-1.06,7.71,7.71,0,0,1-.61,1.35,3,3,0,0,1-1.64,1.34c-.15,0-.42-.16-.53-.11s-.23.51-.29.64a14.7,14.7,0,0,1-.72,1.43c-.4.68-1,1.7-1.83,1.87a19.42,19.42,0,0,0,1.88-3.4,10.07,10.07,0,0,0,.59-2.06.57.57,0,0,1-.14-.13,8.17,8.17,0,0,0-3.2-2,10.83,10.83,0,0,0-3.93-.85c-1.55,0-3.1,0-4.64.11H419c-.41,0-.8,0-1.16.08,3.8-1.19,5.79-.42,5.79-.42a1.71,1.71,0,0,0-1.07-1.17,9.6,9.6,0,0,0-4.76-.27,14.65,14.65,0,0,0-4.28,1.36,16.54,16.54,0,0,0-3.77,3.06c-.18.18-.38.36-.56.56.06-.19.13-.37.2-.55s0-.05,0,0,.07-.14.1-.22l.25-.51c.64-1.21,1.53-2.24,2.28-3.38,1.61-2.43,2.81-5.29,2.3-8.26a8.23,8.23,0,0,0-4.86-6.09,4.79,4.79,0,0,0-6.46,3.79l.2.09a2.44,2.44,0,0,0,.46.1,1.58,1.58,0,0,0,.6-.05l.08,0h0l0,0,.17-.08.39-.18a1.09,1.09,0,0,1,.23-.06.3.3,0,0,1,.18,0h.05l0,0h0l0,0,0,0v0a.06.06,0,0,1,0,0s0,0,0,0a.36.36,0,0,1,0,.15.82.82,0,0,1-.11.23l-.12.19a2,2,0,0,0-.11.2l-.06.11,0,.1-.05.11a.42.42,0,0,0,0,.1c0,.08-.06.15-.08.22l-.06.23,0,.12,0,.11c0,.08,0,.16,0,.24a2.3,2.3,0,0,0,0,.26,5.69,5.69,0,0,0,2.59-.89,6.25,6.25,0,0,0,1.16-.95c.25-.26.75-.82.75-1.2v0c.23.21.48.38.7.59v0a6,6,0,0,1,1.47,3,6.85,6.85,0,0,1-1,4.47,23.91,23.91,0,0,1-2.08,3.19,13.75,13.75,0,0,0-2.72,7.47,9.41,9.41,0,0,0,.73,4.64c1.19,2.37,4.41,4.08,6.88,4.95,2.72,1,5.44.59,8.23.24,4.7-.58,10.47-2.33,13.08-6.62A8.46,8.46,0,0,0,435.66,425.17Z" transform="translate(-71.45 -82.71)"/><path d="M416.48,144.34s0-2.79-.65-3.6a1,1,0,0,1-.61.84,19.69,19.69,0,0,0,.12-2.77,4.78,4.78,0,0,0-.29-1.11,2.37,2.37,0,0,1-.2-.47l-.61,1c.38-1.67-1.21-4.36-1.21-4.36l-.33,1.36c.3-1.21-.83-2.61-1.52-3.5s-1.85-2.2-3-1.52a5.05,5.05,0,0,1,1.24,2.49c.31,1.43-.19,2.59-.54,3.93a22.48,22.48,0,0,0-.59,8.75,10.22,10.22,0,0,0,2.89,5.15,12.34,12.34,0,0,1,2.05,3.11l.74.22s.14-.24-.18-1a17.21,17.21,0,0,1-1.32-3.16C412.35,147.13,415.61,145.09,416.48,144.34Z" transform="translate(-71.45 -82.71)"/><path d="M429.86,144.57c1.14-2,3.76-5.76,2.15-8.1a6.88,6.88,0,0,1-1.48,3.19l-.23.27a13.58,13.58,0,0,0,.83-4,12,12,0,0,0-.31-3.43,12.37,12.37,0,0,0-.45-1.58c-.05-.14-.57-.91-.57-1a13,13,0,0,1-1.31,4.8,22,22,0,0,0-1.58,3c2.35-10.29-.81-12.24-.81-12.24a.51.51,0,0,0-.07.28,49.35,49.35,0,0,1-.39,5.16,3.17,3.17,0,0,0-1-1.09,6.35,6.35,0,0,1,0,1.51,11.45,11.45,0,0,1-.49,2.94,21.05,21.05,0,0,1-3.42,7.22,13.9,13.9,0,0,1-3.46,2.88c-2,1.38-4.56,3.2-4.08,6a10,10,0,0,0,1.18,2.32,1.91,1.91,0,0,1,.19,1.22c-.18.78-1.26.31-1.7.09-.94-.45-1.86-.91-2.83-1.32a13.61,13.61,0,0,0-1.87-.61,6.71,6.71,0,0,0-1.86-.35c-.37,0-1.24.1-1.15.6h0a2,2,0,0,0-1.35,1.17c.58,0,1.09-.3,1.6,0a3.63,3.63,0,0,1,.8,1.12,5.17,5.17,0,0,0,1.56,1.63,16.32,16.32,0,0,0,4.6,1.7,26.56,26.56,0,0,1,5.33,1.94,22.79,22.79,0,0,1,4,3.2,5.28,5.28,0,0,1,.74-.68c-.24-.31-.47-.61-.38-.55a6.33,6.33,0,0,0,.69.34c.07,0,.44-.3.51-.34a3.18,3.18,0,0,1,1-.41c.18-.05,1.06-.25,1.19-.11a6.35,6.35,0,0,0-1-.85,6.55,6.55,0,0,1,2.06.86h3.05c-.73-1.46-3.48-2.49-4.93-2.93a10.34,10.34,0,0,0-3.49-.52,3.82,3.82,0,0,0,1.91-1l1.06-.79-.58-.83,1.11.42.23-.19a16.34,16.34,0,0,0,1.38-1.26l-.95-.39,1.42-.11a15.06,15.06,0,0,0,1.3-1.68l.95-1.44-1.31-.29,1.81-.51a13.8,13.8,0,0,0,1.71-3.79c0-.18.07-.69.2-.82a25.47,25.47,0,0,1-2.74,1.38C429,146,429.45,145.28,429.86,144.57Z" transform="translate(-71.45 -82.71)"/><path d="M424.49,326a6.63,6.63,0,0,0-.67-1.23,3.63,3.63,0,0,0-.31-1.54,4.32,4.32,0,0,0-.44-.78h0l.23.17a.35.35,0,0,0,.58-.16,3.87,3.87,0,0,0-.16-2,1.86,1.86,0,0,0-.1-.31.36.36,0,0,0,.52-.3,5.32,5.32,0,0,0-1.72-4,4.81,4.81,0,0,1,1.67-.5.57.57,0,0,0-.3-.29.66.66,0,0,0-.32,0c-.5.06-1,.15-1.47.24a.36.36,0,0,0-.31-.5,11.27,11.27,0,0,1-1.85-.57,7.31,7.31,0,0,0-1.86-.31,30.4,30.4,0,0,0-3.65.67c-.27,0-.48.43-.24.61l-.39,0a5.12,5.12,0,0,0-1.94-.1.38.38,0,0,0-.21.22,3.58,3.58,0,0,1,1.57.6,2.49,2.49,0,0,0-.34.38,5.77,5.77,0,0,0-1.11,4.93.34.34,0,0,0,.52.2c-.09.17-.17.35-.24.51a4.29,4.29,0,0,0-.32,1.8,7.24,7.24,0,0,0-2.91,2.38c-2.05,2.64-3,5.93-4.84,8.72a12,12,0,0,1-1.83,2.25,10.45,10.45,0,0,1-2.19,1.46.7.7,0,0,0-.33.94l.24.08c.8.22,1.63.28,2.45.43l.29,0c.49,0,1,.1,1.46.15l.57,0a3.17,3.17,0,0,0,1.16-.25,29.64,29.64,0,0,0,1.35-3.48,35.53,35.53,0,0,1-.7,3.53,11.44,11.44,0,0,0,4.92-2.06c.47-2,.53-2.36.53-2.36l0,2.16a12.27,12.27,0,0,0,2.09-1.86,9.35,9.35,0,0,1-3.54,3,11.62,11.62,0,0,1-4.68,1.58q-.61,0-1.23,0a13.26,13.26,0,0,1-2.59,3.4.35.35,0,0,0,0,.49,1.69,1.69,0,0,0,1.34.45,2.72,2.72,0,0,0,.62-.23,3.77,3.77,0,0,0,.71-.76,5.9,5.9,0,0,1-.39.76,1.91,1.91,0,0,1,.32.16,1.52,1.52,0,0,0,1.34.14l.36-.14h0a3.77,3.77,0,0,0,.71-.76,6.66,6.66,0,0,1-.36.71l.55,0c.84-.13,1.17-.88,1.47-1.59.08-.18.15-.35.22-.53a4.84,4.84,0,0,1-1.32-.14,44.73,44.73,0,0,0,7-1.23l.05,0h.05l.5-.14H415l.05,0-.12.07a4,4,0,0,1-.56.26c.09.32.19.63.26,1,.11.56.05,1.07-.49,1.33a6.54,6.54,0,0,0-1,.48,1.12,1.12,0,0,0-.45,1.11.38.38,0,0,0,.13.26c-.4-.34,2.13-.88,2.19-.88.81-.06,2-.3,2.55.52.15.22.22.49.38.71s.87.44.88-.08a2.85,2.85,0,0,0,0-.51c.19.21.38.54.55.58a.32.32,0,0,0,.44-.32,1.73,1.73,0,0,0-1-1.57c-.6-.26-1.27-.25-1.88-.46a1.46,1.46,0,0,1-.66-.46c.43-.12.83-.2.85-.2.66-.05,1.66-.24,2.09.42.12.19.18.41.31.58s.71.36.72-.06a3,3,0,0,0,0-.42c.15.18.32.45.45.48a.27.27,0,0,0,.36-.26,1.38,1.38,0,0,0-.84-1.28c-.49-.22-1-.21-1.53-.39-.76-.27-.93-1-1-1.84.46-.26.92-.54,1.36-.84a5.67,5.67,0,0,0,1.48-1.49c.09-.27.23-.74.46-1.57a4.86,4.86,0,0,1,0,1.22.78.78,0,0,0,.64-.23,5.09,5.09,0,0,0,1.19-1.88h0a8.68,8.68,0,0,0,.61-1.92,4,4,0,0,1-.26,2.09.65.65,0,0,0,.67-.24,7.72,7.72,0,0,0,1.48-4.56A10.08,10.08,0,0,0,424.49,326Zm-8.15,15.88c-.18.09-.38.15-.57.23a8.44,8.44,0,0,1-.25-1.38,4.39,4.39,0,0,0,1.11-.37c0,.14.08.28.11.42C416.83,341.27,416.78,341.7,416.34,341.91Z" transform="translate(-71.45 -82.71)"/><path d="M480.08,239.73s0,0,0,0a.07.07,0,0,0-.05,0h0S480.08,239.74,480.08,239.73Z" transform="translate(-71.45 -82.71)"/><path d="M489.45,233.65l0,0,0,0a3.82,3.82,0,0,1-.29-.48l-.13-.28s0,0,0,0,0,0,0,0c-.07-.2-.14-.4-.19-.6-.24-.79-.34-1.6-.5-2.4a17,17,0,0,0-.77-2.7c-.12-.33-.25-.65-.36-1a11.5,11.5,0,0,1-.49,1.14,6,6,0,0,1-1,1.53c-.72.77-1,.95-1.14,2.06,0,.14,0,.29,0,.44a6.36,6.36,0,0,0,.85.62c.24.15.5.28.75.43l.13.08c.18.27.36.55.55.81l.42.55,0,.07c.06.08.1.16.15.23.14.23.25.46.37.7a1.23,1.23,0,0,0,0,.2,14.06,14.06,0,0,1-.51,3.07c0,.1-.05.21-.08.31s-.08.18-.07.18a1,1,0,0,0-.1.17s0,0,0,0h0l-.14.14s-.07.07-.11.08l-.2.12-.22.08a1,1,0,0,0-.67,1.23,1,1,0,0,0,1.18.7,3.27,3.27,0,0,0,2.22-2.24,16.22,16.22,0,0,0,.63-3.39l.09-.09a1,1,0,0,0,0-1.41A1.73,1.73,0,0,1,489.45,233.65Z" transform="translate(-71.45 -82.71)"/><path d="M500.69,232.21a2.25,2.25,0,0,0,1.08.23,3.41,3.41,0,0,1-.61-.88s.15-.22.4,0c0-1-1.86-1.22-2.59-1.27-.29,0-.85-.49-1.16-.6a7.62,7.62,0,0,0-1.35-.34c-.95-.16-1.91-.2-2.85-.35a5.59,5.59,0,0,1-2.56-1,7.94,7.94,0,0,1-1.75-2.55c-.31-.57-.6-1.14-.9-1.72a16.5,16.5,0,0,0-1.53-2.12l0,0a3.24,3.24,0,0,0-1.5-1.31,11.18,11.18,0,0,0-1.59-.68,2.48,2.48,0,0,0-.32-.17,6.39,6.39,0,0,0-2.83-.52,23.66,23.66,0,0,0-2.78.32c-.6.1-.82.13-1.37.19s-1.38.11-2.07.13h-.77c-.7-.08-1.39-.12-2.09-.17l-.19,0-.12,0-.36-.09a9.25,9.25,0,0,1-.93-.32l-.46-.17a23.63,23.63,0,0,0-3,.46,6.39,6.39,0,0,1,2.95-.72.39.39,0,0,0-.09-.25,8.64,8.64,0,0,0-.94-.77c-.79-.68-2-1-2.53-1.91,0,0,0,0,0,0-.67-.71-1.14-1.54-1.88-2.2a7.43,7.43,0,0,0-4.87-1.86l.83.56-1.3-.57a1.37,1.37,0,0,1-.35-.08c-.31-.09-.77-.24-.86-.25a1.18,1.18,0,0,0-1,.39l1.34.63-1.47-.41a12.39,12.39,0,0,0-2.11,0c-.26,0-1.52.46-1.54.88a2.59,2.59,0,0,1,1.76,2.19,2.19,2.19,0,0,0-1.68,1.32.64.64,0,0,0,0,.36l-1.25,1.15a2.6,2.6,0,0,0-.53.62,1.4,1.4,0,0,0,.41,1.61,1,1,0,0,0,.21.15,1,1,0,0,0,.31.67A1.2,1.2,0,0,0,453,221c.22-.08.41-.23.63-.32a2.7,2.7,0,0,1,.8-.1c-.05.15-.1.31-.14.47a7.77,7.77,0,0,0-.15,3.49,7.31,7.31,0,0,0,1.62,2.95c.14.17.3.33.45.48.25.31.5.6.76.9a3.08,3.08,0,0,0,.25.27,11.11,11.11,0,0,1,1.21,3.46,3.92,3.92,0,0,0,.86-.91.42.42,0,0,0,0,.06V232c.09.44.16.89.24,1.32a28.75,28.75,0,0,1,.83,4.21c0,.48.07,1.51-.36,1.86-.23.18-.68.13-1,.33s-1,1-.44,1.34c.2.63.87.68,1.44.58a3.13,3.13,0,0,0,1.69-.74,3.19,3.19,0,0,0,.76-2c.08-.89,0-1.8.08-2.7a30.13,30.13,0,0,1,.52-3.66,7.26,7.26,0,0,0-1.55-1.27,2.36,2.36,0,0,1,1.77,1l0,0,.16.23c.1.13.2.27.3.43s.13.19.18.29a13.88,13.88,0,0,1,.92,1.95,4.68,4.68,0,0,1-.6,4.69c-.63.06-1.44.41-1.59,1a.29.29,0,0,0,0,.17c0,1,1.57.85,2.19.78a4.82,4.82,0,0,0,1.41-.32c.79-.38,1.32-1.78,1.54-2.58a6,6,0,0,0,.12-2.58c-.11-.8-.34-1.6-.54-2.44a13.28,13.28,0,0,1-.3-1.65,6.64,6.64,0,0,1-.14-2.69,11.47,11.47,0,0,0,.78,2.73,14.59,14.59,0,0,0,4.42-.29,17.39,17.39,0,0,0,3.51-1.47l1.58-.82.78-.38.37-.17.2-.09h.05l0,0,.53-.21c-.49-.67-1.14-1.76-.89-2.45a4.49,4.49,0,0,0,1.48,2.25h0a14.77,14.77,0,0,1,.84,1.37,8.71,8.71,0,0,1,.75,1.74c.1.31.18.64.25,1,0,.16.06.31.08.47a.77.77,0,0,1,0,.15,1.06,1.06,0,0,1,0,.25,6.31,6.31,0,0,1,0,1.15,5.63,5.63,0,0,1-.15.94c-.08.4-.15.8-.24,1.19a9,9,0,0,1-.31,1.08,10.21,10.21,0,0,1-.65,1.38,2.61,2.61,0,0,1-.17.28l0,0-.12.14h0s0,0,0,0h0l-.27,0a1,1,0,0,0,.25,2,1.44,1.44,0,0,0,.66-.1c1.14-.19,2.37-.59,2.64-1.95a17.2,17.2,0,0,0,.27-2.26,2.28,2.28,0,0,0,0-.26v0c0-.11,0-.21.07-.32l.09-.17a.91.91,0,0,0,.08-.13.63.63,0,0,0,.24-.28,1.71,1.71,0,0,0,.18-.68,3,3,0,0,0-.16-1s0,0,0,0v-.05c0-.09,0-.19,0-.28s0-.33,0-.5c0-.4,0-.81,0-1.21,0-1.3-.12-2.58.78-3.62a8.61,8.61,0,0,0,2.24-4.29,7.36,7.36,0,0,0,.12-1c.83,1.28,1.37,2.76,2.28,4a5.56,5.56,0,0,0,1.86,1.55,8.17,8.17,0,0,0,3.1.83c.55,0,1.1,0,1.65.07a5,5,0,0,1,1.43.39,1.7,1.7,0,0,1,.82.52c.26.33.35.76.67,1.06a2.39,2.39,0,0,0,.33.25,2.93,2.93,0,0,0,2,.39,2.74,2.74,0,0,1-.68-.41Zm-17,4.54a1.11,1.11,0,0,1,.17-.16S483.61,236.85,483.69,236.75Z" transform="translate(-71.45 -82.71)"/><path d="M325.05,391.53h0Z" transform="translate(-71.45 -82.71)"/><path d="M325.29,391.79h0S325.29,391.78,325.29,391.79Z" transform="translate(-71.45 -82.71)"/><path d="M286.54,393.27h0Z" transform="translate(-71.45 -82.71)"/><path d="M316.54,401.51c-2.63-1.69-3.79-4.28-4.16-4.52a2.19,2.19,0,0,0-.5-.23,2.7,2.7,0,0,1,.33,1.41c-.06,1.07,0,2.18,0,3.27s.41,2.65-.32,3.74a2.86,2.86,0,0,1-.46.52v.05a1,1,0,0,0-.17,1.15,1.86,1.86,0,0,0,1.8.61l2-.17c.54,0,1.22,0,1.43-.61.14-.46-.05-.72-.16-1.13a5.05,5.05,0,0,1,0-1.4,7.56,7.56,0,0,1,0-1.26C316.37,402.46,316.45,402,316.54,401.51Z" transform="translate(-71.45 -82.71)"/><path d="M321.69,390.49c-.62-1.54-1.16-3-1.89-4.49a.28.28,0,0,0,0-.13,12.54,12.54,0,0,1-.7-1.54l-.21-.49a9.19,9.19,0,0,0-1.06-1.78,9,9,0,0,0-3-2.64,7.62,7.62,0,0,0-4.08-.66l-.64.09a13,13,0,0,0-1.37.34,15.46,15.46,0,0,0-1.71.66c-.54.13-1.09.28-1.64.39a15.44,15.44,0,0,1-1.92.21,13.76,13.76,0,0,1-2,0l-.69-.07a4.18,4.18,0,0,1-.57,2.27,7.59,7.59,0,0,0,.12-2.3c0-.16,0-.31,0-.47a2,2,0,0,0-1.5-1.47c-.85-.32-1.6-.87-2.47-1.13-2.37-.7-5.22.24-7.64.41a4.12,4.12,0,0,0-2.4.88c-1.32,1.08-1.59,2.55-2,4.06-.07.24-.14.49-.2.72l-.21.41-.24.41-.08.12a2.11,2.11,0,0,0-.18.27,3.36,3.36,0,0,0-.34,1.73,9.2,9.2,0,0,0,.1,1l-.09.44c-.41,2.07-.73,4.16-.95,6.25s-.8,4.5,0,6.64c.66,1.84,2.81,5.08,5.27,4.78a1.31,1.31,0,0,0,1.21-1.34,1.06,1.06,0,0,0-.25-.62v-.05a.59.59,0,0,0-.65-.52.62.62,0,0,0-.57.62l0,.31a5.34,5.34,0,0,1-1.22-.49,5.4,5.4,0,0,1-1.39-1.39c-1.71-2.4-1-5.82.12-8.37.51-1.16,1.44-1.41,2.45-2.12s1.58-1.89,2.56-2.49c.35,1.08.33,2.39.58,3.52a1.64,1.64,0,0,0,.21.61.55.55,0,0,0,.89.12c.25-.31.51-.6.78-.9l.14-.16a18.89,18.89,0,0,1,2.68-2.25,17.11,17.11,0,0,0,2.51-2.31c.44-.5.89-.9,1.29-1.36a4.38,4.38,0,0,1-1.44,2.11c-1.87,1.45-3.25,2.6-4.24,3.43,0,0,0,0,0,0l-.15.12,0,0-.32.27-.17.15-.1.08,0,0a.71.71,0,0,0-.09.07l0,0-.23.2a30,30,0,0,1-.53,4.61,27.49,27.49,0,0,1-.73,2.84,6.3,6.3,0,0,0-.6,2.72c0,.26.1.52.11.79,0,1-.68,1.95-1.06,2.88a.3.3,0,0,0,.12.34,5.2,5.2,0,0,0,2.63.77,3.21,3.21,0,0,0,.76,0c.24-.05.46-.15.7-.22s.64-.09.79-.38a1,1,0,0,0,.09-.54,8.09,8.09,0,0,0-.06-.85,6.75,6.75,0,0,1,1.35-4.64c.73-1,1.26-1.58,1.08-2.88a3.67,3.67,0,0,1,.14-1.61,8,8,0,0,0-1.39-2.17,2.91,2.91,0,0,1,1.58,2.83s0,0,0,0c0,.5,0,1,0,1.51.07,1.76.51,3.46.63,5.21,0,.41,0,.83,0,1.24l0,.08a9,9,0,0,0-1.57,2.68,1.19,1.19,0,0,0,0,.62c.21.75,1.47.57,2.06.59a8.65,8.65,0,0,0,3.17-.22,1.14,1.14,0,0,0,.43-1.53c-.11-.28-.38-.5-.45-.77a5,5,0,0,1,.14-1.37,37,37,0,0,1,.5-4.47c0-.1.05-.21.08-.31l.34-.6a4.22,4.22,0,0,0,.54-1.65c0-.29,0-.59,0-.89a1.12,1.12,0,0,0-.14-.45,1,1,0,0,1,0-.17,5.78,5.78,0,0,1,.29-1l.59-1.76a4.54,4.54,0,0,0,.1,2,9.73,9.73,0,0,0,1.18.42,11.41,11.41,0,0,0,4.08.21c.67-.06,1.36-.11,2-.19.31,0,.63-.11.93-.13h0a1.59,1.59,0,0,1,.68.1,1,1,0,0,1,.39.25,8.13,8.13,0,0,1,.91,1.29c.41.52.82,1,1.24,1.55s1,1.19,1.53,1.77l.37.38.14.13,0,0a5,5,0,0,1,.87,1.09,4.23,4.23,0,0,1,.17,1.33,2.68,2.68,0,0,1-.1,1.59c-.29.44-.73.66-.92,1.21a1.11,1.11,0,0,0,.16,1.1c.47.5,1.43.35,2.05.33a9.51,9.51,0,0,0,2.13-.22,1.13,1.13,0,0,0,.89-.74,1.53,1.53,0,0,0,0-.61,1.14,1.14,0,0,0-.3-.7c0-.37,0-.74-.06-1.11s-.06-1-.08-1.45c0-.23,0-.45,0-.68a2.6,2.6,0,0,1,.05-.62c0-.18.13-.35.18-.52a1,1,0,0,0,0-.57,6.11,6.11,0,0,0-.27-.58c-.09-.16-.15-.33-.23-.51-.32-.78-.78-1.78-1.07-2.58a7.74,7.74,0,0,1-.29-2.71c0-1,.07-1.93.12-2.89s.17-1.84.19-2.76a9.82,9.82,0,0,0,1.65,3,2.58,2.58,0,0,0,.84.63c.35.16.91.27,1.14-.08A5,5,0,0,1,321.69,390.49Z" transform="translate(-71.45 -82.71)"/><path d="M362.34,546.64c0-.13,0-.26,0-.39-.43-3.75-2.91-6.25-6.38-7.44-2.25-.77-4.62-1.07-6.85-1.86a11.66,11.66,0,0,1-1.36-.57c-1.77-.72-2.48-2-2-2.76a1.78,1.78,0,0,0,.11,1,2.77,2.77,0,0,0,1.17,1,1.85,1.85,0,0,0,1,0,2.48,2.48,0,0,0,1-.4,2,2,0,0,0,.55-2.44c-1.17-2.44-4.46-1.16-5.45.69a5.86,5.86,0,0,0-.49,3.76,8.86,8.86,0,0,0,2.64,5.1c1.08,1,2.47,1.46,3.65,2.36a11.71,11.71,0,0,1,3.22,3.57,7.36,7.36,0,0,1,.4,6.79l-.13.27c0-.08.08-.17.11-.25a6.88,6.88,0,0,0,.33-4.42,9,9,0,0,0-1.78-3.5,7.42,7.42,0,0,0-4.79-2.73c-2.15-.26-4.54.54-6.39-.58a10,10,0,0,1-2.23-2.35,4.91,4.91,0,0,0-1.12-1,8.2,8.2,0,0,1-1.74-1.15c-.35-.41-.47-1.62-1.21-1.42a1.67,1.67,0,0,1,.18-.28,6,6,0,0,1,.68-.83.17.17,0,0,0,0-.27l-.5.33.38-.84a.22.22,0,0,0-.16-.09l-.46.64.13-.88a.16.16,0,0,0-.22.11c-.11.52-.3,1-.43,1.54a9.3,9.3,0,0,0-.21,1.75,4.44,4.44,0,0,0,0,.63,10.44,10.44,0,0,0-1.46.83,4.5,4.5,0,0,0-1.58,2.44,9.5,9.5,0,0,0-.25,3.56,1.18,1.18,0,0,0,.47.68,1.35,1.35,0,0,0,.78.28,16.82,16.82,0,0,0,2.13,0s.48-.11,1.15-.33c0,.07,0,.14.05.23-.25.16-.45.28-.61.36.48.46.69,1.39,0,1.45-1.16.09-2.2-.82-3.38-.32a1.32,1.32,0,0,0-.77.71.53.53,0,0,0,.34.64,1.85,1.85,0,0,0,.7.13,1.88,1.88,0,0,0,.33.05,5.54,5.54,0,0,0,.71,0,2.92,2.92,0,0,1,.86.4c.78.48,1.47,1.08,2.21,1.61a11.08,11.08,0,0,0,2.34,1.44,4,4,0,0,0,.46.14c1.22,0,2.87-3.17,2.87-3.17a7,7,0,0,1-1.28,2.48A6.2,6.2,0,0,1,343,553a4.94,4.94,0,0,0-3.92,1.7,7.3,7.3,0,0,0,0,2,7.73,7.73,0,0,0,.29,1.35,5.58,5.58,0,0,0,.71,1.37,4,4,0,0,0,.5.59c.07.08.4.32.34.33a5.39,5.39,0,0,0-1.22.7.81.81,0,0,0,.14.5c.27.38.82.39,1.3.38,2.78-.1,5.58.09,8.35.17a3.31,3.31,0,0,0,1.33-.15,1.13,1.13,0,0,0,.69-.82c1.55-2.11,3.75-3.37,5.88-4.79A10.38,10.38,0,0,0,362.34,546.64Z" transform="translate(-71.45 -82.71)"/><path d="M238.73,263.55h0Z" transform="translate(-71.45 -82.71)"/><path d="M239.71,246c.1-2.09-2.25-3.59-3.9-4.44-3.29-1.72-6.6-1.25-10.12-.77a12.05,12.05,0,0,1-3,.11c-1.07-.12-1.94-.61-3-.33a10,10,0,0,1-2.21.46,1,1,0,0,1-.6-.56,15.88,15.88,0,0,1-2-8c.43.05,1.23.57,1.55.55.9-.06,2.49-.85,2.33-1.94-1.28-.23-2.73.34-4,.22a3,3,0,0,1-.45-.08h0a2,2,0,0,1,.16-.33c.1-.2.22-.38.33-.58s.26-.41.4-.6a2.49,2.49,0,0,1,.68-.57c.28-.17.6-.27.89-.41a4.29,4.29,0,0,0,2.49-2.48,4,4,0,0,0-.09-2.52c-.08-.25-.47-.1-.38.15a2.83,2.83,0,0,1,0,1.23q0,.3-.12.6c0,.09,0,.19-.07.29a1.33,1.33,0,0,0-.09.21h0a1.14,1.14,0,0,1-.18-.25,6.16,6.16,0,0,1-.34-.68.2.2,0,0,0-.38.15c.08.27.17.54.24.81a1.45,1.45,0,0,1,0,.8c-.19.57-.81.8-1.3,1a5.15,5.15,0,0,0-1.32.9,3.07,3.07,0,0,0-.41.48l-.07.07c-.2.27-.38.57-.58.83a3.9,3.9,0,0,0-.36.54l-.14-.13a1,1,0,0,0,.24-.33,2.28,2.28,0,0,0,.11-.9.21.21,0,0,0-.41,0,1.23,1.23,0,0,1-.27.68,1.54,1.54,0,0,1-.26.25,2.14,2.14,0,0,0-.48-.05c-.56,0-1.1-.27-1.66-.24l-.18,0a1.08,1.08,0,0,1-.08-.19,2.47,2.47,0,0,1-.06-.81s0-.07,0-.11a.21.21,0,0,0-.41-.06l0,.14a5.85,5.85,0,0,0,0,.6v0c-.11-.32-.19-.65-.31-1l0-.09a3.42,3.42,0,0,0-.26-.59,5.4,5.4,0,0,0-1-1.25c-.39-.38-.92-.78-.94-1.39a1.64,1.64,0,0,1,.28-.75c.14-.24.31-.47.46-.7a.2.2,0,0,0-.31-.26c-.17.18-.34.38-.53.55a1.14,1.14,0,0,1-.25.18,0,0,0,0,1,0,0h0a.83.83,0,0,0,0-.22c0-.1,0-.2,0-.3a6,6,0,0,1,.06-.61,2.78,2.78,0,0,1,.41-1.16c.15-.22-.17-.48-.32-.26a4,4,0,0,0-.83,2.38,4.3,4.3,0,0,0,1.64,3.11c.24.22.52.41.74.65a2.51,2.51,0,0,1,.47.74c.08.23.14.46.2.7s.11.43.15.64a.61.61,0,0,0,0,.17,3.48,3.48,0,0,1-1.7,0c-.92-.32-1.68-1.11-2.54-1.39a.42.42,0,0,0-.05.42,3.37,3.37,0,0,0,2.07,2.4c.6.18,1.09-.55,1.34,0a8.06,8.06,0,0,0-.06,1,1.41,1.41,0,0,0,.55,1.63l0,.06a4.84,4.84,0,0,1,.41,2.44c0,.16,0,.33,0,.49,0,.66-.26,1.86.71,1.91.38,0,.81.18,1.14-.06a.67.67,0,0,0,.15-.14c0,.65-.1,1.32-.08,1.94a14,14,0,0,0,.63,3.63,6,6,0,0,0,1.3,2.39c.5.52,1.08.78,1.58,1.34a11.71,11.71,0,0,1,1.27,1.27,26.59,26.59,0,0,1-2.68,1.55c-1.05.62-.68,2-.5,3s0,2.09.18,3.12a1.91,1.91,0,0,0,1.18,1.63,5.39,5.39,0,0,0,1.9.41c-.08-.72,0-1.4-.68-1.81a3.13,3.13,0,0,1-.89-.05c-.36-.16-.21-.84-.2-1.13.05-.64-.11-1.26-.11-1.89,0-.34,0-.85,0-1.18s.16-.49.6-.65a19.14,19.14,0,0,1,2.09-.6c.72-.19,1.42-.45,2.15-.58-.39-.89-.77-1.07-.77-1.07s.67.08,1,1.27a1.15,1.15,0,0,1,.07.24,5.89,5.89,0,0,1,.13,1.06c.17,1.93.2,5.12.2,5.54,0,.6-.13,2-.07,3.23,0,.19,0,.39,0,.58a17.91,17.91,0,0,0,.24,2.31,1.87,1.87,0,0,0,1.41-.15,14.64,14.64,0,0,1-.56-2c.1-.88.15-1.79.33-2.66a5.59,5.59,0,0,0,0-1.53,12.83,12.83,0,0,1,.64-3.18c.14-.66.41-1.34.56-2a13.24,13.24,0,0,1,.1-1.53,16,16,0,0,0-.19-2,3.49,3.49,0,0,0,.86,1.47l.4.17a6.55,6.55,0,0,0,.79.22,8,8,0,0,0,1.62.12,15.85,15.85,0,0,0,1.69-.17c.33-.05.66-.11,1-.15a1.54,1.54,0,0,1,.48,0s0,0,0-.05a8.72,8.72,0,0,1-.88-1.69s.35.64.48.84c2.2,3.31,2.28,3.24,5.67,5.48,2,1.32,1.92,3.91,2.1,6.2a12.78,12.78,0,0,0,.41,2.37,4.61,4.61,0,0,0,1.47-.31c-.19-.51-.35-1-.54-1.54a0,0,0,0,1,0,0,3.16,3.16,0,0,1-.11-1.78,10.48,10.48,0,0,0,.06-2,25.26,25.26,0,0,1,0-3.48l-.73-.9c.07.06-.49-.77-.7-1.28a4,4,0,0,1-.22-1.58,2.16,2.16,0,0,1,.12-.88c.24-.59.88-1,1.2-1.61a5.19,5.19,0,0,0,.61-2.1,1.66,1.66,0,0,0,.72.51C240,247.1,239.68,246.66,239.71,246Z" transform="translate(-71.45 -82.71)"/><path d="M230.33,252.39a14.53,14.53,0,0,0,.55,4c-1.14,4-1.62,5.5-1.43,7.18,1.17.19,1.31,0,1.31,0l-.13-1.51s.58-4.76,2.32-5a3.05,3.05,0,0,1,.16-2.26A9.17,9.17,0,0,1,230.33,252.39Z" transform="translate(-71.45 -82.71)"/></svg>