<?xml version="1.0" encoding="utf-8"?>
<!-- Generator: Adobe Illustrator 25.2.3, SVG Export Plug-In . SVG Version: 6.00 Build 0)  -->
<svg version="1.1" id="圖層_1" xmlns="http://www.w3.org/2000/svg" xmlns:xlink="http://www.w3.org/1999/xlink" x="0px" y="0px"
	 viewBox="0 0 460.4 544.5" style="enable-background:new 0 0 460.4 544.5;" xml:space="preserve">
<style type="text/css">
	.st0{fill:#3D3D3D;}
	.st1{fill:#20BDEF;fill-opacity:0.3;}
	.st2{fill:#1297CF;stroke:#FFFFFF;stroke-width:3;stroke-miterlimit:10;}
	.st3{fill:#20BDEF;}
	.st4{fill:#F9B112;stroke:#FFFFFF;stroke-width:3;}
</style>
<path class="st0" d="M75.2,316c-0.4,0.4-0.8,0.8-1.2,1.1c-1.2,0.6-2.6,0.9-3.9,1c-3.9,0.7-7.6,2.3-10.8,4.8
	c-1.8,1.4-3.4,3.1-5.6,3.7c-8.3,2.3-8.8-11.8-10.5-16.9c-2.7-8.1-5.4-16.2-9-24c-7.4-16.5-16.8-32-24.5-48.3
	c-2.9-6.2-5.5-12.5-7.9-18.9c-5.1-13.7,2-29,7.7-39.6c5.8-10.8,11.7-21.7,17.6-32.4c2.9-5.3,5.9-10.6,9.9-14.9
	c5.9-6.2,13.8-9.6,21.1-13.6c11.4-6.2,21.9-12.7,28.9-24.4c2.8-4.6,4.9-9.7,7.9-14.1c4.2-6.1,10-10.8,16.4-14.4
	c3.8-2.2,14.7-7.9,18.9-2c1.3,1.8,0.9,4.3,1.3,6.5c0.6,3,2.8,5.5,4.8,7.8c0.5,0.6,1.1,1.1,1.7,1.6c0.8,0.5,1.6,0.8,2.4,1
	c7.1,2,13.6,4.2,20.6,4.1c4.1-0.1,8.1-0.3,12.2-0.2c4.7,0.1,17.6-2,21.3,2.2c1.2,1.3,3.1,4.5,2.3,6.1c-0.3,0.6-0.8,1-1.4,1.2
	c-8,4.4-16.7,7.4-23.4,13.8c-4.5,4.4-10.8,10.5-9.5,18.3c0.6,4.1,5.1,6.8,8.9,7.5s7.8,0.3,11.5,2c3.3,1.6,6,4.8,7.9,8.2
	c2.7,4.9,4.2,10.9,2.1,15.5c-0.9,1.8-2.1,3.4-3.5,4.7c-3.1,3.3-6.3,6.6-9.4,9.9c-4.7,5-7.7,10-6.2,18.1c0.6,3.3,2.5,6.7,5.4,8.1
	c3.7,1.9,7.6,0.1,11.1-1.3c7.6-3,15.9-4.1,24-3.3c4.7,0.5,9.6,1.6,13.8,4.5c4.5,3.1,13.3,13.3,12.2,19.3c-0.4,2.1-1.5,3.8-2.2,5.7
	c-3.5,9.1,2.7,13,5.7,20.6c2.2,5.6,4.9,15.7,4.2,21.4c-1.4,11.4-19.2,6.9-26.8,5.2c-3.1-0.7-6.3-1.4-9-3.5c-3.1-2.4-5-6.2-6.8-9.9
	c-2.3-4.9-4.5-9.8-6.6-14.7c-0.6-1.3-1.1-2.7-1.4-4.1c-0.2-1.7-0.1-3.5,0.4-5.1c1.5-6.5,13.1-18.9,2.3-24.3c-2.4-1.2-5-0.4-7.3,0.3
	c-11,3.6-17.4,5.2-29.6,0.1c-13.1-5.6-26-11.7-38.8-18.5c-7.7-4.1-27.4-11.2-31.3-20.1c-1.2-2.9-1.4-6.2-0.5-9.3
	c1-3.4,3-6.4,5.8-8.7c4.4-3.7,9.9-5.6,15.3-7.7c2.5-0.8,4.9-2.1,6.9-3.8c3.5-3.3,3.6-9.4-2.6-10.9c-2.1-0.3-4.3-0.2-6.3,0.5
	c-8.6,2.1-17.2,4.5-24.2,9.8c-1.2,0.8-2.2,1.8-3,3c-2.3,3.6-1.5,8.8-1.6,13.5c-0.2,7.6-4.8,21.6-13.1,22.1c-2.4,0.1-4.9-1.2-7.2-2.3
	c-4-1.9-8.6-3.3-12.2-1.5c-3.2,1.6-4.8,5.5-4.9,9.4c-0.3,7.1,3.1,9.5-1,14.9c-3.5,4.8,2.6,10.1,6.3,13c4.1,3.1-2.2,5.1-4.7,4
	c-2-0.9-3.6-2.5-5.6-3.5c-2.8-1.4-5.8-1.5-8.7-1.3c-2.7,0.2-5.7,0.9-6.6,3.5s0.7,5.6,2.7,7.5c4.8,4.6,12,6.4,17.5,9.7l21.9,12.9
	c3.7,2.2,8.7,9.2,8.9,13.7c0.2,4.8-2.6,11-3.6,15.7c-0.1,0.9-0.5,1.7-1,2.4c-2.7,3-8.7,3.8-12.1,6c-2.8,1.8-6,3.2-8.4,5.6
	c-1,1-5.8,8.9-1.2,9.1c0.8-0.1,1.5-0.4,2.1-1c3.2-2.4,8.2-5.3,12.4-5.1C72.2,293.5,80,310.4,75.2,316z"/>
<path class="st1" d="M76.9,239.3c-5.4,2.5-15.6-3.9-20.3-7.2c-1.5-1-3.1-2.7-2.7-4.4c0.2-0.7,0.6-1.2,1.2-1.7c1-0.9,2.1-1.7,3.2-2.4
	c1.8-1.1,3.8-2.1,5.1-3.9c1.9-2.8,0.3-7.1-2-9.8c-1-1.1-2.3-2-2.7-3.4s0.1-2.6,0.3-3.8c1-4.3-2.2-9.5-0.5-13.5
	c1.1-2.1,3.4-3.1,5.7-2.4c0.8,0.2,1.5,0.6,2.2,1c1.4,0.9,2.9,1.7,4.5,2.3c2.6,0.9,5.6-0.5,7.9-1.3c3.5-1.3,6-4.5,10-4.9
	c3.5-0.4,9.8,1.4,11.3,5.1c1,2.5,0.2,7.9-0.6,10.2c-1.5,4.1-3.7,7.8-6.6,11c-1.7,1.7-3.3,3.5-4.8,5.5c-4.1,6.4-4.6,14.9-8.9,21.5
	c-0.5,0.9-1.2,1.7-2.1,2.2C77,239.3,76.9,239.3,76.9,239.3z"/>
<path class="st0" d="M141.9,281.2c-2.1,0-4.1,0-6.2-0.1c-0.8,0-1.7-0.1-2.4-0.5c-3.7-2.2-1.6-9.1-5.4-12c-2.9-2.2-6.8-0.7-9.8-0.3
	c-2.9,0.5-5.8,0.2-8.6-0.8c-3.1-1.3-3.5-3.5-5.4-5.9c-1.9-2.5-4.2-4.8-6.6-6.8c-4-3.4-5.5-9-6.4-14.2c-0.2-1-0.3-2-0.3-3
	c0.1-1.2,0.4-2.4,0.8-3.5c2.6-7.3,6.5-13.3,10.3-19.8c3.1-5.4,5.2-13.5,11.5-15.6c4.6-1.6,10,1.5,14.6,4.3
	c15.9,9.5,34.6,19.6,52,23.7c0.7,0.1,1.3,0.3,1.9,0.7c0.5,0.4,0.9,0.9,1.2,1.4c7.4,11.4,9.3,23.9,10.6,36.7c0.3,2.4,0.4,5-0.7,7
	c-1.3,2.2-4,3-6.5,3.5C171.9,279,157.1,281.2,141.9,281.2z"/>
<path class="st0" d="M119.4,314.8c-3.9,1.5-7.6,3.3-11.8,3.9c-3.5,0.6-7.1,0.1-10.3-1.5c-3.7-1.9-6.5-5.4-9.1-8.8
	c-4-5.4-6.3-11.2-3.6-17.2c2.4-5.4,3.6-8.5,0.9-15c-3.1-7.4,3.4-8.4,9.2-7.3c4.5,0.9,7,3.6,10.4,6.9l5,8.7c4.3,2.8,7.3,5.1,12.1,5.7
	c8.6,1.1,17.5,0.6,25.9,0.5c21.7-0.3,42.8-3.7,64.4-4.1c13.4-0.3,25-4.6,38.5,2.9c3.8,2.1,7.5,4.6,10.9,7.2c0.8,0.6,1.5,1.2,2.1,1.9
	c0.9,1.2,1.6,2.6,2.2,4c3.3,7.9,5.1,24.6-3.4,27.7c-5.9,2.2-12.7,1.8-18.6,4c-2.8,1-5.4,2.7-8.4,3.5c-8.3,2.2-11.4-5.9-18.1-9.2
	c-0.9-0.4-1.8-0.7-2.7-0.8c-24-4.5-47.9-11.4-71.9-14.8c-6-1-12.2-1-18.2,0.1C123,313.5,121.2,314.1,119.4,314.8z"/>
<path class="st0" d="M60.8,359.7c0.1,1.7,0.2,3.5,0.4,5.2c2.2,23.1,8.9,45.5,19.7,66.1c11.7,22.3,27.7,37.8,47.8,51
	c3.9,2.5,8.2,5,12.4,4.6c2.8-0.3,5.2-1.8,7.8-2.6c4.9-1.2,10-0.3,14.1,2.7c6.2,4.3,9.7,11.8,14.4,17.9c12.7,17,33.3,23.6,52.3,27.8
	c2.3,0.4,4.5,1.2,6.5,2.4c4.3,3,7,9.9,11.8,9.7c4.4-0.2,5.2-6.4,5-11.2c-0.2-5.4-0.5-10.8-0.7-16.2c-0.2-4.2-0.5-8.8-2.8-12.5
	c-2.5-4.1-6.7-6.3-10.4-9.1c-6.6-5-11.9-12-18.5-16.8c-9.7-7.1-22-9-31.8-4.9c-4.1,1.7-8.4,4.4-12.9,2.9c-5.2-1.8-7.9-8-10.5-13.3
	c-3.5-7.4-8-14.3-13.1-20.7c-2.9-3.5-6.1-6.9-10.1-8.8s-8.6-2-11.5,0.7c-3.2,3-4.7,9.2-9.2,8.3c-2.2-0.4-3.9-2.5-5.2-4.6
	c-3-4.7-5-11.7-1.1-14.5c2.4-1.7,5.9-0.8,8.8-1.6c4.7-1.3,6.9-7.2,6.1-12.7s-3.6-10.5-6.6-15.4c-1.1-1.8-2.3-3.7-4-4.7
	c-2.3-1.4-4.9-1-7.2-0.1c-4.9,1.9-8.9,5.6-13.3,8.5s-9.8,5-15.1,3.3c-4.9-2.5,5.8-7.2,10.1-8.9s8.9-3.2,11.6-7s2.3-10.9-2.1-13.5
	c-3.6-2.1-7.6-0.2-11.5-0.2c-4.7,0-9.7-3.2-12.2-7.9s-2.4-10.6,0.2-14.4c0.9-1.3,2.1-2.5,2.6-4.2c0.6-2.4-0.8-5.3-2.9-6.8
	c-2-1.4-4.6-1.9-7-1.4c-5.2,1-9,5.6-10.7,11C60.9,351.5,60.5,355.6,60.8,359.7z"/>
<path class="st0" d="M297.2,493.1L295,494c-2.3,1.1-4.7,1.9-7.1,2.5c-6.7,1.2-13.6,0.6-19.9-1.8c-5.7-2.4-10.2-8.5-14.7-12.8
	c-3.4-3.3-7.3-5.8-10.8-8.9s-6.7-7.1-7.6-11.7c-1-4.8,0.8-9.4,2.5-13.6s3.4-8.4,5.1-12.5c3.5-8.5,14.2,0.1,19.5-6.6
	c1.2-1.6,2.5-3.1,3.7-4.7c0.3-0.4,0.7-0.8,1.1-1c0.5-0.2,1-0.2,1.6-0.1l8.4,0.6c2.3,0,4.5,0.6,6.4,1.7c3.6,2.4,4.2,4.8,3.7,8.3
	c-0.5,3.5-1.2,6.4,2.3,8.8c1.9,1.3,4.1,2,5.7,3.7c1.3,1.5,2.1,3.4,2.3,5.4c0.2,1.7,0.2,3.5,1.3,4.8c0.5,0.5,1,1,1.6,1.4
	c9.5,7.3,1,15.1,3.4,23.3c0.5,1.7,1.7,3.3,1.7,5c-0.1,1.1-0.5,2.2-1.2,3C302.1,491.1,299.7,492.1,297.2,493.1z"/>
<path class="st0" d="M100.4,337.8c-0.1,0.5-0.2,0.9-0.2,1.4c0,1.7,0.4,3.3,1.2,4.9c3.9,9.1,11.3,15.8,17,23.6
	c7.8,10.6,15.1,10,25.2,7.7c3.2-0.7,9.2-1.1,12.2,1.7c4.6,4.2-1.7,7.2-5.8,6.9c-1.6-0.1-3.2-0.7-4.8-0.5c-7.4,0.8-2.9,18.6-0.3,23.3
	c0,0,7.5,13.7,7.9,14.5c5.9,10.8,14.6,20.5,23.8,28.3c2.1,2,4.5,3.6,7.1,4.9c9.2,4.2,27.6,2,34.8-3.3c4.1-3.2,7.1-7.6,8.6-12.5
	c1.8-5.1,2.7-11.3,7.2-13.8c1.9-1.1,4.2-1.3,6.1-2.4c6.5-3.8-1.7-11.1-4.9-15c-5.9-7.2-9.9-15.9-11.4-25.1c-0.9-4.6-1-9.3-0.3-13.9
	c0.8-4.5,3.6-7.7,4.4-12.1c1.8-10.3-14.4-13.8-20.8-15.3c-15.5-3.8-31.1-7.5-46.7-10.3c-11.9-2.1-24.1-5.3-35.8-3.8
	C118.1,327.9,102.9,329.8,100.4,337.8z"/>
<path class="st2" d="M355.2,503.6c-9.6,2.6-13.8-7-19.1-15.1c-7.2-10.9-17.8-17.8-21.8-30.2c-1.6-5.1-4.5-11.5-8.4-15
	s-4.7-5.8-7.6-10.9c-2.6-4.5-1.1-15.4-3.8-19.9c-4.5-7.8-7.9-16.1,0.4-16.1c8.3,0,10.6,18,11.6,21.4l9.6,16.7
	c7.5,13.2,12.6,23.8,26.9,29.8c2.2,1.4,5.1,1.1,7.1-0.7c4.7-2.9,9.9-4.9,15.3-5.8c2.8-0.5,5.9-0.5,8.4-1.4c3.3-1.2,3.7-3.4,6.4-5.5
	c2.9-2.2,6.3-3,9.9-3.6c7-1.1,15.8-0.5,20.5-6.6c5.2-6.8,2-17.7,2.4-27c0.3-7.7,3.2-14.6,6.1-21.3c3.7-8.6,5.9-17.5-0.3-26.9
	c-7.5-11.4-21.7-15.4-30-26.1c-2.2-2.8-3.9-6-6.7-8c-1.6-1.2-3.5-2-5.2-3.2c-7.1-4.9-5.1-13.3-10.2-19.2c-2.7-2.9-5.8-5.3-9.3-7.2
	c-1-0.5-2.1-1.4-2-2.5c0.1-0.4,0.2-0.7,0.5-1c1.5-2.2,4.5-5.4,7.2-6.1c4.2-1.2,8.9-0.2,13.3,1.1c11,3.5,22.4-0.7,33.2,3.4
	c0.9,0.3,1.7,0.8,2.4,1.4c0.7,0.8,1.3,1.6,1.8,2.6c6.6,12,10.3,22.4,10.9,35.8c0,3.2,0.2,6.4,0.6,9.6c0.6,3,1.6,5.9,3,8.7
	c6.8,14.2,17.7,25.9,24.7,40c2.5,5.1,6.1,13,6,18.6c-0.1,4.3-3,7.9-4.4,11.6c-2.2,5.7-4.7,11.3-7.7,16.6c-1,2.1-2.3,4-3.8,5.7
	c-1.7,1.8-3.6,3.3-5.7,4.7c-11.5,8.6-20.9,19.6-32.9,27.8c-15,10.3-31.4,18.2-48.7,23.7C355.5,503.5,355.4,503.6,355.2,503.6z"/>
<path class="st3" d="M380.8,429.1c-1.3,1.8-2.9,3.5-4.6,5l-14.3,12.4c-0.7,0.6-1.4,1.2-2.3,1.5c-1.2,0.3-2.4,0.3-3.5,0.1
	c-4.4-0.5-9.1-1.3-12.8-4.7c-7.3-6.6-14-16.4-20.1-24.2c-5.7-7.2-12.7-17-12.6-26c-0.1-3.6,0.2-7.2,1-10.7c1.3-4.6,4.1-8.4,7.2-11.8
	c4.1-4.5,8.2-1.1,13.9-0.3c1,0.2,2,0.6,2.9,1.1c3.6,2.4,5.3,14.4,6.8,18.2c1.7,4.5,5.2,14.7,11.1,15.1c1.5,0,2.9-0.2,4.3-0.7
	c3-0.8,6.1-1.2,9.2-1.2c2.1-0.1,4.2,0.2,6.2,0.9c5.2,2,6.7,7.8,8.3,12.5C383.2,421.5,383.5,425.2,380.8,429.1z"/>
<path class="st2" d="M398.5,395.5l-9.3,2.9c-3.3,1-7.5-0.9-10.9-1.8c-4.4-1.2-8.9-1.6-13.4-1.2c-1.2,0.2-2.4,0.2-3.6,0
	c-4-1.2-5.7-7-7.5-10.5c-2.2-4.2-4.2-8.6-5.8-13.1c-1.7-4.7-4.7-8.9-8.5-12.1c-6.2-5.2-12.3-10.3-20-7.7c-1,0.4-2.1,0.9-3,1.5
	c-4.9,2.8-9.7,5.9-14.3,9.3c-0.9,0.8-2.1,1.4-3.3,1.5c-1.8-0.1-3.3-1.1-4.2-2.6c-3-4.3-3.1-12-7.9-14.9l-6.1-3.7l-6-7.9
	c-3.5-4.6,4.8-15.9,3.9-21.2c-0.5-2.9-2.2-5.6-2.2-8.4c-0.1-8.4,8.5-5,13.4-4.3c2.7,0.3,5.3,1,7.8,2c5.6,2.3,10.8,6.1,16.6,7.5
	c1.8,0.4,3.7,0.6,5.5,0.5c5.5,0,10.9-0.9,16.1-2.7c4.3-1.5,8.8-3.7,13.4-2c11.6,4.3,12.6,22.3,22.1,29.4c1.4,1,3,1.8,4.4,2.9
	c1.8,1.6,3.4,3.4,4.8,5.3c9.6,11.8,28,16.2,31.3,32.8c0.5,1.8,0.5,3.8,0.1,5.6c-0.6,2.1-2.2,3.5-3.7,4.8
	C404.8,390.1,401.7,392.8,398.5,395.5z"/>
<path class="st0" d="M282.3,245.6c-2.1,2-5.7,0.7-8.7,0.5c-14.3-1.1-15.2,28.6-4.4,35.5c5.4,3.5,13.6,1.5,19.3,1.7
	c7.8,0.4,15.5,1.5,23.1,3.3c7.4,1.8,10.5,7.8,18.1,8.4c7.9,0.6,15.3-2.4,21.5-6.6c6-4.1,11.2-9.8,18.5-10.9c6.5-1,13.4,2,20.1,3.8
	c6.2,1.7,12.7,2.5,19.2,2.3c2.5-0.1,5-0.4,7-1.9c2.4-1.8,3.4-5,4.2-8.1c4.7-17.2,7.6-34.3,6.9-52.9c-0.6-16.1-1.8-32.9,7.5-45.4
	c2.5-3.3,5.5-6.1,7.1-10c1.8-4.4,1.6-9.5,1.5-14.5c-0.6-19.7,0.1-39.4,2.1-59c1.5-15,9-35.8-11-42.7c-6.5-2.2-13.3-2.2-19.9-2.4
	c-6.7-0.2-13.5-0.9-19.7-4.3c-13.6-7.6-9.5-26.3-23.4-33.9c-9.9-5.4-20.5,0.8-29.2,6.2c-16.9,10.7-33.1,15-53.5,4.7
	C279.1,14.7,270,8.1,260.4,3c-5-2.6-11.4-4.7-15-0.9c-2.3,2.4-2.5,6.4-1.7,10c2.8,13.3,19.6,12.9,30.8,20.2
	c8.4,5.4,12.4,20.4,20.8,25.9c5.6,3.7,19.9,12.5,18.1,21c-0.7,3.3-3.9,4.9-6.7,6.2c-6.8,3.2-54.2,31.9-32.6,40.8
	c1.8,0.7,3.7,1.1,5.7,1.2c1.5,0.3,3.1,0.3,4.7,0.1c1.5-0.4,3-1,4.3-1.8l9.6-5.3c3.8-2.1,6.3-4.4,10.4-7.9c2.7-3.7,21.6-15,24.1-5.4
	c0.1,6.9-11.1,10.9-15.8,15.1c-6.3,5.6-16.3,7.5-19,16c-1.9,6,0.7,13,3.2,19.3c4.5,11.2,9.8,20.5,15.8,30.9
	c3.6,6.2,14.1,17,11.6,24.5c-0.9,2.3-2.5,4.3-4.5,5.7c-6.4,4.8-14.4,6.5-21.9,9.2c-7.5,2.7-15,6.9-18,14.6c-0.3,1.2-0.9,2.2-1.6,3.2
	L282.3,245.6z"/>
<path class="st1" d="M268.3,90.8c-1.6,0.2-3.1,0.3-4.7,0.2c-12.6-0.4-22.2-9.4-25.9-23.2c-2.5-9.1-1.5-27.3,9.3-28.3
	c3.1-0.3,6.3,0.8,9.3,2c4.2,1.4,8.2,3.5,11.8,6.2c6.9,5.5,12.6,20.1,11.2,28.6c-0.6,3.1-1.9,6-3.6,8.5c-1.3,2.1-2.8,4.1-4.9,5.1
	C269.9,90.4,269.1,90.6,268.3,90.8z"/>
<path class="st0" d="M141.8,56.8c-0.3,1.7-0.2,3.4,0.3,5.1c1.3,4.6,5.6,7.9,9.8,9.2s8.6,1,12.8,0.9c13.9-0.5,28.9,1.2,41.1,10.3
	c1.9,1.3,3.4,3,4.4,5.1c1.2,3.2,0,6.5-1.5,9.2c-3.7,6.6-9.5,11.8-16.4,15c-3.3,1.5-7.5,3.8-6.4,7.8c0.7,2.8,3.7,4.3,6.1,5.7
	c12.7,7.4,19.6,25.6,14.6,38.6c-1.8,4.6-10.2,15.4-5.4,20.5c4.2,4.4,19.8,0,25.2,1.1c7.7,1.6,14.8,7.4,19.5,14.6s7.2,15.6,8.5,24
	c0.5,3.5,1.6,7.9,4.8,8.7c1.3,0.2,2.6,0,3.8-0.6c14-5.8,27.1-13.2,39.3-22.2c2.3-1.7,4.8-3.8,5.1-7c0.3-3.5-2.2-6.9-4.4-9.9
	c-6.3-8.6-11.2-18.2-14.4-28.4c-2.1-6.6-3.7-13.9-8.4-19c-5.4-5.8-13.2-7.2-19.6-11.6c-8.4-5.8-10.3-15.1-11.3-24.5
	c-1.2-12.3-3.7-9.4-11.8-17.2c-12.3-11.6-18.9-30.9-14.2-46.3c1.9-6.1,5.2-11.5,6.8-17.7s0.8-14.2-4.2-19
	c-12.5-11.9-30.8,4-40.4,9.9c-8.6,5.4-17,11.2-25,17.4C153.4,41.9,143.4,47,141.8,56.8z"/>
<path class="st4" d="M392.3,380.7L392.3,380.7c-0.7-0.9-1.8-2.2-3.1-3.7c-2.6-3.1-6-7.6-9.4-12.6c-3.6-5.2-6.7-10.6-9.3-16.3
	c-2.5-5.7-4.2-11.2-4.2-16c0.7-14.3,13-25.4,27.3-24.6c13.3,0.7,23.9,11.3,24.6,24.6c0,4.9-1.6,10.4-4.2,16
	c-2.6,5.7-5.8,11.2-9.3,16.3c-3.4,5-6.8,9.5-9.4,12.6c-1.3,1.6-2.3,2.8-3.1,3.7L392.3,380.7z M381,331.9c0,6.2,5.1,11.3,11.3,11.3
	s11.3-5.1,11.3-11.3s-5.1-11.3-11.3-11.3c0,0,0,0,0,0C386.1,320.6,381,325.7,381,331.9z"/>
<path d="M142.9,230.5c0.3-0.5,0.7-1,1.1-1.5c0,0,0-0.1,0-0.1c0,0,0,0,0,0c-0.7,0.1-1.4,0.4-2,0.9L142.9,230.5z"/>
<path d="M144.6,229.5c-0.3,0-0.6,0.1-0.9,0.3l0,0c0.2,0.1,0.3,0.3,0.5,0.5C144.2,230,144.4,229.8,144.6,229.5
	C144.6,229.5,144.6,229.5,144.6,229.5z"/>
<path d="M147.6,233.8c-0.6-1.2-2.1-1.8-2.9-2.8c-0.2-0.2-0.3-0.4-0.6-0.6c-2.1-1.4-4.9-1.2-6.6,0.6c-1,1.2-2,2.4-2.9,3.7h0.9l-1,0.2
	c-0.5,0.6-1,1.1-1.6,1.5l1.1,0.1c-0.5,0.2-1.1,0.3-1.6,0.3l-0.4,0.2c-2.4,1.1-5.5,0.4-7.7-0.9c-0.7-0.5-1.5-0.8-2.4-1.1
	c-2.6-0.6-5.9,1.4-6.3,4c-0.1,0.7-0.1,1.3,0.1,2c0,1.5-0.1,3.1-0.4,4.6c-0.2,0.6-0.7,1.2-0.8,1.8c0,0.5,0,1,0.1,1.5
	c0,1.3-0.9,3-1.2,4.3c-0.3,0.5-0.5,0.9,0,1.2c0,0.5-0.1,0.9-0.2,1.4c-0.1,0.3-0.1,0.4,0.2,0.6c0.2,0.1,0.4,0.2,0.6,0.2
	c0.5,0,1.5,0.2,1.5-0.5c0-0.5-0.2-1-0.5-1.4c-0.1-0.2-0.3-0.3-0.3-0.5c0-0.3,0-0.5,0.1-0.8c0.1-0.8,0.2-1.6,0.4-2.5
	c0.3-0.9,0.6-1.9,1.1-2.7c0.3-0.6,0.7-1.2,1.1-1.7c-0.1-0.8-0.3-1.6-0.5-2.6c0.4,0.7,0.7,1.4,0.9,2.1l0,0c0,0.2,0.1,0.4,0.1,0.6
	c0,0.3,0,0.6,0,1c0,0.3-0.1,0.7-0.2,1c-0.4,1.1-0.7,1.5-0.1,2.6c0.7,1.4,0.6,3,0.8,4.5c0,0.2,0.2,0.4,0.4,0.4s-0.1,1.2,0.1,1.4
	c0.5,0.3,1,0.4,1.5,0.3c1.3-0.3,0.1-1.8-0.4-2.3c-0.5-0.4-0.9-1-0.9-1.6c0-0.6,0-1.3,0-1.9c0-0.6,0-1.1,0-1.7
	c0.1-0.6,0.4-1.2,0.8-1.7l0.2-0.3c0.4-0.4,1.2-0.7,1.5-1.2c0.5-0.7,0.9-1.5,1.1-2.3l0,0c0.1-0.2,0.1-0.4,0.2-0.5l0,0
	c0.2-0.5,0.5-1.5,0.8-2.5c-0.1,1-0.2,1.9-0.4,2.6l0.7,0.3c1.2,0.7,2.5,1.3,3.8,1.8c1.3,0.3,2.6,0.3,3.8-0.1c1.1-0.3,2.2-0.6,3.2-1.1
	l0.6-0.2c0,0.2,0,0.4,0,0.6c-0.1,0.6-0.5,1.2-0.6,1.9s0.3,1,0.3,1.5c0.2,1.2-0.4,3.1-0.6,4.4c-0.2,0.5-0.3,0.9,0.1,1.2
	c0.1,0.5,0.1,0.9,0,1.4c0,0.3,0,0.5,0.3,0.6c0.2,0.1,0.4,0.1,0.7,0.1c0.5,0,1.3,0.1,1.2-0.6c0-0.4-0.2-0.9-0.5-1.2
	c-0.2-0.2-0.3-0.4-0.4-0.7c0-0.3,0-0.5,0-0.8c0-0.8,0-1.7,0.1-2.5c0.1-1,0.3-1.9,0.7-2.9c0.3-0.8,0.7-1.7,1.2-2.4
	c-0.7-0.3-1.3-0.5-1.9-0.9l0,0h-0.1l0,0l0,0l0,0l0,0l0,0l0,0l0,0l0,0l0,0h-0.1l0,0l-0.2-0.1c-0.1-0.1-0.1-0.1-0.2-0.2
	c-0.3-0.4-0.7-0.6-1.1-0.8l0.5,0.1c0.3,0.1,0.5,0.3,0.7,0.4c1.4,1,3,1.5,4.7,1.5c1.5-0.1,2.2,0.8,2.2,2.2c0,0.8-0.7,1.7-0.5,2.5
	c0.1,0.3,0.3,0.7-0.2,0.8l0,0H142c-0.3,0.1-0.6,0.1-0.9,0c-0.5,0.3-1.1,1.9-0.4,2.2c1,0.4,2.4-0.9,2.8-1.7c0.6-1.2,0.1-2.6,0.4-3.9
	c0.2-1,0.6-2.5-0.5-3.1c-0.7-0.4-1.5-0.8-2.2-1.2c0.3-0.8,0-1.7,0.3-2.7c0.1-0.6,0.6-1.1,0.7-1.6c0.3-1,0.4-2.1,0.4-3.2
	c-0.1-0.5,0-0.9,0.1-1.4c-0.2-0.2-0.3-0.5-0.3-0.8c0.1,0.2,0.2,0.5,0.4,0.7l0,0c0.2,0.1,0.4,0.2,0.6,0.3c1,0.4,1.4-0.1,2.1-0.1
	c0.2,0,0.4,0.1,0.5,0.1c1.1,0.3,1.4,0.2,1.4,0.2S147.7,234.1,147.6,233.8z"/>
<path d="M117.9,236.7c-0.3-0.6-0.7-1-1.3-1.3c-0.6-0.4-1.2-0.6-1.9-0.9c-1.8-0.5-3.7,0.1-4.8,1.5c-1.2,1.4-1.5,3.3-2.3,5
	c-0.5,1.1-1.3,2.1-2.4,2.7c-0.8,0.4-1.7,0.7-2.6,0.8c0,0.2,0.1,0.3,0.2,0.4c1.5,0.8,3.3,1.1,5,0.6c0.9-0.5,1.7-1.2,2.4-2
	c-0.4,0.7-0.9,1.3-1.4,1.9c1-0.1,1.9-0.6,2.5-1.3c0.8-0.7,1.4-1.6,1.7-2.5c0.4-1.5-0.3-3.9,1.1-5c0.8-0.6,2-0.6,2.7,0.2
	c0.1,0.1,0.1,0.1,0.2,0.1c0,0,0,0,0,0.1C117.2,237.4,118.1,237.2,117.9,236.7z"/>
<path d="M234.9,148.8"/>
<path d="M266.6,165.8c0-0.1,0-0.1-0.1-0.2c-0.2-0.4-0.5-0.7-0.8-1c-0.6-1-0.9-2.1-1.1-3.2c-1.1,0.2-2.1,0.5-3.2,1v0.1
	c0.1,0.2,0.2,0.5,0.3,0.7c0.6,0.9,1.4,1.6,1.9,2.4c0.4,1,0.6,2.1,0.4,3.1c0,0.5-0.1,1-0.1,1.5s0.2,1.1,0.1,1.6
	c0,0.5-0.1,1.1-0.3,1.6c-0.1,0.3-0.2,0.6-0.3,0.9c0,0.1-0.3,0.5-0.2,0.7c0.1,0.3,1.6,0.1,1.8,0c0.5-0.3,0.1-1.5,0.2-2
	c0-0.2,0.1-0.5,0.1-0.7c0.1-0.8,0-1.6,0.1-2.4c0.1-0.7,0.3-1.4,0.5-2.1C266.2,167.1,266.7,166.3,266.6,165.8z"/>
<path d="M272.1,162.4c-0.5-0.3-0.8-0.7-0.9-1.3c-0.2-0.6-0.2-1.2-0.4-1.8c-0.2-0.7-0.5-1.3-1-1.8c-1.1-0.9-2.2-1.7-3.3-2.5
	c-0.2-0.2-0.3-0.5-0.5-0.7c-0.9-1.2-2.3-1.5-3.1-2.9c-1.3-2.4-3.8-5.6-6.6-5.9c-2.9-0.3-3.7,2.8-5.2,4.5c-1.2,1.4-3.6,1.4-4.7,2.9
	c-0.2,0.3-0.4,0.6-0.6,0.9c-0.6,0.5-1.4-0.3-1.8-0.6c-0.5-0.4-0.9-0.9-1.2-1.5c-0.4-0.7-0.6-1.4-1-2.1c-0.2-0.4-0.5-0.9-0.7-1.2
	c-0.1-0.2-0.3-0.4-0.4-0.6s-0.3-0.4-0.5-0.4s-0.5-0.1-0.6-0.1c0.2,0,0.4,0,0.6,0c0.5,0,1-0.3,1.3-0.6c0.1-0.2,0-0.4-0.3-0.5
	c-1-0.4-2.1-0.5-3.2-0.3c-0.5,0.1-1.1,0.3-1.5,0.6c-0.5,0.4-1.1,0.6-1.7,0.7c-0.7,0.2-2.3,0.6-2.5,1.4c-0.1,0.4,0.1,0.8,0.4,1
	c0.1,0.4,0.4,0.6,0.8,0.6c0.4-0.1,0.9-0.1,1.3-0.2h0.2c0.2,0.1,0.5,0.3,0.7,0.5c0.8,0.7,2,1.2,2.9,0.6c0.3,1.5,0.9,3,1.6,4.4
	c0.3,0.5,0.6,1,1,1.5c0.3,0.4,0.7,0.8,1.1,1.1c0.9,0.6,1.8,0.9,2.8,1.1c0.7,0.2,1.4,0.2,2.1,0.1l0.4,0.4l0.3,0.3
	c0.1,1.2,0.2,2.4,0.5,3.6c0.3,1.2,0.4,2.4,0.5,3.6c0,0.1,0,0.2,0,0.3s0,0.3,0,0.4v0.3c0,0.1,0,0.2,0.1,0.3c0,0.2,0.1,0.4,0.1,0.6
	c0.1,1,0.2,2,0.1,3c0,0.5,0,1.1-0.1,1.6c-0.1,0.4-0.5,0.8-0.5,1.3s2,0.5,2.2,0.1c0.1-0.4,0.2-0.8,0.1-1.1c-0.2-0.7-0.2-1.4-0.2-2.1
	c0-0.8,0.1-1.6,0.3-2.4c0-0.1,0-0.2,0-0.3c0,0,0-0.1,0-0.1l0,0v-0.1c0-0.1,0-0.2,0-0.3v-0.1c0-0.1,0-0.1,0-0.2
	c0-0.2-0.1-0.3-0.1-0.5c-0.1-0.4-0.2-0.9-0.3-1.3c-0.1-0.5,0-1,0-1.4c0.1-0.5,0.2-0.9,0.3-1.4c-0.1-0.3-0.3-0.6-0.5-0.9
	c-0.4-0.6-1.1-1.5-1.1-1.5c0.6,0.3,1,0.8,1.3,1.4c0.1,0.3,0.3,0.6,0.4,0.9l0,0c0.1,0.3,0.2,0.6,0.3,0.9l0,0l0,0
	c0.3,0.7,0.5,1.5,0.7,2.3c0.1,0.6-0.1,1,0,1.6s0.6,1.1,0.8,1.7c0.1,0.6,0.2,1.1,0.2,1.7c0.1,0.7,0.1,1.4,0,2.1
	c-0.1,0.5-0.3,0.9-0.5,1.4c-0.2,0.5-0.2,0.8,0.4,0.8h-0.1c0.2,0.1,0.5,0.1,0.7,0.1c0.7,0,0.8-0.6,0.8-1.2c0,0,0-0.1,0-0.1
	c0-0.3,0-0.6,0-0.9c0-0.6,0-1.3,0-1.9c0.1-1.2,0.6-2.2,0.2-3.4c-0.3-1.3-0.4-2.6-0.2-3.9c0-0.4,0.1-0.9,0.1-1.3l0,0
	c0-0.4,0.1-0.9,0.1-1.3l0,0c0-0.7,0.1-1.3,0.1-1.3c0.1,0.6,0.3,1.1,0.3,1.3h0.2c0.4,0,0.8,0.1,1.2,0.3c0.8,0.3,1.6,0.6,2.4,0.7
	c1.4-0.1,2.8-0.4,4-1.1c0.6-0.2,1.1-0.4,1.8-0.4c0.5,0.8,1,1.5,1.4,2.4c0.6,0.9,1.6,1.6,2.2,2.4c0.5,1,0.6,2.1,0.4,3.1
	c0,0.5-0.2,1-0.2,1.5c0.1,0.5,0.1,1.1,0.1,1.7c0,0.5-0.2,1.1-0.3,1.6c-0.1,0.2-0.8,1.5-0.5,1.6c0.1,0,0.1,0,0.2,0
	c0.5,0,1.9,0.2,2-0.5s-0.2-1.1,0-1.6c0-0.2,0.1-0.5,0.1-0.7c0.2-0.8,0-1.6,0.2-2.4c0.1-0.7,0.3-1.4,0.5-2.1c0.2-0.5,0.8-1.3,0.7-1.9
	c0-0.1,0-0.1,0-0.2c-0.2-0.4-0.6-0.7-0.9-1c-0.7-1.1-1.2-2.4-1.4-3.7c-0.2-1.1-0.5-2.2-0.9-3.3c-0.2-0.4-0.4-0.7-0.5-1.1l0.3,0.2
	c0.4,0.3,0.7,0.6,1.1,0.9c0.2,0.2,0.5,0.5,0.6,0.8l0.2,0.3c0.3,0.6,0.6,1.1,0.8,1.7l0.2,0.4c0,0.1,0,0.1,0.1,0.2l0,0
	c0.1,0.3,0.2,0.5,0.4,0.8c0.1,0.2,0.3,0.5,0.4,0.7l0,0l0.1,0.1l0.1,0.1l0.1,0.1h0.1h0.1c0,0,0.1-0.1,0.1-0.1
	C272.2,162.9,272.3,162.6,272.1,162.4z"/>
<path d="M456.1,417.3c-0.2-0.6-0.9-0.7-1.4-1.2c-0.2-0.2-0.3-1.5-0.5-1.9c-1.2-2.5-3.6-4.3-6.4-4.7c-3.7-0.6-5-1.2-8.8-0.8
	c0,0-1.4,0.2-2.4,0.4c0.6-0.4,1.2-0.6,1.8-0.9l-0.2-0.3c-0.7-0.7-1.5-1.1-2.5-1.2c-1.4-0.3-2.8-0.3-4.1-0.2c-0.4,0-0.8,0-1.1,0
	c-0.5,0.2-0.7,0.5,0,0.7c1,0.2,1.9,0.7,2.7,1.5c0.2,0.2,0.4,0.5,0.4,0.8c0,0.4-0.4,0.5-0.7,0.6c-1.8,0.7-3.5,1.7-5,2.9
	c-4.4,3.7-6.7,9.4-6,15.1c0.2,0.9,0.4,1.8,0.8,2.6c-0.4-0.5-0.7-0.9-1-1.4c-0.9,0.4-1.8,0.9-2.5,1.6c-0.8,0.8-1.5,1.8-1.9,2.9
	c-0.1,0.3-0.1,1.6,0.4,1.7c0.3,0.1,1.4-1.1,1.7-1.3l0,0c1.4-0.8,3-1,4.6-0.6c0.6,0.2,1.1,0.9,1.7,0.5c1.5-1-0.7-3.9-1.5-4.5
	c-0.4-0.3,1-2.3,1.2-2.6c0.6-1,1.4-2,2.2-2.9c3-3,6.9-4.9,11.1-5.4c0.2-0.6,0.4-1.1,0.7-1.6c-0.1,0.5-0.2,1.1-0.2,1.6v0.1
	c-0.1,0.9-0.1,1.8,0.1,2.7c1.2,1.2,3.7-2.2,3.7-3.3c0-0.4,2.7-0.6,3-0.6c3.1-0.1,6.2,0.1,9.3,0.6c0.2,0.1,0.4,0.1,0.6,0
	C456.4,418.1,456.3,417.6,456.1,417.3z"/>
<path d="M46.6,150.9c-1.3,2.2-3.2,3.9-5.5,4.9c-0.5,0.3-0.8,0.8-0.9,1.4c0,0.9,0.3,1.7,0.3,2.5s-0.5,1.8-0.2,2.6
	c0.2,0.7,0.9,1.1,1.6,1c0.4-0.1,0.8-0.3,1-0.7c0.2-0.6-0.6-0.7-0.8-1.2c-0.5-1.4,0.5-3.4,1.2-4.6c0.8-1.4,2.7-2.2,3.8-3.5
	c0.8-0.9,1.4-1.9,1.9-3c-0.7-0.6-1.7-0.5-2.3,0.2C46.7,150.7,46.6,150.8,46.6,150.9z"/>
<path d="M70.1,131.5c0,0-0.6,0.9-0.5,1.1c0.3,0.2,0.7,0.3,1,0.3c0.1-0.4,0.3-0.9,0.6-1.3c0.2-0.3,0.2-0.7,0.1-1
	c-0.2-0.6-0.5,0.2-0.7,0.4C70.4,131.2,70.3,131.3,70.1,131.5L70.1,131.5z"/>
<path d="M58.8,154.6l0.1-0.2c-0.1-0.5-0.2-1.1-0.3-1.6c-0.4,0-1.2,0-1.8-0.1l0.1,0.5c0.1,0.4,0.1,0.8,0,1.1c-0.1,0.3-0.2,0.7-0.3,1
	c-0.3,0.7,0,1.2,0,1.9s-0.2,1.4-0.3,2.1s-0.2,1.2-0.2,1.9c-0.1,0.5-0.1,1,0.1,1.4c0.1,0.2,0.3,0.3,0.6,0.3c0.4,0.1,0.8,0.1,1.3,0
	l0.1-0.1l0,0c0.3,0,0.5-0.3,0.5-0.6c0-0.4-0.4-0.6-0.6-0.9s-0.5-0.4-0.5-0.7c0-0.5,0.1-0.9,0.3-1.4
	C58.1,157.6,58.4,156.1,58.8,154.6z"/>
<path d="M76.2,137.1c0-0.1-0.1-0.1-0.1-0.2c-0.3-0.2-0.6-0.3-1-0.4c-0.7-0.3-1.4-0.6-2-1.1c0.1,0,0.1-0.7,0.1-0.8
	c-0.2-0.9-2.3-1.5-3-1.6c-0.3-0.1-0.7-0.2-1-0.2c0.2-0.5,0.4-1,0.7-1.5c0.2-0.4,0.3-0.8,0.2-1.2c-0.2-0.6-0.5,0.1-0.7,0.3
	c-0.5,0.6-1.3,1-1.8,1.6c-0.2,0.3-0.4,0.5-0.6,0.8c-0.7,0.3-1.4,0.7-2,1.2c-1,0.6-1.9,1.2-2.7,2c-0.8,0.9-1.7,1.8-2.6,2.7
	c-0.7,0.6-1.6,0.9-2.5,1c-1-0.1-2,0.1-2.9,0.5c-1.9,1.1-4.1,1.7-6.4,1.7c-2.8,0.1-5.4,1.2-7.3,3.2c-0.4-0.2-0.8-0.2-1.3-0.2
	c-0.3,0-0.6,0.2-0.7,0.5c0,0.3,0.2,0.6,0.5,0.7c0.1,0,0.1,0,0.2,0c0.3,0,0.6,0,0.8,0.1c0,0.1,0,0.1,0,0.2c0,2-0.4,4-1.3,5.9
	c-0.4,1-1,1.9-1.7,2.6c-0.6,0.6-2,1.1-2.2,2s0,1.7-0.1,2.5s-0.9,1.6-0.7,2.6c0.1,0.7,0.8,1.2,1.5,1.2c0.5,0,0.9-0.2,1.2-0.5
	c0.3-0.6-0.6-0.8-0.7-1.4c-0.3-1.5,1.1-3.2,2-4.3c1.1-1.3,3.3-1.8,4.6-2.8c1.7-1.4,2.8-3.1,4.3-4.6c0.4-0.4,3.5,1.2,3.9,1.3
	c1.5,0.6,3,1,4.6,1.2c0.9,0.1,1.9,0.1,2.8,0c0-0.7,0.2-1.4,0.4-2c0,0-0.1,1-0.1,2c0,0.5,0.1,0.9,0.2,1.4c0.1,0.4,0.1,0.8,0,1.1
	c-0.1,0.3-0.2,0.7-0.4,1c-0.3,0.7,0,1.2-0.1,1.9c-0.1,0.7-0.2,1.5-0.4,2.2c-0.1,0.6-0.2,1.3-0.2,1.9c0,0.4-0.2,1.1,0.1,1.4
	c0.2,0.2,0.4,0.3,0.7,0.4c0.5,0.1,1,0.1,1.5-0.1c0.1,0,0.1,0,0.1-0.1l0,0c0.3,0,0.6-0.2,0.6-0.6c0,0,0,0,0,0c0-0.4-0.5-0.7-0.7-0.9
	s-0.6-0.4-0.6-0.8c0-0.5,0.1-1,0.3-1.4c0.4-1.5,0.9-3.1,1.3-4.6c0.2-0.8,0.5-1.6,0.8-2.4c0.5-0.9,0.9-1.8,1.3-2.8
	c0.1-0.2,0.1-0.4,0.2-0.6c1.2-1.8,1.3-4,2-6c0.2-0.6,0.4-1.2,0.7-1.7c0.4-0.8,0.9-1.5,1.5-2.1c0.9-0.8,1.6-0.6,2.7-0.4
	c0.8,0.2,1.6,0.2,2.4,0.2c0.2,0,0.4,0,0.6-0.1c0.1,0,0.3-0.1,0.4-0.3c0.1-0.1,0-0.4,0.1-0.4s0.4-0.1,0.5-0.1
	c0.8-0.2,1.3-0.4,1.5-1.2C76.2,137.3,76.2,137.2,76.2,137.1z"/>
<path d="M144.9,452.3c0.1-1.1,0.4-2.3,0.9-3.3c1-1.9,1.7-3.8,1.1-5.9c-0.3-1-0.6-1.9-0.7-2.9c0-0.4-0.3-0.7-0.8-0.7
	c-0.3,0-0.5,0.1-0.6,0.4c-0.9,1.7-1.5,3.6-1.6,5.5c0,0.3-0.5,3.9-0.7,5C143.5,450.8,144.3,451.5,144.9,452.3z"/>
<path d="M146.7,455.7l-0.1-0.3c-0.2-0.5-0.5-1-0.8-1.5l-0.2-0.2c-0.1-0.2-0.4-0.4-0.5-0.6c-0.7-0.9-1.6-1.7-2.6-2.4l0,0
	c-0.9-1-1.6-2.2-2-3.5c-0.5-1.6-1.2-3.2-2.1-4.7c-0.5-0.8-1.2-1.5-2-2.1c-0.4-0.2-0.8-0.1-1,0.3c0,0.1-0.1,0.1-0.1,0.2
	c-0.2,0.8-0.2,1.7,0,2.6c0.1,0.9-0.1,1.8,0,2.7c0.1,0.9,0.6,1.8,1.3,2.4c0.6,0.6,1.3,1,1.9,1.6c0.4,0.3,0.7,0.7,1.1,1.1
	c-0.1-0.1-0.2,0-0.3,0.2c-0.3,0.2-0.6,0.5-0.8,0.7c-0.2,0.3-0.4,0.6-0.6,0.9c-0.3,0.7-0.5,1.4-0.6,2.2c-0.7,0.2-1.5-0.5-2.1-0.8
	c-1.9-1.1-3.9-1.9-6-2.3c-2.2-0.4-4.4-0.1-6.4,0.8c-3.7,1.9-4.5,6-4.7,9.8c-0.8,0.1-0.8-1.4-0.7-2.2c-1.9,0.8-3,2.8-2.7,4.9
	c0.1,0.4,0.3,0.8,0.6,1.2c0,0.9,0.4,1.7,1.2,2.2c0.3,0.2,0.7,0.3,1.1,0.2c0,0.1,0.1,0.1,0.1,0.1c0.3,0.3,0.6,0.4,1,0.4
	c0.5,0,1-0.2,1.3-0.6c0,0.7,0.6,1.4,1.3,1.5c1.1,0.3,2.3,0.5,3.5,0.4c1.6,0,5.5,0.4,6.4-1.3c0.1-0.2,0.2-0.5,0.2-0.8
	c-0.2-1.2-3.1-0.1-3.1-0.1c2.1-1.5,3.6-0.6,3.6,0c0.4,0,0.8-0.1,1.2-0.2c-0.4-1,0-3.3,1.3-3.6c-0.8,1-1.1,2.3-0.9,3.5l0,0
	c0,0,0.1,0.9,0.2,1c0.3,0.4,0.8,0.7,1.3,0.8c1.5,0.5,3.2,0.7,4.8,0.8c0.7,0.1,1.4,0,2-0.3c0.4-0.3,0.6-0.8,0.3-1.2
	c-0.1-0.1-0.1-0.2-0.2-0.3c-0.4-0.3-0.9-0.6-1.4-0.7c-0.4-0.2-0.9-0.3-1.3-0.5H139l-0.3-0.2c0.8-0.5,1.6-1.1,2.3-1.8
	c0.3-0.3,0.6-0.6,0.9-0.9c1-1.1,1.7-2.3,2.1-3.7c-0.1-0.2,0-0.5,0.2-0.6c0,0,0.1,0,0.1,0c0.1,0,0.3,0,0.4,0c0.2,0,0.5,0,0.7,0
	c0.3,0,0.6-0.1,0.9-0.2C148.1,459.6,147.2,457,146.7,455.7z"/>
<path d="M142,466.8c-0.3-0.1-0.6-0.3-0.9-0.4c-0.5,0.6-1.2,1-1.9,1.2c0.4,0.2,0.9,0.3,1.4,0.4c0.6,0.1,1.1,0.4,1.6,0.7
	c0.3,0.3,0.8,0.3,1,0c0.2-0.2,0.3-0.6,0.1-0.9C143.1,467.4,142.6,467,142,466.8z"/>
<path d="M212.9,411.3L212.9,411.3z"/>
<path d="M218.4,406.8c-0.1-0.6-0.3-1.1-0.4-1.7c0,0-0.1,0-0.1,0.1c-0.1,0.3-0.2,0.5-0.2,0.8c-0.1,0.3-0.3,0.6-0.6,0.8
	c-0.5,0.4-1.1,0.5-1.7,0.4c0-0.1,0-0.1,0-0.2c-0.6-2.1-2.9-3.1-3.4-5.2c-0.5-0.1-1-0.2-1.5-0.4c0.5,0.1,1,0.1,1.5,0l0,0
	c0.3,0,0.6,0,0.9-0.1c0.8-0.1,1.5-0.4,2.1-0.9c0-0.2-0.2-0.3-0.4-0.4c-0.4-0.1-0.9-0.1-1.3-0.2c-0.4-0.1-0.7-0.2-1-0.4
	c-0.6-0.3-1.3-0.5-2-0.5c-0.3,0-0.5,0-0.8,0c0,0,0-0.1,0-0.1c0-0.1,0-0.2-0.1-0.3c-0.3-0.9-2-1.2-2.8-1.5c-2-0.9-4-2.7-6.3-1.8
	c-1.7,0.8-3.4,1.4-5.2,1.7c-1.7,0.1-3.4,0.1-5.1-0.1c0.3,0.5,0.7,1,1.1,1.4c-0.9-0.1-2.1-1.7-2.1-1.7c-0.6-0.4-1.1-1.1-1.8-1.4
	c-0.9-0.5-1.9-0.8-3-0.8c-2.6-0.1-4.2,1.9-6.6,2.3c-0.6,0.1-1.2,0.3-1.7,0.6c-1.1,0.5-2,1.2-2.8,2.1c-0.4,0.5-0.8,1-1.2,1.4
	c-0.9,0.8-1.5,1.7-2,2.8c-0.3,0.9-0.2,2.7,1.2,2.2l0.2-0.1c0.1,0.8,0.4,1.5,0.7,2.1c0.6,0.9,1.2,1.7,1.8,2.5
	c0.3,0.3,0.4,0.7,0.5,1.1c0.1,0.6,0.1,1.2,0,1.8c-0.1,0.5-0.1,1-0.1,1.5c0.1,0.5,0.3,1,0.7,1.3c0.3,0.3,0.6,0.5,0.9,0.8l0.1,0.1
	c0,0,0,0.1,0,0.1v0.1c0,0,0,0.1,0,0.1c-0.1,0.6,0.3,1,0.9,1.1c0.8,0.1,1.7,0.2,2.5,0.1h0.1c0.6,0.1,1.2,0.1,1.8,0.1
	c0.4,0,0.9,0,1.3-0.2c1.1-0.7-0.1-2.1-0.8-2.6c-0.2-0.2-0.5-0.4-0.7-0.5c-0.2-0.1-0.3-0.3-0.4-0.4c-0.2-0.4-0.4-0.8-0.4-1.2
	c-0.1-0.5-0.1-1-0.1-1.5l0,0c0-0.3-0.1-0.7-0.1-1.1c0.9-0.4,1.6-1,2.2-1.7l0,0l-1.5,2l-0.1,1c1.6,0.5,3.2,1,4.8,1.3
	c3.4,0.7,6.9,0.8,10.3,0.3c0.1,0,1.9-0.4,2.6-0.6h0.1c0.6-0.2,0.3-0.7,0.5-1.4c0.4,1.5-0.2,4.2-0.6,5.6c0,0.2,0.1,0.4,0.2,0.5
	c0.2,0.2,0.6,0.4,0.9,0.4c1,0.1,2.1,0.2,3.1,0.2c0.7,0,1.9,0.1,2.2-0.7c0.1-0.4,0-0.8-0.2-1.2c-0.2-0.3-0.5-0.5-0.8-0.7l-0.2-0.2
	l0-0.1l0-0.1l0,0l0,0v-0.1c0-0.1,0-0.2,0-0.3c0-0.5,0-0.9,0.2-1.4c0.2-0.6,0.4-1.1,0.5-1.7s0.3-1.2,0.4-1.8c0,0,0-0.1,0-0.1
	c0.5-0.4,1-0.9,1.4-1.4c-0.4-0.7-0.6-1.5-0.5-2.3c0,1.3,0.8,2.4,1.9,3c0.3,0.1,0.5,0.2,0.8,0.2c0.7,0.1,1.5,0.1,2.2,0v0.1
	c0,0.9,0.8,1.5,1.5,1.9c0.6,0.2,1.2,0.4,1.9,0.4l0,0l0,0c1-0.1,1.8-0.7,2.3-1.5c0.2-0.3,0.3-0.6,0.3-1
	C217.6,409.3,218.5,408.1,218.4,406.8z"/>
<path d="M198.4,413.9c-0.5,0.2-1,0.3-1.5,0.3c0,0.3,0,0.5,0,0.8c-0.1,0.3-0.2,0.7-0.3,1c-0.1,0.3-0.1,0.7,0.2,1
	c0.2,0.2,0.5,0.3,0.8,0.4l0.6,0.1C198.3,416.2,198.4,415,198.4,413.9z"/>
<path d="M333.2,327.2c0-0.1,0-0.2,0-0.2v-0.1v-0.1c0-0.1,0-0.2,0.1-0.2c0-0.1,0.1-0.2,0.1-0.2l0-0.1c0,0,0-0.1,0-0.1s0-0.1,0-0.1
	c0.1,0,0.1-0.1,0.2-0.1l0-0.1v-0.1l0,0l0,0l0.1-0.2c0-0.1,0.1-0.1,0.1-0.2c0,0,0,0,0-0.1l0,0l0,0l0,0c-0.1,0-0.1,0-0.2,0l-0.3,0.2
	l-0.2,0.1l0,0H333h-0.1c-0.2,0.1-0.5,0.1-0.7,0.1c-0.2,0-0.4-0.1-0.5-0.1l-0.1,0v0.2c-0.2,0.2-0.3,0.5-0.2,0.7
	c0.1,0.9-0.6,1.7-1.1,2.4c-0.2,0.3-0.4,0.6-0.6,0.9c-0.2,0.4-0.1,0.8,0.2,1.1c0.4,0.3,1.5-0.7,1.7-1c0.6-0.6,1.2-1.3,1.7-2l0,0
	C333.2,327.7,333.1,327.4,333.2,327.2z"/>
<path d="M364.2,341c0-0.3-0.1-0.7-0.2-1c-0.2-0.6-0.7-1-1.2-1.1c-0.2,0.5-0.4,0.9-0.6,1.4c-0.4,0.6-0.9,1.1-1.6,1.3
	c-0.2,0-0.4-0.2-0.5-0.1s-0.2,0.5-0.3,0.6c-0.2,0.5-0.5,1-0.7,1.4c-0.4,0.7-1,1.7-1.8,1.9c0.7-1.1,1.4-2.2,1.9-3.4
	c0.3-0.7,0.5-1.4,0.6-2.1c-0.1,0-0.1-0.1-0.1-0.1c-0.9-0.9-2-1.6-3.2-2c-1.2-0.5-2.6-0.8-3.9-0.9c-1.5,0-3.1,0-4.6,0.1h-0.1
	c-0.4,0-0.8,0-1.2,0.1c3.8-1.2,5.8-0.4,5.8-0.4c-0.1-0.5-0.5-1-1.1-1.2c-1.5-0.5-3.2-0.6-4.8-0.3c-1.5,0.2-2.9,0.7-4.3,1.4
	c-1.4,0.8-2.7,1.9-3.8,3.1c-0.2,0.2-0.4,0.4-0.6,0.6c0.1-0.2,0.1-0.4,0.2-0.5s0,0,0,0s0.1-0.1,0.1-0.2l0.2-0.5
	c0.6-1.2,1.5-2.2,2.3-3.4c1.6-2.4,2.8-5.3,2.3-8.3c-0.5-2.7-2.3-5-4.9-6.1c-2.5-0.9-5.2,0.3-6.2,2.8c-0.1,0.3-0.2,0.7-0.3,1l0.2,0.1
	c0.1,0,0.3,0.1,0.5,0.1c0.2,0,0.4,0,0.6,0h0.1l0,0l0,0l0.2-0.1l0.4-0.2c0.1,0,0.2,0,0.2-0.1c0.1,0,0.1,0,0.2,0h0l0,0l0,0l0,0l0,0
	l0,0l0,0l0,0c0,0,0,0.1,0,0.1c0,0.1-0.1,0.2-0.1,0.2l-0.1,0.2c0,0.1-0.1,0.1-0.1,0.2l-0.1,0.1v0.1l0,0.1c0,0,0,0.1,0,0.1
	c0,0.1-0.1,0.1-0.1,0.2l-0.1,0.2v0.1v0.1c0,0.1,0,0.2,0,0.2c0,0.1,0,0.2,0,0.3c0.9-0.1,1.8-0.4,2.6-0.9c0.4-0.3,0.8-0.6,1.2-1
	c0.2-0.3,0.8-0.8,0.8-1.2l0,0c0.2,0.2,0.5,0.4,0.7,0.6l0,0c0.8,0.8,1.3,1.9,1.5,3c0.2,1.6-0.2,3.1-1,4.5c-0.6,1.1-1.3,2.2-2.1,3.2
	c-1.6,2.2-2.6,4.8-2.7,7.5c-0.2,1.6,0.1,3.2,0.7,4.6c1.2,2.4,4.4,4.1,6.9,5c2.7,1,5.4,0.6,8.2,0.2c4.7-0.6,10.5-2.3,13.1-6.6
	C364,344.6,364.4,342.8,364.2,341z"/>
<path d="M345,60.1c0,0,0-2.8-0.7-3.6c0,0.4-0.3,0.7-0.6,0.8c0.1-0.9,0.1-1.8,0.1-2.8c-0.1-0.4-0.1-0.8-0.3-1.1
	c-0.1-0.1-0.2-0.3-0.2-0.5l-0.6,1c0.4-1.7-1.2-4.4-1.2-4.4l-0.3,1.4c0.3-1.2-0.8-2.6-1.5-3.5s-1.8-2.2-3-1.5
	c0.6,0.7,1.1,1.6,1.2,2.5c0.3,1.4-0.2,2.6-0.5,3.9c-0.8,2.8-1,5.8-0.6,8.8c0.4,2,1.4,3.8,2.9,5.1c0.8,0.9,1.5,2,2,3.1l0.7,0.2
	c0,0,0.1-0.2-0.2-1c-0.5-1-1-2.1-1.3-3.2C340.9,62.9,344.2,60.9,345,60.1z"/>
<path d="M358.4,60.4c1.1-2,3.8-5.8,2.2-8.1c-0.2,1.2-0.7,2.3-1.5,3.2l-0.2,0.3c0.5-1.3,0.8-2.6,0.8-4c0.1-1.2,0-2.3-0.3-3.4
	c-0.1-0.5-0.3-1.1-0.5-1.6c0-0.1-0.6-0.9-0.6-1c-0.1,1.7-0.6,3.3-1.3,4.8c-0.6,1-1.1,2-1.6,3c2.3-10.3-0.8-12.2-0.8-12.2
	c0,0.1-0.1,0.2-0.1,0.3c0,1.7-0.2,3.4-0.4,5.2c-0.2-0.4-0.6-0.8-1-1.1c0.1,0.5,0.1,1,0,1.5c0,1-0.2,2-0.5,2.9
	c-0.7,2.6-1.8,5.1-3.4,7.2c-1,1.1-2.2,2.1-3.5,2.9c-2,1.4-4.6,3.2-4.1,6c0.3,0.8,0.7,1.6,1.2,2.3c0.2,0.4,0.3,0.8,0.2,1.2
	c-0.2,0.8-1.3,0.3-1.7,0.1c-0.9-0.4-1.9-0.9-2.8-1.3c-0.6-0.2-1.2-0.5-1.9-0.6c-0.6-0.2-1.2-0.3-1.9-0.4c-0.4,0-1.2,0.1-1.2,0.6l0,0
	c-0.6,0.2-1.1,0.6-1.3,1.2c0.6,0,1.1-0.3,1.6,0c0.3,0.3,0.6,0.7,0.8,1.1c0.4,0.7,0.9,1.2,1.6,1.6c1.4,0.8,3,1.4,4.6,1.7
	c1.8,0.5,3.6,1.1,5.3,1.9c1.4,0.9,2.8,2,4,3.2c0.2-0.2,0.5-0.5,0.7-0.7c-0.2-0.3-0.5-0.6-0.4-0.6c0.2,0.1,0.5,0.2,0.7,0.3
	c0.1,0,0.4-0.3,0.5-0.3c0.3-0.2,0.6-0.3,1-0.4c0.2-0.1,1.1-0.2,1.2-0.1c-0.3-0.3-0.6-0.6-1-0.9c0.7,0.2,1.4,0.5,2.1,0.9h3
	c-0.7-1.5-3.5-2.5-4.9-2.9c-1.1-0.4-2.3-0.5-3.5-0.5c0.7-0.1,1.4-0.5,1.9-1l1.1-0.8l-0.6-0.8l1.1,0.4l0.2-0.2
	c0.5-0.4,0.9-0.8,1.4-1.3l-1-0.4l1.4-0.1c0.5-0.5,0.9-1.1,1.3-1.7l1-1.4l-1.3-0.3l1.8-0.5c0.8-1.2,1.3-2.4,1.7-3.8
	c0-0.2,0.1-0.7,0.2-0.8c-0.9,0.5-1.8,1-2.7,1.4C357.5,61.8,358,61.1,358.4,60.4z"/>
<path d="M353,241.8c-0.2-0.4-0.4-0.8-0.7-1.2c0-0.5-0.1-1.1-0.3-1.5c-0.1-0.3-0.3-0.5-0.4-0.8l0,0l0.2,0.2c0.1,0.1,0.4,0.1,0.5,0
	c0,0,0.1-0.1,0.1-0.1c0.1-0.7,0.1-1.4-0.2-2c0-0.1-0.1-0.2-0.1-0.3c0.2,0.1,0.4,0,0.5-0.2c0,0,0-0.1,0-0.1c0-1.5-0.6-3-1.7-4
	c0.5-0.3,1.1-0.4,1.7-0.5c-0.1-0.1-0.2-0.2-0.3-0.3c-0.1,0-0.2,0-0.3,0c-0.5,0.1-1,0.1-1.5,0.2c0.1-0.2,0-0.4-0.2-0.5
	c0,0-0.1,0-0.1,0c-0.6-0.1-1.3-0.3-1.9-0.6c-0.6-0.2-1.2-0.3-1.9-0.3c-1.2,0.1-2.4,0.4-3.6,0.7c-0.3,0-0.5,0.4-0.2,0.6h-0.4
	c-0.6-0.2-1.3-0.2-1.9-0.1c-0.1,0-0.2,0.1-0.2,0.2c0.6,0.1,1.1,0.3,1.6,0.6c-0.1,0.1-0.2,0.2-0.3,0.4c-1.1,1.4-1.5,3.2-1.1,4.9
	c0,0.2,0.2,0.3,0.4,0.2c0,0,0.1,0,0.1,0c-0.1,0.2-0.2,0.4-0.2,0.5c-0.2,0.6-0.3,1.2-0.3,1.8c-1.2,0.5-2.2,1.3-2.9,2.4
	c-2,2.6-3,5.9-4.8,8.7c-0.5,0.8-1.1,1.6-1.8,2.2c-0.7,0.6-1.4,1.1-2.2,1.5c-0.3,0.2-0.5,0.6-0.3,0.9c0,0,0,0,0,0l0.2,0.1
	c0.8,0.2,1.6,0.3,2.5,0.4h0.3c0.5,0,1,0.1,1.5,0.1h0.6c0.4,0,0.8-0.1,1.2-0.2c0.5-1.1,1-2.3,1.3-3.5c-0.2,1.2-0.4,2.4-0.7,3.5
	c1.8-0.3,3.5-1,4.9-2.1c0.5-2,0.5-2.4,0.5-2.4v2.2c0.8-0.5,1.5-1.2,2.1-1.9c-0.9,1.3-2.1,2.3-3.5,3c-1.4,0.9-3,1.4-4.7,1.6
	c-0.4,0-0.8,0-1.2,0c-0.7,1.3-1.5,2.4-2.6,3.4c-0.1,0.1-0.1,0.4,0,0.5c0.4,0.3,0.8,0.5,1.3,0.5c0.2-0.1,0.4-0.1,0.6-0.2
	c0.3-0.2,0.5-0.5,0.7-0.8c-0.1,0.3-0.2,0.5-0.4,0.8c0.1,0,0.2,0.1,0.3,0.2c0.4,0.3,0.9,0.3,1.3,0.1l0.4-0.1l0,0
	c0.3-0.2,0.5-0.5,0.7-0.8c-0.1,0.2-0.2,0.5-0.4,0.7h0.5c0.8-0.1,1.2-0.9,1.5-1.6c0.1-0.2,0.1-0.4,0.2-0.5c-0.4,0-0.9,0-1.3-0.1
	c2.4-0.2,4.7-0.6,7-1.2h0h0l0.5-0.1h0h0l-0.1,0.1c-0.2,0.1-0.4,0.2-0.6,0.3c0.1,0.3,0.2,0.6,0.3,1c0.1,0.6,0,1.1-0.5,1.3
	c-0.3,0.1-0.7,0.3-1,0.5c-0.4,0.3-0.5,0.7-0.5,1.1c0,0.1,0.1,0.2,0.1,0.3c-0.4-0.3,2.1-0.9,2.2-0.9c0.8-0.1,2-0.3,2.5,0.5
	c0.2,0.2,0.2,0.5,0.4,0.7c0.2,0.2,0.9,0.4,0.9-0.1c0-0.2,0-0.3,0-0.5c0.2,0.2,0.4,0.5,0.5,0.6c0.2,0.1,0.4,0,0.4-0.2
	c0,0,0-0.1,0-0.1c0-0.7-0.4-1.3-1-1.6c-0.6-0.3-1.3-0.2-1.9-0.5c-0.3-0.1-0.5-0.2-0.7-0.5c0.4-0.1,0.8-0.2,0.8-0.2
	c0.7,0,1.7-0.2,2.1,0.4c0.1,0.2,0.2,0.4,0.3,0.6s0.7,0.4,0.7-0.1c0-0.1,0-0.3,0-0.4c0.2,0.2,0.3,0.5,0.5,0.5c0.1,0,0.3,0,0.3-0.2
	c0,0,0-0.1,0-0.1c0-0.6-0.3-1.1-0.8-1.3c-0.5-0.2-1-0.2-1.5-0.4c-0.8-0.3-0.9-1-1-1.8c0.5-0.3,0.9-0.5,1.4-0.8
	c0.6-0.4,1.1-0.9,1.5-1.5c0.1-0.3,0.2-0.7,0.5-1.6c0.1,0.4,0.1,0.8,0,1.2c0.2,0,0.5-0.1,0.6-0.2c0.5-0.5,0.9-1.2,1.2-1.9l0,0
	c0.3-0.6,0.5-1.3,0.6-1.9c0.1,0.7,0,1.4-0.3,2.1c0.3,0.1,0.5,0,0.7-0.2c1-1.3,1.5-2.9,1.5-4.6C354,244.9,353.7,243.3,353,241.8z
	 M344.9,257.7c-0.2,0.1-0.4,0.1-0.6,0.2c-0.1-0.5-0.2-0.9-0.2-1.4c0.4-0.1,0.8-0.2,1.1-0.4c0,0.1,0.1,0.3,0.1,0.4
	C345.4,257.1,345.3,257.5,344.9,257.7L344.9,257.7z"/>
<path d="M408.6,155.5L408.6,155.5C408.6,155.5,408.6,155.5,408.6,155.5L408.6,155.5C408.6,155.5,408.6,155.5,408.6,155.5z"/>
<path d="M418,149.4L418,149.4L418,149.4c-0.1-0.2-0.2-0.3-0.3-0.5l-0.1-0.3l0,0l0,0c-0.1-0.2-0.1-0.4-0.2-0.6
	c-0.2-0.8-0.3-1.6-0.5-2.4c-0.2-0.9-0.4-1.8-0.8-2.7c-0.1-0.3-0.2-0.6-0.4-1c-0.1,0.4-0.3,0.8-0.5,1.1c-0.3,0.6-0.6,1.1-1,1.5
	c-0.7,0.8-1,0.9-1.1,2.1c0,0.1,0,0.3,0,0.4c0.3,0.2,0.6,0.4,0.9,0.6c0.2,0.1,0.5,0.3,0.8,0.4l0.1,0.1c0.2,0.3,0.4,0.6,0.5,0.8
	l0.4,0.6v0.1c0.1,0.1,0.1,0.2,0.2,0.2c0.1,0.2,0.2,0.5,0.4,0.7c0,0.1,0,0.1,0,0.2c-0.1,1-0.2,2.1-0.5,3.1c0,0.1,0,0.2-0.1,0.3
	c0,0.1-0.1,0.2-0.1,0.2c0,0.1-0.1,0.1-0.1,0.2l0,0l0,0l-0.1,0.1c0,0-0.1,0.1-0.1,0.1l-0.2,0.1l-0.2,0.1c-0.5,0.2-0.8,0.7-0.7,1.2
	c0.1,0.5,0.7,0.8,1.2,0.7c1.1-0.3,1.9-1.2,2.2-2.2c0.3-1.1,0.5-2.2,0.6-3.4l0.1-0.1c0.4-0.4,0.4-1,0-1.4
	C418.2,149.7,418.1,149.6,418,149.4z"/>
<path d="M429.2,148c0.3,0.2,0.7,0.2,1.1,0.2c-0.2-0.3-0.5-0.6-0.6-0.9c0,0,0.1-0.2,0.4,0c0-1-1.9-1.2-2.6-1.3
	c-0.3,0-0.9-0.5-1.2-0.6c-0.4-0.2-0.9-0.3-1.3-0.3c-1-0.2-1.9-0.2-2.9-0.4c-0.9-0.1-1.8-0.5-2.6-1c-0.7-0.7-1.3-1.6-1.8-2.6
	c-0.3-0.6-0.6-1.1-0.9-1.7c-0.5-0.7-1-1.5-1.5-2.1l0,0c-0.4-0.6-0.9-1-1.5-1.3c-0.5-0.3-1-0.5-1.6-0.7c-0.1-0.1-0.2-0.1-0.3-0.2
	c-0.9-0.4-1.9-0.6-2.8-0.5c-0.9,0.1-1.9,0.2-2.8,0.3c-0.6,0.1-0.8,0.1-1.4,0.2s-1.4,0.1-2.1,0.1h-0.8c-0.7-0.1-1.4-0.1-2.1-0.2h-0.2
	h-0.1l-0.4-0.1c-0.3-0.1-0.6-0.2-0.9-0.3l-0.5-0.2c-1,0.1-2,0.2-3,0.5c0.9-0.5,1.9-0.7,3-0.7c0-0.1,0-0.2-0.1-0.2
	c-0.3-0.3-0.6-0.5-0.9-0.8c-0.8-0.7-2-1-2.5-1.9l0,0c-0.7-0.7-1.1-1.5-1.9-2.2c-1.3-1.2-3.1-1.8-4.9-1.9l0.8,0.6l-1.3-0.6
	c-0.1,0-0.2,0-0.4-0.1c-0.3-0.1-0.8-0.2-0.9-0.2c-0.4,0-0.7,0.1-1,0.4l1.3,0.6l-1.5-0.4c-0.7-0.1-1.4-0.1-2.1,0
	c-0.3,0-1.5,0.5-1.5,0.9c1,0.3,1.7,1.2,1.8,2.2c-0.8,0.1-1.4,0.6-1.7,1.3c0,0.1,0,0.2,0,0.4l-1.2,1.1c-0.2,0.2-0.4,0.4-0.5,0.6
	c-0.2,0.6-0.1,1.2,0.4,1.6c0.1,0.1,0.1,0.1,0.2,0.1c0,0.3,0.1,0.5,0.3,0.7c0.3,0.2,0.7,0.3,1.1,0.2c0.2-0.1,0.4-0.2,0.6-0.3
	c0.3-0.1,0.5-0.1,0.8-0.1c0,0.1-0.1,0.3-0.1,0.5c-0.3,1.1-0.4,2.3-0.1,3.5c0.3,1.1,0.9,2.1,1.6,2.9c0.1,0.2,0.3,0.3,0.5,0.5
	c0.2,0.3,0.5,0.6,0.8,0.9c0.1,0.1,0.2,0.2,0.2,0.3c0.6,1.1,1,2.2,1.2,3.5c0.3-0.3,0.6-0.6,0.9-0.9c0,0,0,0,0,0.1v0.3
	c0.1,0.4,0.2,0.9,0.2,1.3c0.4,1.4,0.7,2.8,0.8,4.2c0,0.5,0.1,1.5-0.4,1.9c-0.2,0.2-0.7,0.1-1,0.3s-1,1-0.4,1.3
	c0.2,0.6,0.9,0.7,1.4,0.6c0.6-0.1,1.2-0.3,1.7-0.7c0.5-0.6,0.7-1.3,0.8-2c0.1-0.9,0-1.8,0.1-2.7c0.1-1.2,0.3-2.5,0.5-3.7
	c-0.5-0.5-1-0.9-1.5-1.3c0.7,0,1.4,0.4,1.8,1l0,0l0.2,0.2c0.1,0.1,0.2,0.3,0.3,0.4s0.1,0.2,0.2,0.3c0.4,0.6,0.7,1.3,0.9,1.9
	c0.7,1.6,0.4,3.4-0.6,4.7c-0.6,0.1-1.4,0.4-1.6,1c0,0.1,0,0.1,0,0.2c0,1,1.6,0.9,2.2,0.8c0.5,0,1-0.1,1.4-0.3
	c0.8-0.4,1.3-1.8,1.5-2.6c0.2-0.8,0.3-1.7,0.1-2.6c-0.1-0.8-0.3-1.6-0.5-2.4c-0.1-0.5-0.2-1.1-0.3-1.6c-0.2-0.9-0.3-1.8-0.1-2.7
	c0.1,0.9,0.4,1.9,0.8,2.7c1.5,0.1,3,0,4.4-0.3c1.2-0.4,2.4-0.9,3.5-1.5l1.6-0.8l0.8-0.4l0.4-0.2l0.2-0.1h0l0,0l0.5-0.2
	c-0.5-0.7-1.1-1.8-0.9-2.4c0.3,0.9,0.8,1.7,1.5,2.2l0,0c0.3,0.4,0.6,0.9,0.8,1.4c0.3,0.6,0.6,1.1,0.8,1.7c0.1,0.3,0.2,0.6,0.2,1
	c0,0.2,0.1,0.3,0.1,0.5c0,0,0,0.1,0,0.1c0,0.1,0,0.2,0,0.2c0,0.4,0,0.8,0,1.1c0,0.3-0.1,0.6-0.2,0.9c-0.1,0.4-0.1,0.8-0.2,1.2
	c-0.1,0.4-0.2,0.7-0.3,1.1c-0.2,0.5-0.4,0.9-0.6,1.4c-0.1,0.1-0.1,0.2-0.2,0.3l0,0l-0.1,0.1l0,0l0,0l0,0h-0.3
	c-0.6,0.1-0.9,0.6-0.9,1.1s0.6,0.9,1.1,0.9c0.2,0,0.5,0,0.7-0.1c1.1-0.2,2.4-0.6,2.6-1.9c0.1-0.7,0.2-1.5,0.3-2.3c0-0.1,0-0.2,0-0.3
	l0,0c0-0.1,0-0.2,0.1-0.3l0.1-0.2c0,0,0.1-0.1,0.1-0.1c0.1-0.1,0.2-0.2,0.2-0.3c0.1-0.2,0.2-0.4,0.2-0.7c0-0.3-0.1-0.7-0.2-1l0,0
	v-0.1c0-0.1,0-0.2,0-0.3s0-0.3,0-0.5c0-0.4,0-0.8,0-1.2c0-1.3-0.1-2.6,0.8-3.6c1.1-1.2,1.9-2.7,2.2-4.3c0.1-0.3,0.1-0.7,0.1-1
	c0.8,1.3,1.4,2.8,2.3,4c0.5,0.6,1.1,1.2,1.9,1.6c1,0.5,2,0.8,3.1,0.8c0.5,0,1.1,0,1.6,0.1c0.5,0.1,1,0.2,1.4,0.4
	c0.3,0.1,0.6,0.3,0.8,0.5c0.3,0.3,0.4,0.8,0.7,1.1c0.1,0.1,0.2,0.2,0.3,0.2c0.6,0.4,1.3,0.5,2,0.4c-0.2-0.1-0.5-0.2-0.7-0.4
	L429.2,148z M412.2,152.5c0.1-0.1,0.1-0.1,0.2-0.2C412.4,152.4,412.2,152.6,412.2,152.5z"/>
<path d="M253.6,307.3L253.6,307.3z"/>
<path d="M253.8,307.6L253.8,307.6C253.8,307.6,253.8,307.6,253.8,307.6z"/>
<path d="M215.1,309.1L215.1,309.1z"/>
<path d="M245.1,317.3c-2.6-1.7-3.8-4.3-4.2-4.5c-0.2-0.1-0.3-0.2-0.5-0.2c0.2,0.4,0.4,0.9,0.3,1.4c-0.1,1.1,0,2.2,0,3.3
	s0.4,2.6-0.3,3.7c-0.1,0.2-0.3,0.4-0.5,0.5v0c-0.3,0.3-0.4,0.8-0.2,1.1c0.4,0.5,1.1,0.8,1.8,0.6l2-0.2c0.5,0,1.2,0,1.4-0.6
	c0.1-0.5,0-0.7-0.2-1.1c-0.1-0.5-0.1-0.9,0-1.4c0-0.4,0-0.8,0-1.3C244.9,318.3,245,317.8,245.1,317.3z"/>
<path d="M250.2,306.3c-0.6-1.5-1.2-3-1.9-4.5c0,0,0-0.1,0-0.1c-0.3-0.5-0.5-1-0.7-1.5l-0.2-0.5c-0.3-0.6-0.6-1.2-1.1-1.8
	c-0.8-1.1-1.8-2-3-2.6c-1.3-0.6-2.7-0.8-4.1-0.7l-0.6,0.1c-0.5,0.1-0.9,0.2-1.4,0.3c-0.6,0.2-1.2,0.4-1.7,0.7
	c-0.5,0.1-1.1,0.3-1.6,0.4c-0.6,0.1-1.3,0.2-1.9,0.2c-0.7,0-1.3,0-2,0l-0.7-0.1c0,0.8-0.2,1.6-0.6,2.3c0.2-0.8,0.2-1.5,0.1-2.3
	c0-0.2,0-0.3,0-0.5c-0.2-0.7-0.8-1.3-1.5-1.5c-0.9-0.3-1.6-0.9-2.5-1.1c-2.4-0.7-5.2,0.2-7.6,0.4c-0.9,0-1.7,0.3-2.4,0.9
	c-1.3,1.1-1.6,2.5-2,4.1c-0.1,0.2-0.1,0.5-0.2,0.7l-0.2,0.4l-0.2,0.4l-0.1,0.1c-0.1,0.1-0.1,0.2-0.2,0.3c-0.3,0.5-0.4,1.1-0.3,1.7
	c0,0.3,0,0.7,0.1,1l-0.1,0.4c-0.4,2.1-0.7,4.2-1,6.2s-0.8,4.5,0,6.6c0.7,1.8,2.8,5.1,5.3,4.8c0.7-0.1,1.2-0.6,1.2-1.3
	c0-0.2-0.1-0.4-0.2-0.6v0c0-0.3-0.3-0.6-0.6-0.5c-0.3,0-0.6,0.3-0.6,0.6v0.3c-0.4-0.1-0.8-0.3-1.2-0.5c-0.5-0.4-1-0.8-1.4-1.4
	c-1.7-2.4-1-5.8,0.1-8.4c0.5-1.2,1.4-1.4,2.5-2.1s1.6-1.9,2.6-2.5c0.4,1.1,0.3,2.4,0.6,3.5c0,0.2,0.1,0.4,0.2,0.6
	c0.1,0.3,0.5,0.4,0.7,0.2c0.1,0,0.1-0.1,0.1-0.1c0.2-0.3,0.5-0.6,0.8-0.9l0.1-0.2c0.8-0.8,1.7-1.6,2.7-2.2c0.9-0.7,1.8-1.5,2.5-2.3
	c0.4-0.5,0.9-0.9,1.3-1.4c-0.3,0.8-0.8,1.6-1.4,2.1c-1.9,1.5-3.2,2.6-4.2,3.4l0,0l-0.1,0.1l0,0l-0.3,0.3l-0.2,0.1l-0.1,0.1l0,0
	c0,0-0.1,0-0.1,0.1l0,0l-0.2,0.2c-0.1,1.5-0.2,3.1-0.5,4.6c-0.2,1-0.4,1.9-0.7,2.8c-0.4,0.9-0.6,1.8-0.6,2.7c0,0.3,0.1,0.5,0.1,0.8
	c0,1-0.7,2-1.1,2.9c0,0.1,0,0.3,0.1,0.3c0.8,0.5,1.7,0.8,2.6,0.8c0.3,0,0.5,0,0.8,0c0.2,0,0.5-0.1,0.7-0.2s0.6-0.1,0.8-0.4
	c0.1-0.2,0.1-0.4,0.1-0.5c0-0.3,0-0.6-0.1-0.9c-0.1-1.7,0.3-3.3,1.4-4.6c0.7-1,1.3-1.6,1.1-2.9c-0.1-0.5,0-1.1,0.1-1.6
	c-0.3-0.8-0.8-1.5-1.4-2.2c1.1,0.5,1.7,1.7,1.6,2.8l0,0c0,0.5,0,1,0,1.5c0.1,1.8,0.5,3.5,0.6,5.2c0,0.4,0,0.8,0,1.2v0.1
	c-0.7,0.8-1.2,1.7-1.6,2.7c-0.1,0.2-0.1,0.4,0,0.6c0.2,0.8,1.5,0.6,2.1,0.6c1.1,0.1,2.1,0,3.2-0.2c0.5-0.3,0.7-1,0.4-1.5
	c-0.1-0.3-0.4-0.5-0.5-0.8c0-0.5,0-0.9,0.1-1.4c0.1-1.5,0.2-3,0.5-4.5c0-0.1,0-0.2,0.1-0.3l0.3-0.6c0.3-0.5,0.5-1.1,0.5-1.6
	c0-0.3,0-0.6,0-0.9c0-0.2-0.1-0.3-0.1-0.5c0-0.1,0-0.1,0-0.2c0.1-0.3,0.2-0.7,0.3-1l0.6-1.8c-0.1,0.7-0.1,1.3,0.1,2
	c0.4,0.2,0.8,0.3,1.2,0.4c1.3,0.3,2.7,0.4,4.1,0.2c0.7-0.1,1.4-0.1,2-0.2c0.3,0,0.6-0.1,0.9-0.1l0,0c0.2,0,0.5,0,0.7,0.1
	c0.1,0.1,0.3,0.1,0.4,0.2c0.3,0.4,0.6,0.8,0.9,1.3c0.4,0.5,0.8,1,1.2,1.5s1,1.2,1.5,1.8l0.4,0.4l0.1,0.1l0,0
	c0.3,0.3,0.6,0.7,0.9,1.1c0.1,0.4,0.2,0.9,0.2,1.3c0.1,0.5,0.1,1.1-0.1,1.6c-0.3,0.4-0.7,0.7-0.9,1.2c-0.1,0.4-0.1,0.8,0.2,1.1
	c0.5,0.5,1.4,0.4,2,0.3c0.7,0,1.4-0.1,2.1-0.2c0.4-0.1,0.8-0.3,0.9-0.7c0-0.2,0-0.4,0-0.6c0-0.3-0.1-0.5-0.3-0.7
	c0-0.4,0-0.7-0.1-1.1s-0.1-1-0.1-1.5c0-0.2,0-0.5,0-0.7c0-0.2,0-0.4,0-0.6c0-0.2,0.1-0.4,0.2-0.5c0.1-0.2,0.1-0.4,0-0.6
	c-0.1-0.2-0.2-0.4-0.3-0.6c-0.1-0.2-0.1-0.3-0.2-0.5c-0.3-0.8-0.8-1.8-1.1-2.6c-0.3-0.9-0.4-1.8-0.3-2.7c0-1,0.1-1.9,0.1-2.9
	s0.2-1.8,0.2-2.8c0.4,1.1,0.9,2.1,1.6,3c0.2,0.3,0.5,0.5,0.8,0.6c0.4,0.2,0.9,0.3,1.1-0.1C251.7,308,250.8,307.3,250.2,306.3z"/>
<path d="M290.9,462.4c0-0.1,0-0.3,0-0.4c-0.4-3.8-2.9-6.2-6.4-7.4c-2.2-0.8-4.6-1.1-6.9-1.9c-0.5-0.2-0.9-0.4-1.4-0.6
	c-1.8-0.7-2.5-2-2-2.8c-0.1,0.3,0,0.7,0.1,1c0.3,0.4,0.7,0.8,1.2,1c0.3,0.1,0.7,0.1,1,0c0.4-0.1,0.7-0.2,1-0.4
	c0.7-0.6,1-1.6,0.5-2.4c-1.2-2.4-4.5-1.2-5.5,0.7c-0.6,1.2-0.7,2.5-0.5,3.8c0.3,1.9,1.2,3.7,2.6,5.1c1.1,1,2.5,1.5,3.6,2.4
	c1.3,1,2.4,2.2,3.2,3.6c1.2,2.1,1.4,4.6,0.4,6.8l-0.1,0.3c0-0.1,0.1-0.2,0.1-0.2c0.6-1.4,0.7-3,0.3-4.4c-0.3-1.3-0.9-2.5-1.8-3.5
	c-1.2-1.5-2.9-2.5-4.8-2.7c-2.2-0.3-4.5,0.5-6.4-0.6c-0.9-0.7-1.6-1.5-2.2-2.3c-0.3-0.4-0.7-0.7-1.1-1c-0.6-0.3-1.2-0.7-1.7-1.2
	c-0.3-0.4-0.5-1.6-1.2-1.4c0.1-0.1,0.1-0.2,0.2-0.3c0.2-0.3,0.4-0.6,0.7-0.8c0.1-0.1,0.1-0.2,0-0.2c0,0,0,0,0,0l-0.5,0.3l0.4-0.8
	c0-0.1-0.1-0.1-0.2-0.1l-0.5,0.6l0.1-0.9c-0.1,0-0.2,0-0.2,0.1c0,0,0,0,0,0c-0.1,0.5-0.3,1-0.4,1.5c-0.1,0.6-0.2,1.2-0.2,1.8
	c0,0.2,0,0.4,0,0.6c-0.5,0.2-1,0.5-1.5,0.8c-0.8,0.6-1.3,1.5-1.6,2.4c-0.3,1.2-0.4,2.4-0.2,3.6c0.1,0.3,0.2,0.5,0.5,0.7
	c0.2,0.2,0.5,0.3,0.8,0.3c0.7,0,1.4,0,2.1,0c0,0,0.5-0.1,1.1-0.3c0,0.1,0,0.1,0,0.2c-0.2,0.2-0.5,0.3-0.6,0.4c0.5,0.5,0.7,1.4,0,1.5
	c-1.2,0.1-2.2-0.8-3.4-0.3c-0.3,0.1-0.6,0.4-0.8,0.7c-0.1,0.3,0.1,0.5,0.3,0.6c0.2,0.1,0.5,0.1,0.7,0.1c0.1,0,0.2,0,0.3,0
	c0.2,0,0.5,0,0.7,0c0.3,0.1,0.6,0.2,0.9,0.4c0.8,0.5,1.5,1.1,2.2,1.6c0.7,0.6,1.5,1.1,2.3,1.4c0.2,0.1,0.3,0.1,0.5,0.1
	c1.2,0,2.9-3.2,2.9-3.2c-0.3,0.9-0.7,1.7-1.3,2.5c0.9-0.3,1.9-0.5,2.9-0.3c-1.5-0.1-2.9,0.6-3.9,1.7c-0.1,0.7-0.1,1.3,0,2
	c0.1,0.5,0.2,0.9,0.3,1.3c0.2,0.5,0.4,0.9,0.7,1.4c0.1,0.2,0.3,0.4,0.5,0.6c0.1,0.1,0.4,0.3,0.3,0.3c-0.4,0.2-0.8,0.4-1.2,0.7
	c0,0.2,0,0.4,0.1,0.5c0.3,0.4,0.8,0.4,1.3,0.4c2.8-0.1,5.6,0.1,8.3,0.2c0.4,0,0.9,0,1.3-0.2c0.4-0.1,0.6-0.4,0.7-0.8
	c1.5-2.1,3.8-3.4,5.9-4.8C289.3,470.1,291.2,466.3,290.9,462.4z"/>
<path d="M167.3,179.3L167.3,179.3z"/>
<path d="M168.3,161.8c0.1-2.1-2.2-3.6-3.9-4.4c-3.3-1.7-6.6-1.2-10.1-0.8c-1,0.2-2,0.2-3,0.1c-1.1-0.1-1.9-0.6-3-0.3
	c-0.7,0.2-1.5,0.4-2.2,0.5c-0.3-0.1-0.5-0.3-0.6-0.6c-1.4-2.4-2-5.2-2-8c0.4,0.1,1.2,0.6,1.6,0.6c0.9-0.1,2.5-0.9,2.3-1.9
	c-1.3-0.2-2.7,0.3-4,0.2c-0.2,0-0.3,0-0.4-0.1l0,0c0-0.1,0.1-0.2,0.2-0.3c0.1-0.2,0.2-0.4,0.3-0.6s0.3-0.4,0.4-0.6
	c0.2-0.2,0.4-0.4,0.7-0.6c0.3-0.2,0.6-0.3,0.9-0.4c1.1-0.4,2.1-1.3,2.5-2.5c0.2-0.8,0.2-1.7-0.1-2.5c-0.1-0.2-0.5-0.1-0.4,0.1
	c0.1,0.4,0.1,0.8,0,1.2c0,0.2,0,0.4-0.1,0.6c0,0.1,0,0.2-0.1,0.3c0,0.1-0.1,0.1-0.1,0.2l0,0c-0.1-0.1-0.1-0.2-0.2-0.2
	c-0.1-0.2-0.2-0.4-0.3-0.7c0-0.1-0.2-0.2-0.3-0.1s-0.2,0.2-0.1,0.3c0.1,0.3,0.2,0.5,0.2,0.8c0.1,0.3,0.1,0.5,0,0.8
	c-0.2,0.6-0.8,0.8-1.3,1c-0.5,0.2-0.9,0.5-1.3,0.9c-0.2,0.1-0.3,0.3-0.4,0.5l-0.1,0.1c-0.2,0.3-0.4,0.6-0.6,0.8
	c-0.1,0.2-0.3,0.4-0.4,0.5l-0.1-0.1c0.1-0.1,0.2-0.2,0.2-0.3c0.1-0.3,0.1-0.6,0.1-0.9c0-0.1-0.1-0.2-0.3-0.2c-0.1,0-0.1,0.1-0.2,0.2
	c0,0.2-0.1,0.5-0.3,0.7c-0.1,0.1-0.2,0.2-0.3,0.2c-0.2,0-0.3-0.1-0.5-0.1c-0.6,0-1.1-0.3-1.7-0.2h-0.2c0-0.1-0.1-0.1-0.1-0.2
	c-0.1-0.3-0.1-0.5-0.1-0.8c0,0,0-0.1,0-0.1c0-0.1-0.1-0.2-0.2-0.2c-0.1,0-0.2,0.1-0.2,0.1v0.1c0,0.2,0,0.4,0,0.6l0,0
	c-0.1-0.3-0.2-0.6-0.3-1v-0.1c-0.1-0.2-0.2-0.4-0.3-0.6c-0.3-0.5-0.6-0.9-1-1.2c-0.4-0.4-0.9-0.8-0.9-1.4c0-0.3,0.1-0.5,0.3-0.8
	c0.1-0.2,0.3-0.5,0.5-0.7c0.1-0.1,0.1-0.2,0-0.3c-0.1-0.1-0.2-0.1-0.3,0l0,0c-0.2,0.2-0.3,0.4-0.5,0.6c-0.1,0.1-0.2,0.1-0.2,0.2l0,0
	l0,0c0-0.1,0-0.1,0-0.2c0-0.1,0-0.2,0-0.3c0-0.2,0-0.4,0.1-0.6c0-0.4,0.2-0.8,0.4-1.2c0.1-0.2-0.2-0.5-0.3-0.3
	c-0.5,0.7-0.8,1.5-0.8,2.4c0.1,1.2,0.7,2.4,1.6,3.1c0.2,0.2,0.5,0.4,0.7,0.6c0.2,0.2,0.4,0.5,0.5,0.7c0.1,0.2,0.1,0.5,0.2,0.7
	s0.1,0.4,0.1,0.6c0,0.1,0,0.1,0,0.2c-0.6,0.1-1.1,0.1-1.7,0c-0.9-0.3-1.7-1.1-2.5-1.4c-0.1,0.1-0.1,0.3-0.1,0.4c0.2,1.1,1,2,2.1,2.4
	c0.6,0.2,1.1-0.6,1.3,0c0,0.3-0.1,0.7-0.1,1c-0.2,0.6,0,1.3,0.6,1.6v0.1c0.3,0.8,0.5,1.6,0.4,2.4c0,0.2,0,0.3,0,0.5
	c0,0.7-0.3,1.9,0.7,1.9c0.4,0,0.8,0.2,1.1-0.1c0.1,0,0.1-0.1,0.1-0.1c0,0.6-0.1,1.3-0.1,1.9c0,1.2,0.3,2.5,0.6,3.6
	c0.2,0.9,0.7,1.7,1.3,2.4c0.5,0.5,1.1,0.8,1.6,1.3c0.5,0.4,0.9,0.8,1.3,1.3c-0.9,0.6-1.8,1.1-2.7,1.6c-1.1,0.6-0.7,2-0.5,3
	s0,2.1,0.2,3.1c0.1,0.7,0.5,1.4,1.2,1.6c0.6,0.3,1.2,0.4,1.9,0.4c-0.1-0.7,0-1.4-0.7-1.8c-0.3,0-0.6,0-0.9,0
	c-0.4-0.2-0.2-0.8-0.2-1.1c0.1-0.6-0.1-1.3-0.1-1.9c0-0.3,0-0.9,0-1.2s0.2-0.5,0.6-0.6c0.7-0.2,1.4-0.4,2.1-0.6
	c0.7-0.2,1.4-0.4,2.1-0.6c-0.4-0.9-0.8-1.1-0.8-1.1s0.7,0.1,1,1.3c0,0.1,0.1,0.2,0.1,0.2c0.1,0.3,0.1,0.7,0.1,1.1
	c0.2,1.9,0.2,5.1,0.2,5.5c0,0.6-0.1,2-0.1,3.2c0,0.2,0,0.4,0,0.6c0,0.8,0.1,1.5,0.2,2.3c0.5,0.1,1,0.1,1.4-0.1
	c-0.2-0.7-0.4-1.3-0.6-2c0.1-0.9,0.1-1.8,0.3-2.7c0.1-0.5,0.1-1,0-1.5c0.1-1.1,0.3-2.2,0.6-3.2c0.1-0.7,0.4-1.3,0.6-2
	c0-0.5,0-1,0.1-1.5c0-0.7-0.1-1.3-0.2-2c0.2,0.6,0.5,1.1,0.9,1.5l0.4,0.2c0.3,0.1,0.5,0.2,0.8,0.2c0.5,0.1,1.1,0.1,1.6,0.1
	c0.6,0,1.1-0.1,1.7-0.2c0.3-0.1,0.7-0.1,1-0.1c0.2,0,0.3,0,0.5,0c0,0,0,0,0-0.1c-0.4-0.5-0.6-1.1-0.9-1.7c0,0,0.4,0.6,0.5,0.8
	c2.2,3.3,2.3,3.2,5.7,5.5c2,1.3,1.9,3.9,2.1,6.2c0.1,0.8,0.2,1.6,0.4,2.4c0.5,0,1-0.1,1.5-0.3c-0.2-0.5-0.4-1-0.5-1.5l0,0
	c-0.2-0.6-0.2-1.2-0.1-1.8c0.1-0.7,0.1-1.3,0.1-2c-0.1-1.2-0.1-2.3,0-3.5l-0.7-0.9c0.1,0.1-0.5-0.8-0.7-1.3c-0.2-0.5-0.3-1-0.2-1.6
	c0-0.3,0-0.6,0.1-0.9c0.2-0.6,0.9-1,1.2-1.6c0.4-0.6,0.6-1.4,0.6-2.1c0.2,0.2,0.4,0.4,0.7,0.5C168.6,162.9,168.2,162.5,168.3,161.8z
	"/>
<path d="M158.9,168.2c0,1.4,0.2,2.7,0.6,4c-1.1,4-1.6,5.5-1.4,7.2c1.2,0.2,1.3,0,1.3,0l-0.1-1.5c0,0,0.6-4.8,2.3-5
	c-0.2-0.7-0.2-1.6,0.2-2.3C160.6,170,159.6,169.2,158.9,168.2z"/>
</svg>
